<svg width="114" height="82" viewBox="0 0 114 82" fill="none" xmlns="http://www.w3.org/2000/svg">
<path fill-rule="evenodd" clip-rule="evenodd" d="M8.97901 42.082C-2.58256 42.082 2.17212 54.2041 2.3355 56.6133C2.59178 60.3955 0.292515 67.8462 0 73.7023V75.9269C0.209504 79.465 1.56271 82 5.3878 82H19.7546C22.6982 82 21.9715 81.2464 24.1871 80.9186C26.7848 80.5343 25.9561 82 28.7343 82C43.3995 82 38.0381 80.7589 43.1018 76.4936C43.9431 78.5087 43.4022 79.012 45.0275 80.474C48.3723 83.4838 53.3431 80.9171 54.4716 80.9488C56.0627 80.9932 56.6398 82 59.2652 82H70.639C73.7802 82 75.1321 81.4145 77.2581 81.3444L85.0058 82C88.1088 82 89.5602 80.272 90.9925 80.272C91.2738 80.272 116.768 92.1417 113.168 53.0647C112.727 48.293 108.43 39.3284 102.367 39.3284C98.416 39.3284 102.586 41.2839 96.153 39.6464C93.5118 38.9734 91.2184 39.3427 88.5983 38.6403C88.902 34.4414 89.7954 35.6403 89.7954 28.3162C89.7954 15.9688 80.1819 4.91675 69.4419 4.91675L48.8908 5.19783C45.4511 4.20612 46.0776 4.33422 41.8783 4.25811C35.4588 4.14281 37.8773 0.787109 26.3401 0.787109C13.401 0.787109 -1.94087 18.3539 8.97901 42.082Z" fill="#FEFEFE"/>
<path fill-rule="evenodd" clip-rule="evenodd" d="M28.1664 16.5989C23.1067 15.8912 18.935 20.4029 18.4646 25.4964C17.9099 31.4927 21.7627 36.1031 26.263 36.6818C31.3992 37.3412 35.5497 32.9411 36.0287 27.7119C36.1828 26.0254 35.9892 24.4595 35.53 23.0653L37.9379 24.5446L38.4307 23.3449C39.1488 21.5989 40.3986 20.4233 42.1399 20.4233C42.1886 20.4233 42.2374 20.424 42.2848 20.4263C42.8191 22.1015 43.1367 23.8988 43.1953 25.7843C42.6472 26.5529 42.0279 27.2447 41.5647 27.7496L30.492 39.8198V47.177H36.2929L28.9523 64.4491C28.8812 64.6194 27.3139 68.4921 27.2401 68.3323C27.2289 68.3082 27.1926 68.3926 27.1663 68.419C26.7506 67.0965 21.0182 53.8402 20.2922 52.1047C18.2123 47.134 15.5639 40.715 13.4247 35.9335C10.4435 29.2719 10.5417 23.1701 13.7692 16.8732C14.9788 14.5122 17.093 12.3321 19.1314 10.9214C24.9256 6.91155 31.5566 7.85126 36.391 11.7307C34.0753 12.8814 32.1028 14.7872 30.7687 17.415C29.9478 17.0043 29.0709 16.7255 28.1664 16.5989Z" fill="#96989A"/>
<path d="M17.0884 67.3972H9.74786L9.36377 69.9617L18.0529 69.8705L17.4442 73.9323H4.84363L7.35965 57.1417H19.9602L19.3672 61.2035H10.6761L10.3428 63.4266H17.684L17.0884 67.3972ZM30.6851 57.1417H35.1024L29.2422 65.6052L32.5864 73.9323H28.169L26.0562 68.7363L22.3853 73.9323H17.9686L23.8241 65.6052L20.4846 57.1417H24.9013L27.0115 62.3603L30.6851 57.1417ZM44.731 57.1417C45.716 57.1417 46.5559 57.3686 47.247 57.8448C47.923 58.3211 48.4158 58.9571 48.7188 59.7966C49.0061 60.6361 49.0667 61.6112 48.9 62.7235L48.8862 62.8139C48.6141 64.6293 47.9744 66.0355 46.9539 67.0114C45.9307 68.0099 44.6803 68.5095 43.1709 68.5095H38.0704L37.2574 73.9323H33.3328L35.8489 57.1417H44.731ZM42.9239 64.5381C43.4799 64.5381 43.8963 64.5155 44.173 64.4703C44.4504 64.4251 44.6928 64.2887 44.9049 64.0393C45.1171 63.7898 45.2706 63.404 45.3556 62.8365C45.4406 62.2691 45.4096 61.838 45.2726 61.5886C45.1349 61.3392 44.9201 61.1802 44.6447 61.1123C44.3687 61.0445 43.9754 61.0212 43.4509 61.0212H42.9265C42.7197 61.0212 42.3382 61.0212 41.8138 61.0212C41.2867 61.0445 40.4125 61.0445 39.1891 61.0445L38.6653 64.5381H42.9081H42.9239ZM57.6471 73.9097L55.2023 68.4862H52.7712L51.9582 73.9097H48.2089L50.7249 57.1191H59.6064C60.592 57.1191 61.432 57.3459 62.1231 57.8222C62.7984 58.2985 63.2912 58.9337 63.5943 59.7732C63.8815 60.6135 63.9421 61.5886 63.7754 62.7009L63.7616 62.7913C63.5475 64.2209 63.081 65.4236 62.3544 66.3535C61.627 67.2842 60.7054 67.9195 59.6249 68.2367L62.191 73.9097H57.6471ZM60.0689 62.8365C60.1572 62.2465 60.1421 61.8154 60.0083 61.5434C59.8746 61.2714 59.6598 61.1123 59.4002 61.0445C59.14 60.9759 58.7302 60.9533 58.2058 60.9533H57.6339C56.8519 60.976 55.5936 60.9986 53.8932 60.9986L53.3523 64.6067H57.6267H57.6583C58.1827 64.6067 58.5991 64.5841 58.8798 64.5155C59.1598 64.4477 59.422 64.2887 59.6341 64.0393C59.8462 63.7898 59.9839 63.404 60.0689 62.8365ZM75.4016 67.3972H68.0604L67.6763 69.9617L76.3654 69.8705L75.7573 73.9323H63.1568L65.6728 57.1417H78.2727L77.6804 61.2035H68.9886L68.6559 63.4266H75.9965L75.4016 67.3972ZM86.9454 63.9481C87.9784 63.9481 88.8862 64.0393 89.634 64.2435C90.3817 64.4477 90.9654 64.9014 91.391 65.5592C91.8173 66.2179 91.9247 67.193 91.7349 68.4635C91.3845 70.8012 90.4153 72.389 88.8474 73.2058C87.2596 74.0453 85.5618 74.4538 83.7507 74.4538C81.9548 74.4538 80.348 74.0453 78.9355 73.1832C77.5203 72.3437 76.9959 70.7552 77.349 68.3957L81.4047 68.3731C81.2479 69.4168 81.4831 70.0747 82.1096 70.3467C82.7171 70.6422 83.4754 70.7785 84.3648 70.7785C85.2067 70.7785 85.9492 70.5962 86.6041 70.2563C87.2431 69.9157 87.6299 69.349 87.7484 68.5547L87.7524 68.5321C87.817 68.1011 87.6773 67.7605 87.342 67.5562C87.0073 67.352 86.6304 67.2156 86.2081 67.1704C85.7865 67.1252 85.2812 67.1026 84.6968 67.08H83.505C82.3606 67.08 81.3928 66.9662 80.5812 66.762C79.7695 66.5577 79.1193 66.1267 78.6528 65.4236C78.1864 64.7197 78.0526 63.6986 78.2569 62.3377C78.6107 59.9775 79.5883 58.4349 81.1913 57.7084C82.7744 57.0053 84.5288 56.6421 86.4196 56.6421C88.1991 56.6421 89.7585 57.0505 91.1104 57.89C92.4623 58.7303 92.9551 60.3181 92.598 62.7009H88.6102C88.7222 61.9518 88.5054 61.3844 87.9751 60.9986C87.4256 60.6361 86.7253 60.4319 85.8741 60.3866C84.9531 60.3866 84.1507 60.5449 83.4708 60.8403C82.7909 61.135 82.4015 61.6112 82.3033 62.2691C82.2012 62.9503 82.4509 63.404 83.0682 63.6308C83.6855 63.8576 84.3997 63.9714 85.21 63.9714L86.9454 63.9481ZM102.009 63.9481C103.041 63.9481 103.949 64.0393 104.697 64.2435C105.445 64.4477 106.029 64.9014 106.454 65.5592C106.88 66.2179 106.988 67.193 106.797 68.4635C106.448 70.8012 105.479 72.389 103.911 73.2058C102.322 74.0453 100.625 74.4538 98.8133 74.4538C97.018 74.4538 95.4105 74.0453 93.9986 73.1832C92.5835 72.3437 92.0584 70.7552 92.4122 68.3957L96.4672 68.3731C96.3111 69.4168 96.5456 70.0747 97.1728 70.3467C97.7796 70.6422 98.5379 70.7785 99.4279 70.7785C100.27 70.7785 101.012 70.5962 101.667 70.2563C102.306 69.9157 102.692 69.349 102.812 68.5547L102.815 68.5321C102.879 68.1011 102.74 67.7605 102.405 67.5562C102.07 67.352 101.694 67.2156 101.271 67.1704C100.849 67.1252 100.344 67.1026 99.7593 67.08H98.5675C97.4238 67.08 96.4554 66.9662 95.6444 66.762C94.8327 66.5577 94.1825 66.1267 93.7154 65.4236C93.2489 64.7197 93.1158 63.6986 93.3201 62.3377C93.6732 59.9775 94.6515 58.4349 96.2538 57.7084C97.8369 57.0053 99.5913 56.6421 101.482 56.6421C103.262 56.6421 104.821 57.0505 106.174 57.89C107.525 58.7303 108.018 60.3181 107.661 62.7009H103.673C103.785 61.9518 103.568 61.3844 103.038 60.9986C102.489 60.6361 101.788 60.4319 100.937 60.3866C100.016 60.3866 99.2132 60.5449 98.5333 60.8403C97.854 61.135 97.4647 61.6112 97.3659 62.2691C97.2637 62.9503 97.5141 63.404 98.1314 63.6308C98.7487 63.8576 99.4629 63.9714 100.273 63.9714L102.009 63.9481Z" fill="#4B4B4D"/>
<path d="M10.5964 49.6216H7.81287V50.4867H8.77606V53.556H9.63252V50.4867H10.5964V49.6216Z" fill="#373435"/>
<path d="M14.8635 53.556H15.7839L14.9867 52.1114C15.3985 51.8921 15.6772 51.4535 15.6772 50.9705C15.6772 50.2229 15.104 49.6216 14.3918 49.6216H12.893V53.556H13.7501V52.2629H14.1566L14.8635 53.556ZM13.7501 50.4641H14.3918C14.6277 50.4641 14.8207 50.6834 14.8207 50.9705C14.8207 51.2569 14.6277 51.4762 14.3918 51.4762H13.7501V50.4641Z" fill="#373435"/>
<path d="M20.4899 53.556H21.4267L20.1525 49.6216H19.0602L17.7861 53.556H18.7229L18.9107 52.9373H20.3021L20.4899 53.556ZM19.1676 52.0941L19.6064 50.6502L20.0452 52.0941H19.1676Z" fill="#373435"/>
<path d="M25.7578 49.6216V51.7572L24.3123 49.6216H23.67V53.556H24.5264V51.4196L25.9719 53.556H26.6142V49.6216H25.7578Z" fill="#373435"/>
<path d="M30.4367 53.6344C31.2503 53.6344 31.8287 53.1845 31.8287 52.4257C31.8287 51.5945 31.1917 51.3865 30.6238 51.2064C30.0407 51.021 29.9491 50.8974 29.9491 50.7173C29.9491 50.5598 30.0835 50.4197 30.351 50.4197C30.6936 50.4197 30.8702 50.5937 30.9986 50.8748L31.7214 50.431C31.4486 49.8515 30.9663 49.5425 30.351 49.5425C29.7034 49.5425 29.0927 49.9811 29.0927 50.7399C29.0927 51.4928 29.6388 51.7738 30.1955 51.9374C30.7575 52.1001 30.9716 52.1958 30.9716 52.437C30.9716 52.5892 30.8702 52.758 30.463 52.758C30.0407 52.758 29.8101 52.538 29.6764 52.2124L28.9372 52.6623C29.146 53.2411 29.6494 53.6344 30.4367 53.6344Z" fill="#373435"/>
<path d="M35.5702 49.6216H34.1517V53.556H35.0082V52.3194H35.5702C36.3094 52.3194 36.8819 51.7181 36.8819 50.9705C36.8819 50.2229 36.3094 49.6216 35.5702 49.6216ZM35.5702 51.4762H35.0082V50.4641H35.5702C35.833 50.4641 36.0254 50.6834 36.0254 50.9705C36.0254 51.2569 35.833 51.4762 35.5702 51.4762Z" fill="#373435"/>
<path d="M40.9936 53.6344C42.0694 53.6344 42.9424 52.746 42.9424 51.5885C42.9424 50.431 42.0694 49.5425 40.9936 49.5425C39.9177 49.5425 39.0448 50.431 39.0448 51.5885C39.0448 52.746 39.9177 53.6344 40.9936 53.6344ZM40.9936 52.758C40.3835 52.758 39.9013 52.2908 39.9013 51.5885C39.9013 50.8861 40.3835 50.4197 40.9936 50.4197C41.6036 50.4197 42.0859 50.8861 42.0859 51.5885C42.0859 52.2908 41.6036 52.758 40.9936 52.758Z" fill="#373435"/>
<path d="M47.3155 53.556H48.2365L47.4387 52.1114C47.8511 51.8921 48.1298 51.4535 48.1298 50.9705C48.1298 50.2229 47.5566 49.6216 46.8444 49.6216H45.3456V53.556H46.2021V52.2629H46.6093L47.3155 53.556ZM46.2021 50.4641H46.8444C47.0803 50.4641 47.2733 50.6834 47.2733 50.9705C47.2733 51.2569 47.0803 51.4762 46.8444 51.4762H46.2021V50.4641Z" fill="#373435"/>
<path d="M52.9958 49.6216H50.2123V50.4867H51.1755V53.556H52.032V50.4867H52.9958V49.6216Z" fill="#373435"/>
<path d="M56.1489 52.6902V51.9931H57.4877V51.1385H56.1489V50.4867H57.6214V49.6216H55.2925V53.556H57.6484V52.6902H56.1489Z" fill="#373435"/>
<path d="M61.3634 53.6344C62.1771 53.6344 62.7555 53.1845 62.7555 52.4257C62.7555 51.5945 62.1184 51.3865 61.5505 51.2064C60.9675 51.021 60.8759 50.8974 60.8759 50.7173C60.8759 50.5598 61.0103 50.4197 61.2778 50.4197C61.6204 50.4197 61.7969 50.5937 61.9254 50.8748L62.6481 50.431C62.3754 49.8515 61.8931 49.5425 61.2778 49.5425C60.6302 49.5425 60.0195 49.9811 60.0195 50.7399C60.0195 51.4928 60.5656 51.7738 61.1223 51.9374C61.6843 52.1001 61.899 52.1958 61.899 52.437C61.899 52.5892 61.7969 52.758 61.3904 52.758C60.9675 52.758 60.7369 52.538 60.6032 52.2124L59.8646 52.6623C60.0735 53.2411 60.5761 53.6344 61.3634 53.6344Z" fill="#373435"/>
<path fill-rule="evenodd" clip-rule="evenodd" d="M98.1412 53.6574C98.0628 53.6981 97.9924 53.7531 97.9937 53.8594C97.995 54.0312 98.1221 54.1932 98.2836 54.1178C98.3508 54.0869 98.4081 54.0455 98.4173 53.9581C98.4344 53.7923 98.3204 53.5655 98.1412 53.6574ZM104.316 52.946C105.244 52.5858 105.716 53.9204 105.065 54.4306C104.328 55.0078 103.476 54.0726 104.049 53.1645L104.203 53.3771C104.451 53.7945 104.418 53.9618 104.775 53.8993C104.742 53.6408 104.421 53.1977 104.316 52.946ZM102.408 47.6672C102.366 47.8314 102.167 47.9181 102.066 48.0364C101.622 48.5617 101.854 48.64 102.245 49.5451C102.607 50.3816 103.02 50.7817 102.708 51.9249C102.429 52.9513 102.42 53.2437 102.028 53.2685C102.026 53.4991 102.013 53.7335 101.979 53.9242C101.974 53.9528 101.968 53.9814 101.961 54.0093C102.289 54.0312 102.554 54.041 102.704 54.0221C103.145 53.9641 103.133 53.625 103.221 53.4584C103.273 53.359 103.262 53.3974 103.309 53.4313C103.591 53.634 103.096 53.3929 103.378 53.4946C103.627 53.3085 103.627 53.044 103.93 52.891L103.488 53.4856C103.362 53.6024 103.383 53.5142 103.276 53.6499C103.271 53.9377 103.312 54.1902 103.412 54.423C103.713 55.1163 104.446 55.4479 105.053 55.1819C106.335 54.6212 105.913 52.9475 105.637 52.7787C105.498 52.7576 105.383 52.7734 105.252 52.7433C104.986 52.6807 104.548 52.4863 104.191 52.7177C104.224 52.4539 104.77 52.5353 104.91 52.567C105.251 52.6438 105.342 52.7478 105.747 52.674C105.872 52.1487 104.909 51.6483 104.424 51.5474C104.381 51.5376 104.32 51.5308 104.285 51.5217L104.123 51.4479C104.5 51.27 104.447 51.1713 104.409 50.64C104.38 50.2271 103.887 49.8141 103.502 49.3981C102.884 48.7305 103.19 49.2105 102.852 49.0131C102.901 48.7583 103.112 48.9196 103.436 48.7403C103.524 48.3981 103.076 47.9151 102.908 47.7832C102.539 47.4938 102.748 47.7342 102.617 47.313C102.578 47.1841 102.537 47.157 102.435 47.0764C102.257 46.9377 102.309 46.949 102.186 46.9309C102.186 47.0244 102.175 47.316 102.19 47.3861C102.234 47.588 102.287 47.4969 102.408 47.6672Z" fill="#1A1A1A"/>
<path fill-rule="evenodd" clip-rule="evenodd" d="M101.088 50.7258C101.035 50.4093 100.844 50.1034 100.667 50.0137C100.415 49.8856 99.5643 50.0205 99.2224 50.0363C99.1987 50.0371 99.1749 50.0378 99.1519 50.0393C99.7679 50.1946 100.515 50.3822 101.088 50.7258Z" fill="#1A1A1A"/>
<path fill-rule="evenodd" clip-rule="evenodd" d="M93.1283 49.2882C93.1263 47.9408 93.0024 48.2128 94.2226 48.2128C94.7608 48.2128 94.6343 48.1277 95.3742 48.9845C95.5231 49.1571 96.2708 49.9385 96.143 50.182C96.0383 50.3809 93.3246 50.289 93.152 50.2566L93.1283 49.2882ZM89.9231 49.0222C90.5813 48.2513 90.4245 48.2113 91.2539 48.2136C92.1473 48.2166 92.254 47.9566 92.1816 49.8278C92.1605 50.3704 91.8825 50.2942 91.4634 50.286C91.0649 50.2784 90.6636 50.2844 90.2651 50.2844C90.2124 50.2844 90.1643 50.2852 90.1201 50.2867C90.1188 50.3395 90.1175 50.3914 90.1162 50.4434C90.0997 50.9627 90.0839 51.4766 90.078 51.9951C90.7618 52.3123 91.2836 53.1036 91.1288 54.2995L96.4738 54.2897C96.1536 50.9981 100.336 51.1156 99.9444 54.2897C100.525 54.289 101.325 54.4209 101.437 53.7969C101.502 53.4276 101.487 52.0192 101.338 51.7562C100.932 51.0433 99.4556 50.7856 98.5543 50.5316C98.0958 50.4028 97.3487 49.564 96.9303 49.1111L96.4072 48.5776C96.1173 48.3304 95.7504 47.87 95.3366 47.5972C94.7424 47.2053 94.4479 47.2792 93.7021 47.2799C92.9385 47.2799 90.5029 47.1352 89.9943 47.4299C89.6609 47.6228 89.4705 47.8036 89.3183 47.9747C89.4422 48.1797 89.5667 48.3839 89.6899 48.5896C89.7742 48.7313 89.8553 48.873 89.9231 49.0222ZM86.3747 53.9235C86.3939 53.9491 86.4143 53.974 86.436 53.9973C86.4446 53.9996 86.4538 53.9989 86.4624 53.9943C86.4742 53.9883 86.5072 53.9702 86.5157 53.9567C86.523 53.9265 86.4953 53.8579 86.4709 53.8361C86.467 53.8376 86.463 53.8399 86.4604 53.8406C86.4406 53.8512 86.3873 53.8828 86.3715 53.9069C86.3721 53.9122 86.3728 53.9175 86.3747 53.9235Z" fill="#1A1A1A"/>
<path fill-rule="evenodd" clip-rule="evenodd" d="M90.1176 54.1732C89.8758 54.9177 89.018 54.8989 88.7202 54.3563C88.6359 54.3548 88.5509 54.3525 88.4659 54.3503C88.4204 54.6253 88.3348 54.8868 88.2142 55.1235C88.543 55.5643 89.0641 55.8213 89.7368 55.6578C91.3522 55.2651 91.2534 52.8567 90.0767 52.2222C90.0761 52.2757 90.076 52.3284 90.076 52.3819C90.076 52.6916 90.0932 53.0669 90.0378 53.4068C90.1558 53.6073 90.2144 53.8748 90.1176 54.1732Z" fill="#1A1A1A"/>
<path fill-rule="evenodd" clip-rule="evenodd" d="M97.9146 53.0807C98.8198 52.6157 99.4543 54.26 98.4904 54.7054C97.6023 55.1161 96.9567 53.5728 97.9146 53.0807ZM97.9192 52.1274C96.9764 52.3617 96.4883 53.2992 96.6477 54.2035C96.8071 55.1093 97.5483 55.8953 98.5398 55.6647C100.52 55.2043 99.949 51.6217 97.9192 52.1274Z" fill="#1A1A1A"/>
<path fill-rule="evenodd" clip-rule="evenodd" d="M65.8573 43.9673C65.4475 44.1089 65.5654 44.5905 65.5654 45.3117L65.5648 48.7608C65.5648 50.4692 65.3889 50.0532 68.8681 50.0532L77.8636 50.0547C78.5994 50.0562 83.5755 50.1316 83.8463 50.0261C84.2429 49.8716 84.1315 49.1723 84.1315 48.7035V45.2544C84.1315 43.5762 84.3226 43.9469 80.8282 43.9469C79.6088 43.9469 66.051 43.8995 65.8573 43.9673Z" fill="#1A1A1A"/>
<path fill-rule="evenodd" clip-rule="evenodd" d="M85.6869 46.7684L87.1969 46.7676C87.4256 47.1889 87.7154 47.6237 87.9763 48.0563C88.1377 48.323 88.6595 49.0442 88.7267 49.3193L85.681 49.2997L85.6869 46.7684ZM67.7928 53.681C68.283 51.2763 70.8247 51.3999 71.2556 53.6855L72.0277 53.6893C72.1865 53.0563 72.2412 52.8332 72.6088 52.464C73.3394 51.73 74.2815 51.7692 74.9634 52.4798C75.2902 52.8212 75.3514 53.0789 75.5016 53.6886C78.4097 53.6908 81.5199 53.6426 84.4009 53.6931C84.9161 53.7014 84.6678 53.6064 84.8707 53.097C85.0597 52.623 85.4254 52.2108 85.9037 52.0382C86.4696 51.834 87.0243 51.9583 87.4407 52.2914C87.8426 52.6124 88.008 52.935 88.1878 53.6833C89.4995 53.6848 89.4962 53.9018 89.4969 52.3818C89.4975 48.8973 89.8619 50.1226 88.5508 47.8618C88.3841 47.574 88.1878 47.2831 88.0317 47.0178C87.3788 45.9063 87.7886 46.1037 85.0973 46.1301C84.3416 46.1369 84.5327 46.8242 84.532 48.3004C84.5314 48.7797 84.5294 49.2597 84.532 49.739C84.538 50.9169 84.2903 50.583 81.6326 50.583C78.3194 50.583 75.0424 50.5815 71.7325 50.5815C70.0954 50.5815 68.4391 50.5521 66.8053 50.5808C66.0147 50.5951 66.2123 51.2432 66.2071 52.727C66.2031 53.7428 66.2275 53.7722 67.7928 53.681Z" fill="#1A1A1A"/>
<path fill-rule="evenodd" clip-rule="evenodd" d="M68.8845 54.0489C68.7409 53.0014 70.0756 52.914 70.1692 53.8274C70.2673 54.7837 69.0083 54.9532 68.8845 54.0489ZM68.0695 54.2788C68.2151 55.0904 68.9398 55.7739 69.8483 55.5704C71.6989 55.1567 71.1488 51.7445 69.2093 52.2584C68.4925 52.4483 67.8778 53.2162 68.0695 54.2788Z" fill="#1A1A1A"/>
<path fill-rule="evenodd" clip-rule="evenodd" d="M86.2219 53.2373C86.9506 52.8613 87.5086 54.2019 86.691 54.6035C85.9769 54.9532 85.3398 53.6932 86.2219 53.2373ZM84.9774 54.1642C85.0749 55.0225 85.7759 55.6992 86.6548 55.5922C87.4144 55.4995 88.0324 54.657 87.9085 53.6503C87.6483 51.544 84.7179 51.8718 84.9774 54.1642Z" fill="#1A1A1A"/>
<path fill-rule="evenodd" clip-rule="evenodd" d="M73.5516 53.2341C74.433 52.8942 74.7401 54.2597 73.9903 54.6169C73.2123 54.9877 72.7017 53.5619 73.5516 53.2341ZM72.3018 54.1068C72.3215 54.5092 72.6022 55.054 72.8163 55.2228C74.0944 56.2281 75.3771 55.0887 75.2434 53.7111C75.0464 51.6787 72.1825 51.6915 72.3018 54.1068Z" fill="#1A1A1A"/>
<path fill-rule="evenodd" clip-rule="evenodd" d="M31.5909 45.9198H53.3285V38.5362H42.5964L47.894 32.9265C50.8171 29.8579 52.872 26.4058 52.872 22.3779C52.872 15.6175 47.7569 11.686 42.0489 11.686C37.6191 11.686 33.3262 14.0357 31.2714 19.0222L37.4366 22.8097C38.3042 20.7004 39.9025 19.1661 42.1399 19.1661C44.2863 19.1661 45.565 20.6039 45.565 22.714C45.565 24.6793 44.1954 26.6454 42.323 28.659L31.5909 40.3576V45.9198ZM66.9845 12.3575H54.1975V45.9198H63.6884V43.6704C63.6884 42.9492 63.5712 42.4684 63.9809 42.326C64.1345 42.2725 72.6385 42.2913 76.7976 42.3011C80.3196 39.2649 82.5115 34.5618 82.5115 29.1383C82.5115 19.6454 75.7981 12.3575 66.9845 12.3575ZM66.9845 38.5362H61.5045V19.7411H66.9845C72.008 19.7411 75.4786 23.3854 75.4786 29.1383C75.4786 34.8919 72.008 38.5362 66.9845 38.5362Z" fill="#201E1E"/>
</svg>
