<svg width="52" height="52" viewBox="0 0 52 52" fill="none" xmlns="http://www.w3.org/2000/svg">
<path d="M8.905 12.7725C8.9453 12.7724 8.98527 12.7723 9.02655 12.7722C9.13802 12.772 9.24917 12.772 9.3613 12.7722C9.48252 12.7724 9.60375 12.7721 9.7253 12.7719C9.93785 12.7716 10.151 12.7716 10.3623 12.7717C10.6782 12.7719 10.9928 12.7717 11.3113 12.7714C11.9093 12.7709 12.504 12.7709 13.102 12.771C13.5635 12.771 14.025 12.771 14.4865 12.7708C14.5528 12.7708 14.6191 12.7708 14.6854 12.7708C14.7852 12.7707 14.8853 12.7707 14.9851 12.7707C15.9146 12.7704 16.8441 12.7703 17.7703 12.7704C17.823 12.7704 17.823 12.7704 17.8766 12.7704C18.0541 12.7704 18.2309 12.7705 18.4096 12.7705C18.4626 12.7705 18.4626 12.7705 18.5165 12.7705C18.5877 12.7705 18.6592 12.7705 18.7304 12.7705C19.8386 12.7707 20.9469 12.7705 22.0454 12.7699C23.2901 12.7692 24.5349 12.7688 25.7829 12.769C25.9158 12.769 26.0487 12.769 26.1826 12.769C26.2155 12.769 26.248 12.769 26.2818 12.769C26.7758 12.769 27.2698 12.7688 27.7605 12.7685C28.3228 12.7681 28.885 12.768 29.444 12.7684C29.758 12.7687 30.0713 12.7686 30.3865 12.7682C30.5968 12.7679 30.8058 12.768 31.017 12.7684C31.1366 12.7686 31.2559 12.7686 31.3745 12.7682C32.7785 12.764 32.7785 12.764 33.357 13.0409C33.3898 13.0557 33.4227 13.0704 33.4565 13.0858C33.6895 13.1953 33.9115 13.3263 34.1032 13.4953V13.5603C34.1215 13.5678 34.1396 13.5752 34.1585 13.583C34.633 13.8511 34.906 14.5092 35.0457 15.0097C35.1458 15.4257 35.177 15.8287 35.1104 16.2512C35.1015 16.3084 35.1015 16.3084 35.0923 16.3666C35.0854 16.4102 35.0854 16.4102 35.0784 16.4544C35.1135 16.4543 35.1486 16.4542 35.1847 16.4542C36.0394 16.4527 36.8942 16.4517 37.7489 16.451C38.1617 16.4507 38.5744 16.4502 38.9872 16.4495C39.3479 16.4488 39.7087 16.4484 40.0694 16.4482C40.2602 16.4482 40.4497 16.448 40.6414 16.4475C40.8211 16.447 41.0022 16.4469 41.1809 16.447C41.2466 16.447 41.3122 16.4469 41.3779 16.4466C42.6811 16.4419 43.7764 16.8204 44.7254 17.7206C44.7505 17.744 44.7754 17.7674 44.8014 17.7915C44.9857 17.9686 45.1362 18.1587 45.2792 18.37C45.3126 18.4197 45.3126 18.4197 45.3468 18.4704C45.557 18.7951 45.7043 19.1464 45.8603 19.5006C45.9587 19.7272 46.0614 19.9524 46.1661 20.1766C46.1834 20.2137 46.2005 20.2507 46.2184 20.2891C46.3822 20.6401 46.5467 20.9911 46.7124 21.3388C46.8843 21.7028 47.0537 22.0701 47.2227 22.4341C47.3322 22.6704 47.4424 22.9053 47.5509 23.1426C47.5603 23.1626 47.5696 23.1826 47.5793 23.2034C47.6774 23.4133 47.7752 23.6226 47.8734 23.8339C47.9143 23.9219 47.9556 24.0097 47.9966 24.0978C48.0252 24.1592 48.0538 24.2203 48.0824 24.2817C48.1334 24.3912 48.1844 24.5008 48.2354 24.61C48.2508 24.6431 48.2662 24.6759 48.2822 24.7101C48.76 25.7468 48.7015 26.9818 48.6982 28.0901C48.6981 28.2259 48.6982 28.3618 48.6983 28.4963C48.6984 28.7238 48.6983 28.9513 48.698 29.1788C48.6976 29.4401 48.6977 29.7021 48.6981 29.9621C48.6984 30.1889 48.6984 30.4171 48.6983 30.6413C48.6982 30.7759 48.6981 30.9101 48.6984 31.0443C48.7003 32.4223 48.7003 32.4223 48.5492 32.8773C48.5385 32.9114 48.5385 32.9114 48.5276 32.9459C48.21 33.9339 47.5558 34.7074 46.6361 35.1916C45.8951 35.5621 45.1281 35.5881 44.3156 35.6011C44.2382 35.6024 44.1605 35.6036 44.0832 35.6049C43.8953 35.608 43.7062 35.6108 43.5209 35.6133C43.4832 35.7251 43.4472 35.8363 43.416 35.9513C43.232 36.6078 42.9577 37.1701 42.5125 37.6933C42.4901 37.7201 42.4676 37.7469 42.4445 37.7746C41.7458 38.5838 40.6928 39.0681 39.6365 39.1786C38.9053 39.2312 38.2 39.179 37.5078 38.9277C37.4874 38.9205 37.4672 38.9133 37.446 38.906C36.354 38.5192 35.561 37.697 35.0508 36.6797C34.8899 36.3287 34.8174 35.9972 34.7128 35.6137H19.3728C19.2977 35.8711 19.2226 36.1272 19.1453 36.3937C19.0637 36.5738 18.9834 36.7447 18.8853 36.9137C18.8536 36.9696 18.8536 36.9696 18.8213 37.0268C18.6789 37.268 18.5158 37.4818 18.3338 37.6931C18.3127 37.7185 18.2918 37.7438 18.2701 37.7701C17.6818 38.4624 16.7556 38.9596 15.8651 39.1221C15.814 39.132 15.814 39.132 15.7617 39.142C14.5917 39.3335 13.399 39.0764 12.4142 38.4075C12.2901 38.3152 12.1727 38.2171 12.0567 38.115C12.0302 38.0928 12.0037 38.0705 11.9761 38.0478C11.2904 37.4595 10.8159 36.6308 10.6241 35.75C10.6184 35.7239 10.6127 35.6977 10.6068 35.671C10.6025 35.6513 10.5981 35.6314 10.5937 35.6112C10.5508 35.6111 10.5508 35.6111 10.507 35.6109C10.2362 35.6096 9.9642 35.6078 9.69445 35.6053C9.55535 35.604 9.41625 35.6029 9.27845 35.6024C9.1439 35.6019 9.00968 35.6008 8.87545 35.5993C8.82443 35.5988 8.7734 35.5985 8.72238 35.5985C8.4068 35.5982 8.10813 35.5929 7.85138 35.3859C7.80003 35.3209 7.74965 35.2563 7.70188 35.1887C7.68111 35.1598 7.66028 35.1311 7.63883 35.1012C7.57025 34.8877 7.56115 34.6365 7.65508 34.4285C7.78475 34.2127 7.94855 34.0645 8.18808 33.9865C8.3054 33.9735 8.3054 33.9735 8.43183 33.9725C8.4666 33.972 8.4666 33.972 8.50203 33.9715C8.57775 33.9705 8.65348 33.9702 8.72953 33.9699C8.7825 33.9693 8.83515 33.9687 8.88813 33.9681C9.02658 33.9666 9.16535 33.9656 9.30413 33.9648C9.44583 33.9638 9.5872 33.9623 9.72988 33.9608C10.0074 33.958 10.2856 33.9559 10.5619 33.954C10.5698 33.9294 10.5777 33.9046 10.5859 33.8793C10.6226 33.7655 10.6597 33.6521 10.697 33.538C10.7095 33.4994 10.7219 33.4607 10.7347 33.4207C10.957 32.7447 11.31 32.1955 11.7975 31.6787C11.817 31.6571 11.8365 31.6355 11.8566 31.6134C12.6009 30.8204 13.7481 30.3816 14.8206 30.3459C16.0686 30.3231 17.1769 30.7554 18.1031 31.6036C18.7824 32.2634 19.1724 33.0726 19.3836 33.9859C26.9886 33.9698 26.9886 33.9698 34.7236 33.9534C34.788 33.7282 34.8523 33.5016 34.9186 33.2709C34.9726 33.1363 35.0246 33.0112 35.0893 32.8841C35.1122 32.8373 35.1122 32.8373 35.1357 32.7899C35.32 32.4259 35.5485 32.1139 35.828 31.8149C35.8949 31.744 35.8949 31.744 35.9567 31.6621C36.5319 30.9634 37.6077 30.4986 38.4852 30.3881C39.7299 30.2734 40.9194 30.5263 41.8977 31.3209C42.6679 31.9676 43.1359 32.7281 43.4349 33.6804C43.4636 33.7714 43.4938 33.8617 43.524 33.9518C43.7469 33.9543 43.9692 33.956 44.1935 33.9571C44.2692 33.9576 44.3449 33.9583 44.4207 33.9591C45.2007 33.9677 45.8312 33.8918 46.4389 33.3546C46.4637 33.3265 46.4886 33.2984 46.514 33.2695C46.5343 33.2465 46.5546 33.2236 46.5754 33.1999C47.0304 32.6637 47.0727 32.0527 47.0694 31.3767C47.0695 31.3279 47.0695 31.2792 47.0696 31.2304C47.0697 31.0988 47.0697 30.9672 47.0696 30.8372C47.0695 30.6987 47.0696 30.5603 47.0696 30.4212C47.0697 30.1885 47.0696 29.9564 47.0695 29.7224C47.0693 29.4546 47.0693 29.1862 47.0695 28.9197C47.0697 28.6886 47.0697 28.4582 47.0696 28.2274C47.0695 28.0899 47.0695 27.9525 47.0696 27.8147C47.0697 27.6853 47.0697 27.5556 47.0695 27.4247C47.0694 27.3775 47.0695 27.3307 47.0695 27.2836C47.0699 27.0334 47.0647 26.7831 47.0503 26.5361C47.0489 26.5132 47.0476 26.4903 47.0463 26.4666C47.0356 26.2976 47.0153 26.1351 46.978 25.9693C46.9695 25.9306 46.9695 25.9306 46.9607 25.8913C46.861 25.4656 46.6637 25.0788 46.4732 24.6856C46.3741 24.4802 46.2783 24.2728 46.1827 24.0648C46.0221 23.7171 45.8603 23.3726 45.6984 23.0281C45.5304 22.6706 45.3637 22.3163 45.1979 21.9556C45.1069 21.7573 45.0143 21.5591 44.9207 21.3641C44.8755 21.2688 44.83 21.1733 44.7849 21.0781C44.7681 21.0426 44.7681 21.0426 44.7511 21.0066C44.6097 20.7085 44.4761 20.4086 44.3513 20.1031C44.167 19.6513 43.9678 19.2516 43.6168 18.9038C43.5785 18.8616 43.5785 18.8616 43.5395 18.8187C43.156 18.4709 42.7237 18.2402 42.22 18.1232C42.1963 18.1177 42.1728 18.1123 42.1485 18.1066C41.9587 18.0653 41.7812 18.0491 41.5862 18.0504C41.557 18.0503 41.5277 18.0503 41.4978 18.0502C41.401 18.0501 41.3041 18.0505 41.2073 18.0508C41.1374 18.0508 41.0675 18.0508 40.9976 18.0508C40.8088 18.0508 40.6207 18.0511 40.4321 18.0516C40.2346 18.052 40.0357 18.052 39.8407 18.0521C39.4669 18.0523 39.0932 18.0529 38.7194 18.0535C38.2937 18.0542 37.8679 18.0546 37.4421 18.0549C36.5646 18.0556 35.6904 18.0567 34.8129 18.0582C34.6553 18.9649 34.498 19.8717 34.3482 20.7784C34.3332 20.8688 34.3183 20.9595 34.3033 21.0498C34.2718 21.2403 34.2402 21.4301 34.209 21.6218C34.1285 22.1093 34.0478 22.6001 33.9669 23.0876C33.9537 23.1678 33.9404 23.2481 33.9273 23.3281C33.7394 24.4656 33.5503 25.6031 33.3618 26.7406C33.3334 26.9105 33.3052 27.0818 33.2769 27.2508C33.2614 27.3441 33.2459 27.4374 33.2305 27.5306C33.2267 27.5535 33.2229 27.5765 33.2189 27.5999C33.1777 27.8472 33.1364 28.0939 33.0951 28.3409C33.0841 28.4068 33.073 28.4728 33.062 28.5385C33.0546 28.5823 33.0473 28.6262 33.0399 28.6701C32.9931 28.9499 32.9467 29.2291 32.9008 29.5086C32.8686 29.7059 32.8362 29.9018 32.8033 30.1001C32.7839 30.2171 32.7647 30.3341 32.7458 30.4511C32.725 30.5798 32.7036 30.7085 32.6821 30.8378C32.6761 30.8755 32.6701 30.9132 32.6639 30.9522C32.6129 31.2532 32.5339 31.521 32.3129 31.7387C32.1088 31.8658 31.9067 31.9298 31.6629 31.9012C31.4117 31.8395 31.2567 31.7238 31.1104 31.5112C30.8872 31.1375 31.0506 30.6207 31.1214 30.2177C31.1331 30.1492 31.1449 30.0806 31.1565 30.012C31.1818 29.8638 31.2072 29.7153 31.2328 29.5668C31.2952 29.2028 31.355 28.842 31.4155 28.478C31.4483 28.2804 31.4811 28.0815 31.5143 27.8865C31.5334 27.7721 31.5523 27.6577 31.5715 27.542C31.5793 27.4952 31.587 27.4484 31.5948 27.4019C31.6007 27.3668 31.6007 27.3668 31.6066 27.3311C31.8822 25.6768 32.1591 24.0161 32.4321 22.3586C32.4377 22.3254 32.4377 22.3254 32.4433 22.2913C32.4507 22.2471 32.4581 22.2026 32.4655 22.1584C32.4835 22.0502 32.5016 21.9419 32.5198 21.8337C32.5542 21.6277 32.5883 21.421 32.6228 21.2162C32.6806 20.8685 32.7382 20.524 32.7957 20.1762C32.8143 20.0641 32.8331 19.9523 32.8516 19.8415C32.856 19.8146 32.8605 19.7878 32.8651 19.7602C32.9301 19.3702 32.9964 18.9802 33.063 18.5902C33.1037 18.353 33.144 18.1157 33.1843 17.8785C33.2134 17.7065 33.2428 17.534 33.2727 17.3617C33.3022 17.1908 33.3312 17.0205 33.3601 16.8482C33.3709 16.7845 33.3819 16.7208 33.3929 16.6571C33.4959 16.0689 33.5902 15.4969 33.2629 14.9639C33.0536 14.6717 32.7657 14.4764 32.4114 14.4016C32.3575 14.3984 32.3035 14.3969 32.2492 14.3965C32.1998 14.396 32.1998 14.396 32.1498 14.3955C32.1137 14.3953 32.0776 14.3952 32.0406 14.395C32.0022 14.3946 31.9639 14.3943 31.9246 14.394C31.8183 14.3931 31.712 14.3924 31.6057 14.3918C31.5147 14.3912 31.4237 14.3905 31.3327 14.3899C31.0591 14.3878 30.7867 14.3861 30.5105 14.3844C30.3522 14.3834 30.1936 14.3824 30.036 14.3813C27.8942 14.3673 25.746 14.3656 23.601 14.3677C23.029 14.3683 22.4537 14.3686 21.8817 14.3688C21.638 14.3689 21.3942 14.369 21.1505 14.3691C21.1235 14.3691 21.0965 14.3691 21.0686 14.3691C20.4381 14.3694 19.8076 14.3698 19.1738 14.3702C19.1465 14.3702 19.1192 14.3703 19.091 14.3703C18.4475 14.3707 17.804 14.3712 17.1605 14.3717C17.1324 14.3717 17.1042 14.3717 17.0753 14.3717C16.9902 14.3718 16.9053 14.3719 16.8202 14.3719C16.735 14.372 16.6502 14.3721 16.5651 14.3722C16.5085 14.3722 16.452 14.3722 16.3954 14.3723C15.4594 14.373 14.5267 14.3736 13.5907 14.3739C13.459 14.3739 13.3277 14.374 13.1974 14.374C13.1715 14.374 13.1457 14.374 13.1191 14.374C12.7063 14.3742 12.2903 14.3746 11.8776 14.3751C11.4648 14.3756 11.0521 14.3758 10.6361 14.3758C10.4125 14.3759 10.1876 14.376 9.96658 14.3764C9.76248 14.3768 9.55708 14.3769 9.35233 14.3767C9.27856 14.3767 9.20446 14.3768 9.13068 14.377C9.03058 14.3773 8.93016 14.3772 8.83006 14.377C8.80126 14.3772 8.77253 14.3774 8.74296 14.3776C8.48588 14.3762 8.23271 14.3399 8.02471 14.1741C7.82516 13.9554 7.74618 13.7614 7.75268 13.4624C7.78044 13.2254 7.88626 13.0561 8.06728 12.9066C8.30681 12.7223 8.59378 12.7347 8.87978 12.736L8.905 12.7725ZM13.1625 32.63C13.1332 32.6564 13.104 32.6827 13.0738 32.71C12.5408 33.2137 12.2093 33.9157 12.18 34.6502C12.1659 35.44 12.4069 36.1322 12.934 36.7237C12.9564 36.7492 12.9789 36.7747 13.0019 36.8011C13.4439 37.2723 14.1167 37.6006 14.7602 37.6396C15.6214 37.6676 16.3527 37.4238 16.9864 36.8303C17.5292 36.2941 17.8379 35.5758 17.8477 34.8088C17.8412 34.0743 17.5766 33.4081 17.0937 32.8556C17.0613 32.8185 17.0613 32.8185 17.028 32.7808C16.534 32.2511 15.793 31.9488 15.0748 31.9131C14.376 31.9131 13.6773 32.151 13.1605 32.6281L13.1625 32.63ZM37.2125 32.695C37.1926 32.7122 37.1728 32.7295 37.1521 32.747C36.6158 33.2443 36.333 33.995 36.3005 34.7133C36.3072 35.542 36.595 36.2668 37.178 36.855C37.7695 37.4173 38.504 37.6643 39.31 37.6448C40.0868 37.6113 40.753 37.2158 41.2828 36.66C41.4095 36.5209 41.5074 36.3682 41.598 36.205C41.613 36.1783 41.6279 36.1517 41.6432 36.1241C42.0007 35.4481 42.0592 34.6616 41.846 33.9303C41.7297 33.5566 41.5447 33.2576 41.3065 32.9553L41.2415 32.8721C40.7443 32.2741 40 31.9946 39.246 31.9264C38.479 31.8627 37.777 32.2062 37.2115 32.6966L37.2125 32.695Z" fill="#000002"/>
<path d="M36.3025 19.37C36.3379 19.3698 36.3379 19.3698 36.3743 19.3695C36.453 19.369 36.5316 19.3693 36.6103 19.3695C36.6668 19.3693 36.7237 19.3691 36.7803 19.3688C36.934 19.3682 37.0874 19.3683 37.2418 19.3685C37.3701 19.3686 37.4988 19.3684 37.6285 19.3682C37.9317 19.3677 38.2363 19.3678 38.5385 19.3681C38.8508 19.3685 39.1625 19.3681 39.4745 19.3672C39.7433 19.3665 40.0108 19.3662 40.2805 19.3664C40.4407 19.3666 40.601 19.3665 40.7615 19.3659C40.9123 19.3654 41.0631 19.3655 41.2133 19.3661C41.2682 19.3663 41.3234 19.3662 41.3784 19.3658C41.8334 19.3632 42.2169 19.4217 42.5906 19.7071C42.6188 19.7258 42.6468 19.7445 42.6758 19.764C42.8854 19.9625 43.017 20.2157 43.1275 20.4822C43.1408 20.5136 43.1542 20.5449 43.1678 20.5774C43.3167 20.9317 43.459 21.2859 43.6033 21.6402C43.7479 21.9977 43.8952 22.3584 44.0453 22.7127C44.0554 22.737 44.0656 22.7611 44.0761 22.7861C44.1164 22.8823 44.1563 22.9785 44.1966 23.0747C44.4183 23.6045 44.6386 24.1342 44.8531 24.6672C44.8729 24.716 44.8729 24.716 44.8931 24.7654C45.1265 25.3471 45.2214 25.8866 44.9731 26.4879C44.7179 27.0079 44.3881 27.3264 43.8486 27.5344C43.4586 27.6514 43.0718 27.6442 42.6688 27.6442C42.5973 27.6445 42.5258 27.6448 42.454 27.645C42.2603 27.6458 42.0672 27.646 41.8722 27.6462C41.751 27.6463 41.6301 27.6465 41.5082 27.6468C41.1085 27.6475 40.7055 27.648 40.3057 27.6481C40.2842 27.6481 40.2625 27.6481 40.2404 27.6481C40.2188 27.6481 40.1972 27.6481 40.1751 27.6481C39.8241 27.6482 39.4763 27.6491 39.1253 27.6503C38.7646 27.6516 38.4038 27.6522 38.0463 27.6522C37.8445 27.6522 37.6433 27.6525 37.4418 27.6534C37.252 27.6543 37.0616 27.6544 36.8731 27.6538C36.8035 27.6538 36.734 27.654 36.6644 27.6545C35.9429 27.6596 35.9429 27.6596 35.6797 27.4153C35.3901 27.1131 35.4109 26.7296 35.4135 26.3396C35.4137 26.2746 35.4139 26.2096 35.4142 26.1442C35.4144 26.0734 35.4147 26.0029 35.4151 25.932C35.4158 25.7789 35.416 25.6259 35.4162 25.4738C35.417 24.7978 35.4191 24.1185 35.4217 23.4425C35.423 23.1013 35.424 22.76 35.4245 22.4188C35.4249 22.1181 35.4258 21.8175 35.4272 21.5185C35.428 21.3602 35.4285 21.202 35.4284 21.044C35.4284 20.8958 35.429 20.7476 35.43 20.5988C35.4303 20.5445 35.4304 20.4905 35.4302 20.4363C35.4286 19.8838 35.4286 19.8838 35.6398 19.6368C35.6604 19.6195 35.6811 19.6023 35.7022 19.5844C35.7225 19.5668 35.7428 19.549 35.7636 19.5311C35.9447 19.4093 36.0951 19.3712 36.3096 19.3709L36.3025 19.37ZM37.0338 20.9755V26.0455C38.1453 26.0484 38.1453 26.0484 39.2568 26.0503C39.7085 26.0509 40.1635 26.0515 40.6153 26.0529C40.9435 26.0538 41.275 26.0545 41.6033 26.0547C41.7778 26.0548 41.951 26.0551 42.1265 26.0558C42.291 26.0565 42.4548 26.0567 42.6205 26.0565C42.681 26.0566 42.7411 26.0568 42.8015 26.0571C42.8838 26.0576 42.9663 26.0575 43.0485 26.0572C43.0843 26.0577 43.0843 26.0577 43.121 26.0581C43.2643 26.0569 43.354 26.035 43.4688 25.9479C43.5334 25.8654 43.5344 25.8248 43.5266 25.7195C43.5016 25.5618 43.4389 25.4205 43.3768 25.2742C43.3642 25.2439 43.3516 25.2134 43.3384 25.1822C43.2975 25.0838 43.2562 24.9856 43.2146 24.8875C43.1862 24.8192 43.1577 24.7513 43.1295 24.683C43.0732 24.5482 43.017 24.4136 42.9605 24.28C42.8643 24.0506 42.7694 23.8218 42.6745 23.591C42.644 23.5173 42.6137 23.4438 42.5831 23.37C42.5685 23.3346 42.5538 23.2992 42.5386 23.2628C42.4918 23.15 42.445 23.0372 42.3982 22.9248C42.3657 22.8465 42.3332 22.7681 42.3007 22.6898C42.2849 22.6518 42.2691 22.6134 42.2529 22.5741C42.1642 22.3593 42.0761 22.1451 41.9887 21.9274C41.9743 21.8919 41.9743 21.8919 41.9597 21.8555C41.9132 21.7405 41.8664 21.6251 41.8202 21.511C41.8033 21.4691 41.7864 21.4272 41.7695 21.3856C41.7475 21.3307 41.7475 21.3307 41.725 21.2748C41.6821 21.1737 41.633 21.0752 41.584 20.9771H37.034L37.0338 20.9755Z" fill="#000002"/>
<path d="M4.68 20.8975C4.75767 20.8981 4.83502 20.8986 4.9127 20.8991C5.13597 20.9007 5.35795 20.9032 5.5822 20.9059C5.7304 20.9077 5.87827 20.9093 6.02745 20.9109C6.06547 20.9113 6.06547 20.9113 6.10447 20.9117C6.1841 20.9125 6.26372 20.9134 6.34335 20.9142C6.4571 20.9155 6.57085 20.9167 6.6846 20.9179C6.7288 20.9183 6.7288 20.9183 6.77364 20.9188C6.95825 20.9208 7.14415 20.923 7.3294 20.9252C8.2264 20.9358 9.12014 20.9422 10.0171 20.9464C10.2004 20.9472 10.3844 20.9481 10.5664 20.949C10.6892 20.9496 10.8124 20.9502 10.9336 20.9508C10.9642 20.951 10.9947 20.9511 11.0259 20.9513C11.3964 20.9531 11.7637 20.9547 12.1342 20.956C12.3688 20.9568 12.6022 20.9579 12.8394 20.9591C12.9769 20.9598 13.1147 20.9604 13.2522 20.9607C13.3799 20.961 13.5076 20.9616 13.6357 20.9624C13.6822 20.9626 13.7286 20.9628 13.7748 20.9628C14.3793 20.9631 14.3793 20.9631 14.6328 21.1675C14.819 21.3544 14.9019 21.5088 14.9071 21.7785C14.9033 22.022 14.8466 22.175 14.6854 22.357C14.4345 22.5901 14.1427 22.5806 13.8209 22.5784C13.7748 22.5784 13.7286 22.5785 13.6822 22.5786C13.5557 22.5787 13.4296 22.5783 13.3019 22.5777C13.1661 22.5772 13.0302 22.5773 12.8957 22.5773C12.6311 22.5772 12.3659 22.5765 12.1027 22.5757C11.8885 22.575 11.6737 22.5746 11.4592 22.5743C10.6402 22.573 9.82117 22.5706 9.00217 22.5675C8.8491 22.5669 8.69602 22.5663 8.54392 22.5658C7.81592 22.5632 7.08467 22.56 6.35667 22.5559C6.17532 22.5548 5.99267 22.5539 5.81392 22.5531C5.5939 22.552 5.37517 22.5507 5.15417 22.5491C5.0427 22.5483 4.93122 22.5476 4.81942 22.5471C4.69917 22.5466 4.5786 22.5457 4.45867 22.5446C4.4239 22.5446 4.38945 22.5445 4.3537 22.5444C4.03162 22.5408 3.7427 22.5226 3.5022 22.2893C3.34392 22.1193 3.27307 21.9545 3.24707 21.727C3.25741 21.508 3.34555 21.3045 3.49082 21.142C3.83207 20.8482 4.26107 20.8944 4.68357 20.9002L4.68 20.8975Z" fill="#000002"/>
<path d="M7.1825 16.51C7.2241 16.5102 7.2657 16.5104 7.3086 16.5106C7.35443 16.5109 7.39993 16.5113 7.44575 16.5117C7.4945 16.512 7.54325 16.5122 7.592 16.5125C7.72493 16.5132 7.85785 16.5141 7.99175 16.5151C8.13345 16.5161 8.27515 16.5169 8.4175 16.5178C8.72235 16.5196 9.0285 16.5217 9.33075 16.5238C9.51925 16.5251 9.70775 16.5264 9.89625 16.5276C10.3968 16.531 10.9005 16.5344 11.401 16.538C11.9958 16.5423 12.5905 16.5463 13.1853 16.5494C13.5086 16.5511 13.832 16.5531 14.157 16.5555C14.3354 16.5567 14.5145 16.5578 14.6933 16.5585C14.8564 16.5592 15.0183 16.5603 15.184 16.5618C15.2419 16.5622 15.3 16.5625 15.3579 16.5626C15.7316 16.5634 16.0566 16.5652 16.3426 16.8402C16.5256 17.0443 16.5519 17.2334 16.5435 17.5064C16.5164 17.7121 16.4258 17.8639 16.275 18.0037C16.0579 18.1483 15.8688 18.1847 15.6153 18.1818C15.5863 18.1818 15.5574 18.1819 15.5275 18.1819C15.4304 18.182 15.3332 18.1814 15.2357 18.1808C15.1648 18.1807 15.094 18.1807 15.0231 18.1807C14.8285 18.1805 14.6331 18.1797 14.4381 18.1788C14.2734 18.1781 14.1099 18.1777 13.9441 18.1774C13.4859 18.1763 13.0309 18.1745 12.5726 18.1723C12.2216 18.1706 11.8706 18.1692 11.5196 18.1679C10.8761 18.1655 10.2294 18.1626 9.58588 18.1593C9.38308 18.1582 9.17963 18.1573 8.97813 18.1565C8.72885 18.1554 8.48088 18.1541 8.23063 18.1525C8.10193 18.1517 7.97355 18.151 7.84388 18.1505C7.72525 18.1501 7.6063 18.1494 7.48638 18.1485C7.423 18.148 7.35963 18.1479 7.29625 18.1478C6.968 18.1447 6.68525 18.1291 6.43825 17.894C6.28713 17.7337 6.20263 17.5625 6.1945 17.3415C6.21072 17.0772 6.29363 16.8897 6.48993 16.711C6.70573 16.5299 6.91243 16.5072 7.19193 16.5091L7.1825 16.51Z" fill="#000002"/>
<path d="M7.215 25.285C7.25108 25.2854 7.25108 25.2854 7.28747 25.2858C7.36743 25.2867 7.44705 25.2878 7.527 25.289C7.5842 25.2897 7.6414 25.2904 7.6986 25.291C7.8533 25.2929 8.00833 25.295 8.16335 25.2971C8.3252 25.2993 8.48673 25.3013 8.6476 25.3034C8.84845 25.3059 9.0506 25.3085 9.24885 25.3111C9.6811 25.3167 10.1134 25.3213 10.5456 25.3251C10.7315 25.3268 10.9161 25.3286 11.1046 25.3304C11.2525 25.3318 11.4004 25.3332 11.5466 25.3343C11.6854 25.3353 11.8238 25.3366 11.9626 25.3381C12.0133 25.3386 12.0637 25.339 12.1144 25.3393C12.8099 25.3433 12.8099 25.3433 13.0796 25.6052C13.2652 25.8132 13.298 25.9984 13.2899 26.2779C13.2578 26.4934 13.1502 26.6419 13.001 26.7947C12.7163 26.964 12.4452 26.9562 12.1235 26.9536C12.0695 26.9535 12.0156 26.9535 11.9616 26.9534C11.8157 26.9533 11.6695 26.9525 11.5229 26.9516C11.4007 26.9509 11.2785 26.9505 11.1556 26.9501C10.7689 26.9489 10.3789 26.9464 9.99213 26.9436C9.89267 26.9429 9.79323 26.9423 9.69378 26.9416C9.27453 26.9389 8.85853 26.9356 8.43928 26.9316C8.34795 26.9307 8.25663 26.93 8.1653 26.9292C8.021 26.9281 7.8767 26.9265 7.73305 26.9248C7.6804 26.9242 7.62775 26.9237 7.5751 26.9233C6.68135 26.9165 6.68135 26.9165 6.41485 26.6503C6.2673 26.4989 6.20067 26.3276 6.17305 26.1206C6.20402 25.8596 6.28582 25.6363 6.4844 25.4608C6.70378 25.2993 6.9459 25.2817 7.2124 25.2853L7.215 25.285Z" fill="#000002"/>
</svg>
