<svg width="39" height="39" viewBox="0 0 39 39" fill="none" xmlns="http://www.w3.org/2000/svg">
<g clip-path="url(#clip0_94_2)">
<path d="M1.72087 19.305C1.7706 19.3049 1.82032 19.3048 1.87005 19.3047C2.00411 19.3043 2.13817 19.3045 2.27223 19.3047C2.41312 19.3049 2.55498 19.3047 2.69392 19.3046C2.93036 19.3044 3.1668 19.3046 3.40323 19.305C3.67623 19.3054 3.94923 19.3052 4.2198 19.3048C4.45453 19.3045 4.69023 19.3045 4.92423 19.3047C5.06415 19.3048 5.20455 19.3048 5.34348 19.3045C5.47511 19.3043 5.60673 19.3045 5.73836 19.3049C5.78638 19.305 5.8344 19.305 5.88242 19.3048C6.37479 19.3033 6.78917 19.3618 7.15967 19.7192C7.49604 20.0872 7.53504 20.4967 7.5326 20.9721C7.53256 21.0067 7.53252 21.0413 7.5325 21.0759C7.53241 21.1663 7.53217 21.2565 7.5319 21.3465C7.53165 21.4388 7.53154 21.5315 7.53141 21.6243C7.53115 21.8052 7.53074 21.9851 7.53022 22.1679C7.55752 22.1698 7.55752 22.1698 7.58531 22.1717C8.25562 22.218 8.25562 22.218 8.52375 22.2609C8.55081 22.2651 8.57762 22.2693 8.60541 22.2736C9.80222 22.4652 10.8991 22.9098 11.9448 23.5143C12.7906 24.0018 13.6657 24.482 14.5773 24.8281C14.5997 24.8366 14.6221 24.8452 14.6453 24.8539C15.0036 24.9853 15.3619 25.0185 15.7422 25.0511C15.8004 25.0563 15.8587 25.0615 15.9169 25.0667C16.0722 25.0806 16.2265 25.0943 16.3825 25.1077C16.4756 25.1158 16.5687 25.124 16.6628 25.1321C17.0162 25.1633 17.3697 25.194 17.7231 25.2244C17.9717 25.246 18.2228 25.2676 18.4714 25.2893C18.546 25.2958 18.6206 25.3022 18.6952 25.3087C18.7138 25.3104 18.7325 25.312 18.7515 25.3136C19.2926 25.3607 19.8313 25.4075 20.3724 25.4538C20.6991 25.4818 21.0232 25.5099 21.3499 25.5381C21.5495 25.5555 21.7496 25.5727 21.9495 25.5896C22.086 25.6012 22.2225 25.613 22.359 25.6249C22.4372 25.6318 22.5157 25.6385 22.594 25.6451C23.3691 25.7102 24.1028 25.8398 24.7438 26.3105C24.763 26.3245 24.7821 26.3386 24.8019 26.3529C25.6257 26.9745 26.0596 27.8227 26.201 28.8392C26.2181 28.9674 26.2317 29.0902 26.2295 29.2194C26.3994 29.23 26.5683 29.2404 26.7389 29.2506C26.7965 29.2541 26.8542 29.2577 26.9118 29.2613C27.0751 29.2715 27.2384 29.2805 27.4017 29.2883C27.4636 29.2919 27.525 29.2972 27.5869 29.3033C27.838 29.3237 27.9867 29.2348 28.1768 29.0871C28.2716 29.0159 28.3711 28.9513 28.4693 28.8855C28.5125 28.8562 28.5556 28.8272 28.599 28.798C29.0207 28.5128 29.4399 28.23 29.8641 27.9497C29.9806 27.8722 30.0971 27.7944 30.2126 27.7169C30.2511 27.6913 30.2896 27.6655 30.3284 27.6399C30.3475 27.6272 30.3664 27.6146 30.3862 27.6014C30.4269 27.5741 30.4678 27.547 30.5085 27.52C30.6589 27.42 30.8083 27.3191 30.9595 27.2177C31.4689 26.874 31.9783 26.5328 32.4902 26.1964C32.7364 26.0358 32.9777 25.8722 33.219 25.7065C33.3607 25.609 33.5042 25.5142 33.648 25.4189C33.7087 25.3786 33.7694 25.3382 33.8301 25.2977C33.9118 25.2434 33.9932 25.189 34.0739 25.1346C34.2484 25.0184 34.4224 24.9021 34.5955 24.7836C34.6754 24.7295 34.7556 24.6757 34.8356 24.6216C34.876 24.5943 34.9165 24.5667 34.957 24.5394C35.2738 24.3237 35.5956 24.1128 35.9661 24.0032C35.9968 23.9939 36.0275 23.9846 36.0592 23.9751C36.437 23.8801 36.8953 23.8857 37.2682 24.0017C37.296 24.01 37.3238 24.0183 37.3525 24.0268C37.6572 24.1265 37.9229 24.2827 38.1691 24.4899C38.1932 24.508 38.2174 24.526 38.2422 24.5448C38.6225 24.8665 38.8175 25.3394 38.9491 25.8074C38.9552 25.8281 38.9613 25.8488 38.9676 25.8703C39.0977 26.3943 38.9465 27.0281 38.6775 27.4839C38.4365 27.8715 38.0998 28.1713 37.7586 28.4662C37.6918 28.5252 37.6262 28.5857 37.5607 28.6461C37.4649 28.7343 37.3681 28.8214 37.2706 28.9069C37.2084 28.9615 37.1475 29.0171 37.0863 29.0729C37.0103 29.1424 36.934 29.2111 36.8562 29.2786C36.7599 29.3622 36.6663 29.4485 36.5735 29.5346C36.4908 29.6104 36.4072 29.6847 36.3224 29.7581C36.2556 29.8171 36.1901 29.8775 36.1245 29.938C36.0287 30.0262 35.9319 30.1132 35.8344 30.1988C35.7489 30.2741 35.665 30.3514 35.5809 30.4282C35.5285 30.4757 35.4754 30.5225 35.422 30.5688C35.3196 30.6578 35.2204 30.7502 35.1222 30.8418C35.0366 30.921 34.9499 30.9985 34.8614 31.0751C34.7948 31.1338 34.7295 31.1938 34.6642 31.254C34.5689 31.3417 34.4726 31.428 34.3741 31.5124C34.3073 31.5714 34.2418 31.6318 34.1762 31.6923C34.0806 31.7802 33.9841 31.8673 33.8861 31.9531C33.8454 31.9889 33.8054 32.0255 33.7655 32.0623C33.7533 32.0735 33.7412 32.0847 33.7287 32.0964C33.6936 32.1288 33.6587 32.1615 33.6236 32.1941C33.5671 32.2414 33.5671 32.2414 33.5183 32.2414V32.2902C33.4842 32.3245 33.4842 32.3245 33.4359 32.3648C33.3577 32.4313 33.2807 32.4986 33.2044 32.5673C33.1838 32.5859 33.1632 32.6044 33.1422 32.6234C33.1215 32.642 33.1008 32.6607 33.0796 32.6799C33.0389 32.7165 32.9984 32.7531 32.9577 32.7896C32.9376 32.8077 32.9175 32.8259 32.8967 32.8445C32.4702 33.2296 32.4702 33.2296 32.4092 33.2832C32.3681 33.3203 32.3266 33.3576 32.2854 33.3948C32.194 33.4772 32.1029 33.5594 32.01 33.641C31.9147 33.7242 31.8213 33.8097 31.7272 33.8945C31.6097 34.0025 31.491 34.1095 31.3714 34.2163C31.3507 34.2349 31.3302 34.2536 31.309 34.2726C31.2015 34.3696 31.0932 34.4659 30.9848 34.5602C30.948 34.5929 30.9116 34.6263 30.8756 34.6599C30.5587 34.9548 30.2101 35.1937 29.8372 35.4107C29.8205 35.4204 29.8038 35.4301 29.7865 35.4402C28.8383 35.9837 27.7658 36.1105 26.6909 36.2616C26.5617 36.2799 26.4325 36.2984 26.3033 36.3169C26.1129 36.3442 25.9231 36.3715 25.7329 36.3986C25.2138 36.4727 24.6946 36.5475 24.1754 36.6223C24.0676 36.6379 23.9599 36.6535 23.8512 36.6689C23.1687 36.7674 22.4862 36.8666 21.8013 36.9663C21.0578 37.076 20.3119 37.1822 19.5685 37.288C19.0128 37.367 18.457 37.4465 17.9037 37.5298C15.8976 37.8296 15.8976 37.8296 15.2224 37.7833C15.2019 37.7819 15.1812 37.7806 15.1603 37.7791C14.8142 37.7465 14.4753 37.6314 14.1536 37.5061C14.0985 37.4846 14.0434 37.4632 13.9883 37.442C13.9254 37.4179 13.8626 37.3938 13.7997 37.3694C13.5389 37.269 13.278 37.171 13.0172 37.072C12.8412 37.0057 12.6662 36.9394 12.4883 36.8731C12.4722 36.867 12.4561 36.861 12.4395 36.8547C11.9325 36.6631 11.4255 36.4696 10.9185 36.277C10.6748 36.1842 10.4286 36.0913 10.1849 35.9991C9.93867 35.906 9.69248 35.8127 9.44629 35.7188C9.32271 35.6718 9.20011 35.625 9.0758 35.5779C9.06051 35.5721 9.04533 35.5663 9.02948 35.5603C8.52736 35.3695 8.02279 35.1801 7.51823 34.9948C7.5188 35.0263 7.51936 35.058 7.51995 35.0904C7.52599 35.5511 7.48631 35.946 7.18113 36.3116C6.8667 36.6309 6.46938 36.7503 6.03063 36.7552C5.94215 36.7558 5.85391 36.7557 5.76495 36.7556C5.71595 36.7557 5.6672 36.7558 5.61821 36.7559C5.48585 36.7563 5.35252 36.7563 5.2209 36.7562C5.11023 36.7562 4.99957 36.7563 4.8894 36.7564C4.62858 36.7567 4.36777 36.7567 4.10452 36.7565C3.8364 36.7564 3.56583 36.7567 3.29771 36.7572C3.06615 36.7577 2.83458 36.7578 2.60302 36.7577C2.46506 36.7577 2.32758 36.7577 2.18865 36.7581C2.05873 36.7584 1.92783 36.7583 1.79865 36.758C1.75136 36.758 1.70383 36.758 1.65654 36.7582C1.16904 36.7602 0.774165 36.7146 0.403665 36.3634C0.376852 36.3368 0.376852 36.3368 0.349796 36.3095C0.335756 36.2957 0.321765 36.2819 0.30714 36.2678C0.0711896 36.0167 -0.0267978 35.6731 -0.0243603 35.3367C-0.0244885 35.3108 -0.0246163 35.2852 -0.0247479 35.2587C-0.0250867 35.1724 -0.0249088 35.0863 -0.0247308 35.0003C-0.0248675 34.9379 -0.0250354 34.8753 -0.0252329 34.8129C-0.0256083 34.6771 -0.0257131 34.5423 -0.0256375 34.4058C-0.0255259 34.204 -0.0258305 34.0012 -0.0262127 33.8013C-0.0269196 33.4186 -0.0271268 33.0384 -0.0271682 32.6557C-0.0272019 32.3607 -0.0273526 32.0658 -0.0275852 31.7709C-0.0276507 31.686 -0.0277158 31.6012 -0.0277806 31.5174C-0.0277968 31.4963 -0.027813 31.4752 -0.0278295 31.4535C-0.0282805 30.8612 -0.0285681 30.2664 -0.0285364 29.6741C-0.0285353 29.6517 -0.0285342 29.6293 -0.028533 29.6064C-0.028527 29.493 -0.0285197 29.3797 -0.0285122 29.2651C-0.0285108 29.2426 -0.0285092 29.22 -0.0285078 29.1969C-0.0285048 29.1513 -0.0285018 29.1057 -0.0284986 29.0604C-0.0284538 28.351 -0.0290032 27.6442 -0.0300026 26.9349C-0.0311262 26.1378 -0.0317551 25.3432 -0.0316868 24.5461C-0.0316814 24.4613 -0.0316778 24.3762 -0.0316755 24.2902C-0.0316747 24.2693 -0.031674 24.2482 -0.0316731 24.2268C-0.0316708 23.8904 -0.0321362 23.554 -0.0327675 23.2177C-0.0333891 22.8789 -0.0334597 22.5425 -0.0329788 22.2037C-0.0327082 22.0031 -0.0328411 21.8015 -0.033559 21.6016C-0.0340513 21.4515 -0.0337732 21.3018 -0.033203 21.1507C-0.0330907 21.0902 -0.0332237 21.0295 -0.0336321 20.9691C-0.0366546 20.4865 0.027793 20.1086 0.351493 19.7308C0.743931 19.3457 1.18268 19.3043 1.70674 19.3067L1.72087 19.305ZM1.19437 20.4848C1.14245 20.5625 1.1388 20.5869 1.13563 20.6769C1.1347 20.701 1.13377 20.7251 1.13283 20.7497C1.13209 20.7758 1.13135 20.8019 1.13059 20.8287C1.12967 20.856 1.12875 20.8833 1.12781 20.9114C1.11884 21.2014 1.11776 21.489 1.11798 21.7791C1.11794 21.8381 1.11788 21.8971 1.11782 21.9563C1.1177 22.0833 1.11766 22.2098 1.11768 22.3366C1.11772 22.5255 1.11762 22.7144 1.11749 22.9045C1.11725 23.2628 1.11718 23.6187 1.11717 23.977C1.11716 24.2524 1.11711 24.5279 1.11703 24.8033C1.11701 24.8828 1.11699 24.9625 1.11697 25.0419C1.11696 25.0617 1.11696 25.0814 1.11695 25.1019C1.1168 25.6577 1.1167 26.2134 1.11671 26.7692C1.11671 26.79 1.11671 26.8108 1.11672 26.8325C1.11672 26.9383 1.11672 27.0444 1.11672 27.1494C1.11672 27.1704 1.11672 27.1916 1.11672 27.213C1.11672 27.2554 1.11673 27.2981 1.11673 27.3405C1.11674 28.0035 1.11656 28.6665 1.11622 29.3295C1.11585 30.0754 1.11564 30.8213 1.11566 31.5671C1.11567 31.6466 1.11567 31.7261 1.11567 31.8055C1.11567 31.8251 1.11567 31.8445 1.11567 31.8647C1.11567 32.1792 1.11551 32.4936 1.1153 32.8081C1.1151 33.1249 1.11507 33.4394 1.11523 33.7562C1.11532 33.9439 1.11528 34.1316 1.11504 34.3193C1.11488 34.4592 1.11497 34.5996 1.11516 34.7386C1.1152 34.7954 1.11515 34.8521 1.11501 34.9089C1.11484 34.9857 1.11497 35.0627 1.11517 35.1395C1.11505 35.1618 1.11493 35.1839 1.11481 35.2068C1.11555 35.3384 1.12075 35.4579 1.20353 35.5676C1.30079 35.6385 1.42023 35.6243 1.53503 35.6241C1.55482 35.6242 1.57452 35.6242 1.59499 35.6243C1.66129 35.6244 1.72784 35.6244 1.79414 35.6244C1.84167 35.6245 1.8892 35.6245 1.93673 35.6246C2.06592 35.6249 2.19511 35.6249 2.32429 35.6249C2.43228 35.6249 2.54001 35.625 2.64848 35.6251C2.90198 35.6253 3.15792 35.6254 3.41142 35.6254C3.67467 35.6253 3.93548 35.6256 4.19873 35.626C4.4242 35.6263 4.64967 35.6264 4.87392 35.6264C5.00847 35.6264 5.14204 35.6265 5.27854 35.6267C5.40529 35.627 5.53204 35.627 5.65879 35.6268C5.70535 35.6268 5.75166 35.6268 5.79822 35.627C5.86159 35.6272 5.92521 35.6271 5.98859 35.6269C6.01613 35.6271 6.01613 35.6271 6.04441 35.6273C6.15068 35.6266 6.24063 35.6206 6.33691 35.5722C6.39809 35.4713 6.41905 35.3954 6.41905 35.2772C6.41922 35.248 6.41939 35.2187 6.41957 35.1887C6.41938 35.1568 6.4192 35.1249 6.41901 35.0922C6.41907 35.0579 6.41916 35.0235 6.41929 34.9891C6.41954 34.8948 6.41934 34.8005 6.41906 34.7064C6.41885 34.6045 6.41905 34.5028 6.41921 34.4017C6.41944 34.2252 6.4194 34.0482 6.41921 33.8727C6.41894 33.6168 6.41916 33.3633 6.41952 33.1074C6.4201 32.693 6.42042 32.2786 6.42052 31.8642C6.42053 31.8394 6.42053 31.8148 6.42054 31.7892C6.4206 31.5137 6.42061 31.2359 6.42059 30.9604C6.42058 30.86 6.42057 30.7598 6.42057 30.6606C6.42057 30.6236 6.42057 30.6236 6.42056 30.5855C6.42055 30.1736 6.42091 29.7592 6.42156 29.3473C6.42195 29.0938 6.422 28.8378 6.42163 28.5843C6.4214 28.4098 6.42152 28.2358 6.42191 28.0603C6.42212 27.9596 6.42217 27.8589 6.4218 27.758C6.42146 27.6659 6.42157 27.5738 6.42203 27.4826C6.42216 27.4336 6.42181 27.3846 6.42144 27.3354C6.42301 27.1382 6.44377 27.0039 6.57256 26.8479C6.71662 26.7289 6.85531 26.686 7.043 26.7021C7.21387 26.7426 7.34525 26.8016 7.43788 26.9556C7.52538 27.1067 7.50856 27.2895 7.50881 27.4577C7.50893 27.4848 7.50905 27.5118 7.50917 27.5396C7.50955 27.6301 7.50975 27.7207 7.50995 27.8102C7.51019 27.875 7.51043 27.9399 7.51069 28.0047C7.51122 28.1444 7.51166 28.285 7.51204 28.424C7.51259 28.6258 7.51328 28.8286 7.514 29.0309C7.51516 29.3575 7.51621 29.6866 7.51719 30.0132C7.51815 30.3325 7.51916 30.6494 7.52024 30.9687C7.5203 30.9883 7.52037 31.0079 7.52044 31.0282C7.52077 31.1267 7.52111 31.2251 7.52144 31.3231C7.52422 32.1397 7.52683 32.9562 7.52931 33.7606C7.60756 33.7921 7.6858 33.8233 7.76405 33.8547C7.78608 33.8636 7.80816 33.8724 7.83083 33.8815C7.98001 33.9412 8.13065 33.9995 8.27933 34.0553C8.32516 34.0724 8.37074 34.0894 8.41656 34.1065C8.43987 34.1152 8.46312 34.1238 8.48725 34.1328C8.9065 34.2883 9.32331 34.4473 9.74013 34.6057C10.1838 34.7761 10.6274 34.9445 11.071 35.1127C11.0868 35.1186 11.1027 35.1246 11.1188 35.1307C11.1507 35.1427 11.1826 35.1547 11.2143 35.1668C11.2935 35.1965 11.3725 35.2263 11.4517 35.2562C11.4673 35.2621 11.4829 35.268 11.499 35.274C11.8159 35.3932 12.1328 35.5134 12.4472 35.6348C12.8982 35.8064 13.3491 35.976 13.8 36.1442C14.0092 36.2224 14.2193 36.3007 14.4265 36.3806C14.4513 36.3901 14.4513 36.3901 14.4767 36.3998C14.5503 36.4281 14.6237 36.4564 14.6973 36.4849C15.314 36.7218 15.9038 36.6792 16.5473 36.5834C16.6051 36.5751 16.6629 36.5668 16.7206 36.5585C16.872 36.5368 17.0229 36.5147 17.174 36.4925C17.3234 36.4706 17.4738 36.4491 17.6225 36.4276C18.2368 36.3391 18.851 36.248 19.4653 36.1571C19.9503 36.0852 20.4354 36.0159 20.9205 35.9487C21.3933 35.8831 21.8638 35.8148 22.3366 35.7446C22.8631 35.6662 23.3921 35.5894 23.9186 35.5136C23.9373 35.5109 23.9561 35.5082 23.9754 35.5054C24.2849 35.4611 24.5921 35.4169 24.9016 35.3728C25.3721 35.3053 25.8425 35.238 26.3129 35.17C26.4726 35.1469 26.6322 35.124 26.7931 35.101C26.9262 35.0821 27.0588 35.0628 27.1929 35.0435C27.2389 35.0368 27.285 35.0302 27.3313 35.0237C27.5717 34.9896 27.8091 34.9481 28.0455 34.895C28.0673 34.8901 28.0891 34.8852 28.1116 34.8801C28.3173 34.8321 28.5138 34.7658 28.7112 34.688C28.7402 34.6768 28.769 34.6655 28.7989 34.6539C29.2937 34.4518 29.7374 34.1542 30.1249 33.7861C30.1574 33.7574 30.1898 33.7291 30.2224 33.7008C30.3243 33.6123 30.4238 33.5212 30.5223 33.4303C30.5754 33.3822 30.6288 33.3347 30.6829 33.2879C30.7792 33.2043 30.8728 33.118 30.9656 33.032C31.0327 32.9703 31.1004 32.9091 31.1694 32.8496C31.2569 32.7738 31.342 32.6954 31.4278 32.6166C31.528 32.5238 31.6286 32.4323 31.7325 32.3436C31.7944 32.2895 31.8551 32.2339 31.9158 32.1786C31.9913 32.1096 32.0669 32.0414 32.1444 31.9743C32.217 31.9115 32.2875 31.8466 32.3579 31.781C32.4705 31.676 32.5836 31.5741 32.7041 31.4788C32.8025 31.3998 32.8917 31.3167 32.9795 31.2253C33.0387 31.1658 33.1016 31.1117 33.165 31.0569C33.2332 30.9971 33.2998 30.936 33.3666 30.8745C33.4465 30.8009 33.5267 30.7278 33.6089 30.6566C33.6964 30.5808 33.7814 30.5023 33.8672 30.4236C33.9674 30.3307 34.0681 30.2393 34.1719 30.1506C34.2338 30.0965 34.2945 30.0409 34.3552 29.9856C34.4308 29.9166 34.5063 29.8484 34.5839 29.7813C34.6719 29.7048 34.7574 29.6261 34.8422 29.5468C34.9429 29.4535 35.0443 29.3613 35.1494 29.2714C35.2476 29.1858 35.3439 29.0978 35.4394 29.0106C35.4801 28.974 35.5206 28.9375 35.5613 28.9009C35.5915 28.8738 35.5915 28.8738 35.6222 28.8461C36.0488 28.4634 36.0488 28.4634 36.1097 28.4073C36.1529 28.3683 36.1963 28.3293 36.2392 28.2901L36.3055 28.2299C36.3253 28.2117 36.3452 28.1935 36.3657 28.175C36.4151 28.1324 36.4151 28.1324 36.4639 28.108V28.0592L36.5075 28.0394C36.5619 28.0102 36.5994 27.9797 36.644 27.9371C36.6592 27.9227 36.6745 27.9083 36.6901 27.8934C36.7139 27.8706 36.7139 27.8706 36.7381 27.8474C36.771 27.8162 36.8042 27.785 36.8371 27.7538L36.8846 27.7089C36.9463 27.6511 37.0097 27.5958 37.0738 27.5407C37.162 27.4637 37.2476 27.384 37.3346 27.3045C37.3911 27.2548 37.3911 27.2548 37.4399 27.2304V27.1817C37.464 27.1736 37.4881 27.1656 37.513 27.1573C37.7884 26.8502 37.8762 26.5138 37.8591 26.1141C37.8335 25.8045 37.6707 25.5388 37.4496 25.3316C37.1571 25.083 36.8183 25.0074 36.4429 25.0318C36.1383 25.065 35.8872 25.2575 35.641 25.4242C35.5996 25.4523 35.5581 25.4803 35.5167 25.5086C35.4951 25.5233 35.4735 25.5378 35.4514 25.5529C35.0053 25.8552 34.5568 26.155 34.1059 26.4499C33.8597 26.6116 33.6159 26.7766 33.3722 26.9423C33.243 27.0313 33.1114 27.1181 32.9822 27.2056C32.9137 27.2512 32.8449 27.297 32.7765 27.3426C32.7379 27.3682 32.6994 27.3937 32.6612 27.4196C32.6416 27.4326 32.6222 27.4457 32.6019 27.4591C32.435 27.5705 32.435 27.5705 32.3787 27.608C32.3384 27.6348 32.2982 27.6616 32.258 27.6884C32.1288 27.7745 31.9996 27.8605 31.8704 27.9468C31.4268 28.2418 30.9832 28.5391 30.542 28.8389C30.397 28.9377 30.2519 29.0349 30.1057 29.1314C30.073 29.1533 30.0401 29.1751 30.0075 29.197C29.8695 29.2889 29.732 29.3808 29.5931 29.4724C29.571 29.4872 29.549 29.5019 29.526 29.5171C29.4727 29.5526 29.4193 29.5882 29.3659 29.6238C29.2235 29.7186 29.0807 29.8135 28.9393 29.909C28.8769 29.9509 28.8145 29.9929 28.7521 30.0348C28.7205 30.0561 28.6888 30.0774 28.6573 30.0986C28.2844 30.3497 28.0504 30.4375 27.5946 30.4082C27.5412 30.4046 27.4878 30.4013 27.4344 30.3981C27.2826 30.3888 27.1297 30.379 26.9786 30.3691C25.8842 30.2981 24.8117 30.3456 23.7124 30.4217C23.4891 30.4373 23.2663 30.4524 23.0421 30.4673C23.0214 30.4687 23.0009 30.4701 22.9797 30.4715C22.8958 30.4772 22.812 30.4828 22.7286 30.4884C22.6011 30.497 22.4727 30.5056 22.3459 30.5143C21.4611 30.5742 20.5738 30.6293 19.689 30.6834C19.5947 30.6892 19.5004 30.695 19.4063 30.7007C19.1187 30.7184 18.8286 30.7361 18.541 30.7536C18.524 30.7547 18.5071 30.7557 18.4898 30.7568C18.473 30.7578 18.4561 30.7588 18.4391 30.7599C18.0978 30.7807 17.7541 30.8015 17.4129 30.8227C16.6963 30.8671 15.9796 30.9112 15.263 30.9502C15.2048 30.9534 15.1467 30.9566 15.0885 30.9598C14.8277 30.9742 14.5669 30.9866 14.3061 30.9883C14.2773 30.9887 14.2773 30.9887 14.248 30.989C13.6484 30.9882 13.0732 30.6697 12.6515 30.2626C12.5142 30.122 12.4272 29.9823 12.4228 29.7824C12.4256 29.6416 12.4494 29.5289 12.5459 29.4241C12.7024 29.2813 12.8262 29.2408 13.0383 29.2459C13.2116 29.2632 13.3016 29.3432 13.421 29.4665C13.6472 29.701 13.9402 29.8736 14.2717 29.8907C14.5666 29.8894 14.8591 29.873 15.1516 29.8539C15.2065 29.8504 15.2613 29.8469 15.3162 29.8434C15.4614 29.8342 15.6062 29.8249 15.7525 29.8154C15.9757 29.801 16.1985 29.7869 16.4228 29.7725C16.4825 29.7687 16.5425 29.7649 16.6022 29.7611C17.2213 29.7216 17.8404 29.684 18.4596 29.6465C19.6174 29.5765 20.7727 29.5059 21.9208 29.4342C22.2377 29.4147 22.5521 29.3952 22.869 29.3757C23.0967 29.3617 23.3248 29.3477 23.5515 29.3335C23.6856 29.3252 23.8196 29.317 23.9537 29.3087C24.0777 29.301 24.2023 29.2934 24.3266 29.2857C24.3717 29.2829 24.417 29.2801 24.4621 29.2773C24.5238 29.2736 24.5857 29.2697 24.6474 29.2659C24.665 29.2648 24.6827 29.2637 24.7008 29.2626C24.8248 29.2548 24.947 29.2421 25.0713 29.2275C25.102 28.6255 24.8821 28.0332 24.4887 27.5774C24.4717 27.5587 24.4548 27.5401 24.4373 27.5208C24.423 27.5049 24.4088 27.4889 24.3941 27.4725C24.284 27.3555 24.1575 27.2666 24.0236 27.18C23.9898 27.1581 23.9898 27.1581 23.9549 27.1357C23.5722 26.8995 23.1505 26.8164 22.7069 26.7798C22.6733 26.7769 22.6396 26.7739 22.606 26.7709C22.5326 26.7644 22.4592 26.758 22.3856 26.7518C22.264 26.7414 22.1424 26.7307 22.02 26.7201C21.834 26.7038 21.6471 26.6876 21.4618 26.6716C21.1157 26.6416 20.7696 26.6114 20.4234 26.5811C20.3113 26.5713 20.1994 26.5616 20.0871 26.5519C20.0547 26.549 20.022 26.5462 19.9896 26.5434C19.759 26.5232 19.5289 26.5031 19.2973 26.4829C18.4564 26.4095 17.6154 26.3359 16.7867 26.2611C16.7097 26.2543 16.6324 26.2474 16.5554 26.2406C16.2458 26.213 15.9338 26.1853 15.6243 26.1567C15.6054 26.155 15.5865 26.1533 15.567 26.1515C15.4468 26.1405 15.3264 26.1291 15.2062 26.1176C15.1775 26.115 15.1489 26.1123 15.1194 26.1096C14.8811 26.0861 14.6563 26.0377 14.4296 25.9619C14.4117 25.956 14.3938 25.9501 14.3753 25.944C13.7269 25.727 13.1029 25.4199 12.5008 25.0982C12.4353 25.0631 12.3697 25.0285 12.3039 24.9936C12.0016 24.8335 11.6994 24.6719 11.3996 24.5037C11.3652 24.4842 11.3652 24.4842 11.3304 24.4644C11.2302 24.4074 11.13 24.3501 11.0305 24.2919C9.99948 23.6947 8.72954 23.273 7.52054 23.2827C7.52024 23.3081 7.52025 23.3081 7.51994 23.3339C7.51803 23.4943 7.5159 23.6557 7.51353 23.8141C7.51232 23.8965 7.51119 23.9789 7.51027 24.0603C7.50915 24.1551 7.50773 24.2502 7.50627 24.3455C7.50599 24.3747 7.50571 24.404 7.50541 24.4342C7.50105 24.6853 7.48504 24.8998 7.30115 25.085C7.14832 25.1818 6.98671 25.2044 6.80878 25.173C6.65351 25.1318 6.55771 25.0497 6.4724 24.9146C6.42853 24.8047 6.41756 24.7126 6.41732 24.5953C6.41722 24.5784 6.41714 24.5614 6.41704 24.5439C6.4168 24.4873 6.4169 24.431 6.417 24.3745C6.41689 24.3338 6.41676 24.2933 6.41662 24.2526C6.41633 24.1653 6.4162 24.0781 6.41618 23.9918C6.41613 23.8538 6.41569 23.7164 6.41518 23.5774C6.41399 23.2337 6.41323 22.8925 6.41272 22.5488C6.41232 22.2831 6.41176 22.015 6.4107 21.7493C6.41017 21.6121 6.40997 21.4739 6.41003 21.3374C6.40999 21.252 6.40964 21.1665 6.40922 21.0814C6.40908 21.0419 6.40907 21.0022 6.40919 20.9627C6.40934 20.9086 6.40904 20.8545 6.40864 20.8006C6.40859 20.7704 6.40854 20.7402 6.40849 20.709C6.39803 20.6159 6.37826 20.5583 6.3261 20.4803C6.22665 20.4182 6.11842 20.4248 6.00435 20.4255C5.98431 20.4254 5.96437 20.4253 5.94366 20.4253C5.87662 20.4251 5.80959 20.4252 5.74256 20.4254C5.69454 20.4253 5.64628 20.4252 5.59826 20.4251C5.46761 20.4249 5.33745 20.425 5.20582 20.4251C5.06932 20.4253 4.93282 20.4251 4.79632 20.4251C4.56696 20.425 4.33807 20.4251 4.10895 20.4253C3.84326 20.4256 3.57757 20.4255 3.31189 20.4252C3.08422 20.425 2.85607 20.425 2.62939 20.4251C2.49337 20.4252 2.35639 20.4252 2.22232 20.425C2.09436 20.4249 1.96639 20.425 1.83964 20.4253C1.79259 20.4253 1.74579 20.4253 1.69875 20.4252C1.63464 20.4251 1.57054 20.4252 1.50667 20.4255C1.47864 20.4253 1.47864 20.4253 1.45012 20.4252C1.35141 20.4259 1.27194 20.4321 1.18444 20.4805L1.19437 20.4848Z" fill="#000002"/>
<path d="M25.0819 1.29191C25.0996 1.29188 25.1175 1.29184 25.1357 1.29181C25.5257 1.2919 25.8377 1.36956 26.1254 1.64281C26.3862 1.91824 26.4227 2.26193 26.4788 2.61781C26.6377 3.61231 27.0833 4.77743 27.895 5.42093C27.9156 5.43802 27.9362 5.45506 27.9574 5.47261V5.52136C27.9714 5.52745 27.9854 5.53354 27.9998 5.53983C28.0627 5.57444 28.1054 5.61466 28.157 5.66463C28.5422 6.01563 29.0004 6.25207 29.4635 6.48119C29.817 6.65596 30.1022 6.87851 30.2557 7.25632C30.351 7.54394 30.3527 7.81451 30.3203 8.11188C30.317 8.14308 30.3137 8.17453 30.3103 8.2067C30.1982 9.23533 29.991 10.2469 29.7375 11.2536C29.7251 11.3035 29.7129 11.3533 29.7004 11.4032C29.3397 12.8487 28.7912 14.3039 28.0868 15.6201C28.0768 15.639 28.0667 15.6579 28.0563 15.6772C28.0239 15.7378 27.9913 15.7985 27.9588 15.8592C27.9474 15.8806 27.9359 15.9021 27.9242 15.9241C27.5562 16.6114 27.1442 17.272 26.6908 17.9058C26.6732 17.9306 26.6555 17.9555 26.6372 17.9811C26.4893 18.187 26.335 18.3881 26.179 18.588C26.1672 18.6033 26.1554 18.6187 26.1431 18.6346C25.915 18.9295 25.6727 19.2147 25.4192 19.4877C25.3729 19.5357 25.3729 19.5357 25.3495 19.5879H25.3007C25.2911 19.6095 25.2911 19.6095 25.2812 19.6315C25.251 19.6873 25.2198 19.7229 25.1742 19.767C25.1592 19.7818 25.1442 19.7965 25.1286 19.8116C25.113 19.8268 25.0974 19.8419 25.0811 19.8575C25.0501 19.8877 25.0192 19.9179 24.9882 19.9481C24.9745 19.9614 24.9607 19.9747 24.9465 19.9884C24.9054 20.0298 24.9054 20.0298 24.8617 20.0995H24.813C24.8064 20.1141 24.7999 20.1288 24.7932 20.1436C24.7642 20.197 24.7376 20.2314 24.691 20.2701H24.6423V20.3189C24.6074 20.3533 24.6074 20.3533 24.5584 20.3935C24.4824 20.4578 24.4115 20.5246 24.342 20.596C24.2438 20.6957 24.139 20.783 24.03 20.869C23.9569 20.9295 23.8874 20.9931 23.8182 21.0579C23.6749 21.1915 23.5232 21.3114 23.3672 21.4309C23.328 21.4611 23.2888 21.4916 23.2498 21.522C22.8549 21.8292 22.4527 22.1168 22.0334 22.3898C22.0117 22.404 21.9901 22.4183 21.9676 22.4329C21.6532 22.6382 21.3314 22.8302 21.0024 23.0106C20.9385 23.046 20.8749 23.0818 20.8115 23.1176C20.5936 23.2402 20.3728 23.355 20.1485 23.4637C20.1251 23.4751 20.1017 23.4864 20.0776 23.4981C19.8241 23.618 19.5779 23.6921 19.3025 23.5978C19.2537 23.5779 19.2057 23.5569 19.1577 23.5354C19.1414 23.5281 19.125 23.5207 19.1082 23.5132C18.8303 23.3869 18.5573 23.2475 18.2892 23.1037C18.2509 23.0831 18.2127 23.0625 18.1744 23.0423C17.4626 22.6644 16.7704 22.2354 16.1318 21.7431C16.0837 21.7063 16.0352 21.6702 15.9865 21.6344C15.8029 21.4988 15.6257 21.3589 15.4527 21.2102C15.3839 21.1515 15.314 21.0942 15.2435 21.0377C15.1212 20.938 15.0049 20.8327 14.8901 20.7257C14.8265 20.6667 14.7621 20.6084 14.6975 20.5504C14.6777 20.5325 14.6578 20.5146 14.6373 20.4963C14.5952 20.4585 14.553 20.4207 14.5108 20.3829C14.3551 20.2423 14.2037 20.0978 14.055 19.9491C14.0367 19.9308 14.0182 19.9125 13.9994 19.8937C13.8997 19.7938 13.8042 19.6917 13.7118 19.5842C13.6526 19.5162 13.5909 19.4506 13.5292 19.3848C13.4198 19.2673 13.316 19.1466 13.2148 19.0216C13.1668 18.9624 13.1176 18.9046 13.0678 18.8471C12.875 18.6238 12.7022 18.3864 12.5267 18.1499C12.506 18.1222 12.4853 18.0944 12.4648 18.0666C12.3034 17.8492 12.1504 17.6278 11.9992 17.4011C11.9878 17.384 11.9764 17.3668 11.9646 17.3492C11.7352 17.0055 11.5186 16.6521 11.3065 16.2962C11.291 16.2699 11.2755 16.2438 11.2594 16.2168C11.178 16.0781 11.1017 15.9389 11.0311 15.7951C10.9916 15.7159 10.9504 15.6379 10.9087 15.5601C10.0994 14.044 9.50713 12.3914 9.11225 10.7095C9.10528 10.6802 9.09831 10.6512 9.09115 10.6212C8.43302 7.86686 8.43302 7.86686 8.8474 7.13561C9.04045 6.82605 9.33002 6.6798 9.6469 6.52624C10.1246 6.29248 10.5463 5.99974 10.9388 5.64143C10.959 5.623 10.959 5.623 10.9797 5.60413C11.0341 5.55368 11.0836 5.50493 11.1277 5.44521C11.1377 5.43197 11.1478 5.41864 11.1581 5.40523H11.2069C11.2131 5.39122 11.2193 5.3772 11.2256 5.36282C11.259 5.3014 11.298 5.25776 11.3458 5.20682C11.9381 4.55113 12.3086 3.63951 12.4305 2.77176C12.433 2.75421 12.4354 2.73666 12.438 2.71862C12.4502 2.63111 12.4617 2.54361 12.4719 2.45537C12.5133 2.12875 12.6349 1.8265 12.8887 1.60468C13.1934 1.37995 13.5054 1.3585 13.8734 1.35606C13.9066 1.35586 13.9395 1.35566 13.9726 1.35544C14.0631 1.35489 14.1537 1.35447 14.2432 1.35408C14.3412 1.35364 14.4389 1.35306 14.5381 1.35249C14.7083 1.35152 14.8794 1.35064 15.0476 1.34981C15.2962 1.3486 15.5448 1.34725 15.7959 1.34586C16.2054 1.3436 16.6124 1.34142 17.0219 1.33933C17.9068 1.33477 18.7916 1.33004 19.6788 1.32524C19.8185 1.32448 19.9591 1.32373 20.0981 1.32298C21.4046 1.31596 22.7062 1.30725 24.0224 1.29495C24.0629 1.29457 24.0629 1.29457 24.1043 1.29418C24.2277 1.29302 24.3505 1.29185 24.4748 1.29062C24.6784 1.28863 24.8819 1.28708 25.0867 1.28687L25.0819 1.29191ZM24.8779 2.4156C24.8174 2.41592 24.757 2.41625 24.6968 2.41659C24.6629 2.41678 24.629 2.41696 24.5954 2.41714C24.503 2.41764 24.4103 2.41816 24.3175 2.41867C24.238 2.41911 24.1583 2.41954 24.0788 2.41998C23.7937 2.42154 23.506 2.42312 23.2208 2.42471C23.1748 2.42496 23.1287 2.42522 23.0826 2.42547C22.6488 2.42787 22.2173 2.43027 21.7835 2.43271C21.683 2.43327 21.5826 2.43383 21.4812 2.4344C21.4439 2.4346 21.4439 2.4346 21.4056 2.43482C21.0571 2.43676 20.7085 2.43869 20.36 2.44059C17.5812 2.45544 17.5812 2.45544 14.8268 2.47521C14.7374 2.47592 14.6479 2.47659 14.5587 2.47724C14.4232 2.47824 14.2881 2.47936 14.1516 2.48058C14.1031 2.481 14.0546 2.48138 14.0061 2.48172C13.9413 2.48218 13.8767 2.48278 13.8119 2.48343C13.7836 2.48358 13.7836 2.48357 13.7546 2.48373C13.6705 2.47722 13.6705 2.47722 13.6005 2.51249C13.5944 2.54637 13.5897 2.58074 13.5856 2.61511C13.5829 2.63671 13.5801 2.65825 13.5774 2.68068C13.573 2.71602 13.573 2.71602 13.5685 2.75185C13.5113 3.18817 13.4218 3.60498 13.2834 4.02423C13.278 4.04053 13.2727 4.05689 13.2672 4.07371C13.11 4.54658 12.8797 5.0024 12.6018 5.41433C12.5906 5.43103 12.5794 5.44773 12.5679 5.46479C12.2169 5.98885 11.7879 6.47148 11.2785 6.84685C11.2358 6.87854 11.1939 6.91096 11.1522 6.94362C10.8061 7.20931 10.4209 7.4165 10.0285 7.60175C10.0095 7.61091 9.99049 7.6201 9.97074 7.62953C9.94588 7.64128 9.94588 7.64128 9.92029 7.6533C9.86032 7.68937 9.81913 7.72496 9.77501 7.77956C9.73382 7.99747 9.79273 8.24025 9.82522 8.45962C9.82927 8.48717 9.82927 8.48717 9.83339 8.5152C10.1356 10.5676 10.7328 12.5127 12.054 15.3158C12.092 15.3848 12.1293 15.4538 12.1666 15.5233C12.3011 15.7743 12.4396 16.0181 12.5931 16.2569C12.6319 16.3174 12.6699 16.3781 12.7079 16.4388C12.9492 16.8239 13.2052 17.192 13.4806 17.5527C13.5094 17.591 13.5094 17.591 13.5389 17.63C13.6537 17.7814 13.7724 17.9274 13.8948 18.0736C13.9608 18.1509 14.0249 18.2291 14.0873 18.3091C14.1875 18.4356 14.2969 18.5528 14.4066 18.6698C14.4688 18.7361 14.5292 18.8039 14.5897 18.8719C14.6911 18.9852 14.7983 19.0918 14.9066 19.1985C14.9512 19.2439 14.9921 19.2882 15.0314 19.3379C15.093 19.4113 15.1603 19.4701 15.2329 19.532C15.28 19.5732 15.3241 19.6161 15.368 19.6609C15.4572 19.7513 15.552 19.834 15.6483 19.9168C15.6749 19.9402 15.7017 19.9636 15.7282 19.987C16.4351 20.6062 17.1907 21.1497 17.9878 21.647C18.0034 21.6567 18.019 21.6665 18.0348 21.6765C18.3103 21.8488 18.593 22.0007 18.8807 22.1494C18.9421 22.181 19.0033 22.2127 19.0647 22.2444C19.1088 22.2672 19.1532 22.2898 19.1973 22.3122C19.2482 22.3385 19.2989 22.3656 19.3489 22.3936C19.4391 22.4431 19.5025 22.4752 19.6073 22.4801C19.7338 22.4389 19.8471 22.3795 19.9632 22.3163C20.0007 22.2964 20.0007 22.2964 20.039 22.2761C20.2266 22.1757 20.4119 22.0723 20.5947 21.9641C20.6252 21.9466 20.6556 21.9293 20.6861 21.9117C21.4978 21.4437 22.2729 20.905 22.9822 20.2932C23.0771 20.2118 23.0771 20.2118 23.1307 20.185V20.1362C23.1441 20.1305 23.1575 20.1248 23.1714 20.119C23.2433 20.079 23.2959 20.0293 23.3562 19.9732C23.3688 19.9615 23.3813 19.9497 23.3944 19.9376C23.422 19.9118 23.4495 19.8862 23.4771 19.8604C23.5217 19.8187 23.5663 19.7773 23.6111 19.7358C23.792 19.5684 23.9694 19.397 24.1449 19.2239C24.1629 19.2061 24.181 19.1881 24.1993 19.1698C24.2973 19.0716 24.3909 18.9709 24.482 18.8651C24.5413 18.7969 24.6032 18.7316 24.6648 18.6655C24.794 18.5266 24.9159 18.3828 25.0329 18.2341C25.069 18.1904 25.1051 18.1468 25.1411 18.1029C25.965 17.0938 26.6451 15.9823 27.2276 14.8123C27.2488 14.7701 27.27 14.728 27.2915 14.6856C28.1836 12.9062 28.7613 10.9318 29.1757 8.22619C29.1785 8.20612 29.1812 8.18597 29.1841 8.16549C29.1919 8.1087 29.1994 8.0519 29.2068 7.99487C29.2091 7.97815 29.2115 7.96147 29.2139 7.94417C29.2263 7.84496 29.2262 7.75965 29.2016 7.66142C29.1192 7.55855 29.0234 7.5042 28.9066 7.4496C28.8718 7.43278 28.8372 7.41596 28.8026 7.39914C28.7843 7.39034 28.7662 7.38152 28.7475 7.37233C28.4647 7.23437 28.1893 7.08958 27.9358 6.90677C27.9212 6.89629 27.9065 6.8858 27.8917 6.87508C27.4383 6.54602 27.0117 6.18283 26.668 5.73677C26.6565 5.7218 26.6449 5.70679 26.6329 5.69143C26.4803 5.49326 26.3331 5.29412 26.2039 5.07962C26.1808 5.04062 26.1808 5.04062 26.1571 5.00113C25.6964 4.21382 25.4527 3.37775 25.3138 2.4905C25.3083 2.43542 25.3083 2.43542 25.2782 2.41007C25.244 2.40817 25.2099 2.40797 25.1758 2.40844C25.1536 2.40866 25.1314 2.40888 25.1085 2.40911C25.0315 2.41011 24.9545 2.41047 24.8774 2.41076L24.8779 2.4156Z" fill="#000002"/>
<path d="M21.84 3.46125C22.082 3.45987 22.3251 3.45883 22.5664 3.45804C22.7094 3.45756 22.8516 3.45691 22.9954 3.45584C23.128 3.45484 23.2611 3.45431 23.3927 3.45413C23.4409 3.45398 23.4895 3.45367 23.5377 3.45317C23.8473 3.4501 24.1276 3.44871 24.3689 3.67108C24.5485 3.84756 24.6248 4.04158 24.7004 4.27802C24.882 4.8289 25.1391 5.37733 25.4706 5.85265C25.4938 5.88702 25.517 5.92138 25.5401 5.95575C25.6976 6.18658 25.8692 6.40182 26.0544 6.609C26.0658 6.62178 26.0772 6.6346 26.089 6.64776C26.3282 6.91588 26.5765 7.16695 26.8593 7.38876C26.8738 7.40024 26.8883 7.41174 26.9032 7.42362C27.0887 7.57035 27.2761 7.7088 27.476 7.83799C27.7636 8.02397 27.9537 8.16949 28.0634 8.5083C28.1063 8.73621 28.058 8.95924 28.0186 9.18349C28.0154 9.20165 28.0123 9.21981 28.009 9.23858C27.9542 9.55545 27.8889 9.86745 27.8189 10.1819C27.8143 10.2026 27.8098 10.2233 27.8051 10.2445C27.6537 10.9246 27.6537 10.9246 27.4687 11.0708C27.3012 11.1666 27.1445 11.193 26.9544 11.1593C26.8008 11.1157 26.7058 11.0031 26.6156 10.8766C26.4956 10.6182 26.5888 10.333 26.6536 10.0722C26.6794 9.96739 26.7043 9.86258 26.7292 9.75777C26.7341 9.73695 26.7391 9.71608 26.7441 9.69463C26.8095 9.41676 26.8602 9.13645 26.9079 8.8537C26.7792 8.7601 26.6496 8.6665 26.5228 8.57338C26.3066 8.4169 26.1036 8.25651 25.9086 8.0737C25.8732 8.04201 25.8376 8.01057 25.8018 7.97912C25.7865 7.96576 25.7713 7.95231 25.7555 7.93866C25.718 7.90697 25.6792 7.8765 25.6402 7.84652C25.6241 7.83294 25.608 7.81947 25.5915 7.80533V7.75658C25.5673 7.74853 25.5432 7.74049 25.5183 7.7322C25.4842 7.69832 25.4842 7.69832 25.4467 7.65298C25.3823 7.57669 25.316 7.50357 25.2473 7.43117C25.0754 7.24982 24.9231 7.0558 24.7744 6.85592C24.7415 6.81156 24.7081 6.7672 24.675 6.72308C24.4878 6.47202 24.3313 6.20145 24.1777 5.92845C24.1681 5.91171 24.1585 5.89506 24.1485 5.87775C23.9527 5.53407 23.7999 5.16844 23.661 4.79794C23.6543 4.78 23.6475 4.76211 23.6406 4.74358C23.6243 4.69971 23.608 4.65608 23.5917 4.6122C23.1895 4.61142 22.7873 4.61095 22.3827 4.61068C22.3515 4.61066 22.32 4.61064 22.2878 4.61062C21.4469 4.61012 20.606 4.61206 19.7528 4.61764C19.7328 4.61777 19.7129 4.6179 19.6921 4.61804C19.2778 4.62079 18.8634 4.62381 18.4466 4.62703C18.2618 4.62847 18.0761 4.62986 17.8933 4.63125C17.8754 4.63138 17.8574 4.63152 17.8392 4.63165C16.9982 4.63789 16.1573 4.63789 15.3285 4.63658C15.3209 4.66729 15.3133 4.69824 15.3054 4.72993C15.1553 5.33687 14.8374 5.94137 14.4986 6.46543C14.4893 6.47993 14.4801 6.49444 14.4706 6.50931C14.2351 6.87737 13.9733 7.22106 13.6833 7.54524C13.6489 7.58376 13.615 7.62251 13.5809 7.66127C13.3201 7.95377 13.0325 8.22677 12.7205 8.46564C12.6961 8.48478 12.6717 8.50391 12.6464 8.52366C12.4645 8.66601 12.2783 8.79909 12.0857 8.92828C12.1589 9.37434 12.2583 9.80822 12.3709 10.2445C12.3814 10.286 12.3919 10.3274 12.4024 10.3691C12.4098 10.3971 12.4098 10.3971 12.4174 10.4256C12.4698 10.6345 12.4722 10.801 12.3676 10.9936C12.2913 11.1059 12.1885 11.1947 12.0605 11.2446C11.8823 11.2655 11.7119 11.2736 11.5657 11.1598L11.525 11.1228L11.485 11.0903C11.3919 11.0011 11.3556 10.8961 11.3195 10.7759C11.3143 10.7587 11.309 10.7415 11.3036 10.724C11.249 10.5419 11.2037 10.3584 11.1608 10.1731C11.1567 10.1556 11.1526 10.1383 11.1484 10.1202C11.0899 9.86916 11.0351 9.61566 10.9861 9.36216C10.9767 9.31365 10.9672 9.26514 10.9576 9.21664C10.904 8.92901 10.8662 8.63164 11.0183 8.36839C11.1648 8.15901 11.3668 8.01739 11.5789 7.88089C11.7383 7.77656 11.8885 7.66249 12.0371 7.54451C12.061 7.52572 12.0847 7.50698 12.1093 7.48748C12.492 7.17548 12.8405 6.8196 13.133 6.42229C13.1519 6.39925 13.1708 6.37622 13.1903 6.35258C13.6876 5.74076 14.0483 4.97539 14.2775 4.2222C14.363 3.94433 14.4949 3.75664 14.743 3.60308C14.9714 3.50119 15.2183 3.51118 15.4621 3.50679C15.5052 3.50588 15.5486 3.50496 15.5918 3.50404C16.0963 3.4938 16.6009 3.49171 17.1054 3.48978C17.2451 3.48923 17.3858 3.48857 17.5247 3.48793C17.7604 3.48686 17.9951 3.48586 18.2316 3.48493C18.4673 3.48398 18.702 3.48297 18.9384 3.48188C19.5454 3.47908 20.1523 3.47657 20.7593 3.47484C21.1176 3.47381 21.4759 3.47233 21.8342 3.47025L21.84 3.46125Z" fill="#000002"/>
<path d="M26.5931 12.5775C26.7235 12.666 26.8157 12.7659 26.8613 12.9187C26.9056 13.1549 26.8059 13.3648 26.715 13.5769C26.7075 13.5947 26.6999 13.6125 26.6921 13.631C26.5892 13.872 26.4774 14.1087 26.3582 14.3427C26.3262 14.4054 26.2945 14.468 26.2631 14.5307C26.0408 14.9718 25.8048 15.4008 25.5465 15.8201C25.5316 15.8443 25.5167 15.8686 25.5014 15.8935C25.3198 16.1884 25.1284 16.4712 24.9213 16.749C24.8754 16.8112 24.8306 16.8738 24.7855 16.9365C24.6139 17.1717 24.4345 17.3996 24.2468 17.619C24.1851 17.6911 24.1254 17.7647 24.0659 17.8388C23.9923 17.9293 23.916 18.0129 23.8322 18.0948C23.7898 18.1369 23.7513 18.1811 23.7125 18.2266C23.5996 18.3575 23.4758 18.4777 23.3517 18.5971C23.2825 18.6661 23.2135 18.7353 23.1448 18.8048C23.0809 18.8692 23.0171 18.9333 22.9527 18.9974C22.9381 19.012 22.9235 19.0266 22.9084 19.0417C22.8313 19.1163 22.7511 19.1863 22.669 19.2553C22.6407 19.2796 22.6127 19.3043 22.5847 19.3289C22.4128 19.479 22.241 19.6263 22.0606 19.7676C22.0375 19.7857 22.0145 19.8037 21.9906 19.8225C21.4836 20.2173 20.9547 20.5781 20.4063 20.9072C20.3551 20.9381 20.3041 20.9693 20.2532 21.0008C20.221 21.0205 20.1888 21.0402 20.1569 21.06C20.1357 21.0732 20.1357 21.0732 20.114 21.0868C19.9622 21.1792 19.8142 21.2374 19.6363 21.2506C19.6112 21.2528 19.586 21.2549 19.5602 21.2572C19.3835 21.253 19.2336 21.205 19.0776 21.1197C19.0605 21.1105 19.0435 21.1012 19.0259 21.0917C18.5677 20.8382 18.1216 20.5579 17.695 20.2556C17.6638 20.2336 17.6324 20.2117 17.6012 20.1896C17.2575 19.9465 16.9236 19.6923 16.6043 19.4169C16.5321 19.3545 16.5321 19.3545 16.4509 19.305V19.2562C16.4367 19.2499 16.4224 19.2435 16.4078 19.2369C16.3505 19.2059 16.3108 19.1721 16.2637 19.127C16.2471 19.1112 16.2306 19.0953 16.2133 19.0792C16.1961 19.0627 16.1789 19.0463 16.1614 19.0292C16.0495 18.9222 15.9371 18.8179 15.8177 18.7197C15.7597 18.6663 15.7597 18.6663 15.7202 18.6222V18.5734C15.7058 18.5671 15.6914 18.5608 15.6768 18.5543C15.6185 18.5224 15.5832 18.489 15.5381 18.4405C15.5223 18.4235 15.5064 18.4066 15.4903 18.3893C15.4655 18.3622 15.4655 18.3622 15.4399 18.3344C15.4226 18.3158 15.4052 18.2971 15.3875 18.2781C15.3524 18.2403 15.3173 18.2023 15.2822 18.1643C15.2383 18.1168 15.1939 18.0692 15.1496 18.0222C15.0189 17.8828 14.8936 17.7419 14.7742 17.5932C14.7184 17.524 14.6608 17.456 14.6033 17.3882C14.4566 17.2122 14.3206 17.0299 14.1841 16.8446C14.1713 16.8273 14.1585 16.81 14.1453 16.7922C13.9486 16.5265 13.7626 16.2535 13.5871 15.9757C13.5552 15.9257 13.523 15.8757 13.4908 15.826C13.2203 15.4019 12.9643 14.9631 12.7474 14.5097C12.7169 14.4473 12.6855 14.3854 12.6538 14.3235C12.5273 14.0749 12.4052 13.8263 12.2906 13.5703C12.2803 13.5479 12.27 13.5255 12.2594 13.5023C12.1834 13.3285 12.1275 13.1513 12.1899 12.9636C12.2631 12.7996 12.3528 12.676 12.5166 12.598C12.7008 12.5571 12.8724 12.5571 13.0382 12.6529C13.1652 12.765 13.2583 12.8854 13.3258 13.0404C13.3382 13.0687 13.3504 13.097 13.3634 13.126C13.373 13.1484 13.373 13.1484 13.3829 13.1711C13.6252 13.7317 13.9021 14.2704 14.2092 14.7969C14.231 14.8349 14.2528 14.8729 14.2748 14.911C14.4064 15.1394 14.5478 15.3595 14.6964 15.5764C14.7191 15.6098 14.7418 15.6432 14.7645 15.6766C15.1301 16.2104 15.5225 16.7198 15.9588 17.1976C15.9881 17.23 16.0171 17.2624 16.0451 17.2958C16.1838 17.4591 16.3352 17.6102 16.4887 17.7614C16.5363 17.8089 16.5838 17.8564 16.6313 17.9042C16.7788 18.0519 16.9263 18.1967 17.0871 18.3308C17.1142 18.3542 17.141 18.3776 17.1681 18.4012C17.775 18.9253 18.4234 19.3835 19.1034 19.8077C19.1578 19.8415 19.2117 19.8759 19.2658 19.91C19.2987 19.9306 19.3316 19.951 19.3645 19.9715C19.3793 19.981 19.3942 19.9905 19.4094 20.0005C19.4832 20.0485 19.4832 20.0485 19.568 20.0568C19.8362 19.9588 20.0848 19.7667 20.3212 19.6083C20.337 19.5977 20.3529 19.5871 20.3692 19.5761C20.6374 19.3962 20.9006 19.2105 21.1566 19.013C21.172 19.0013 21.1873 18.9895 21.2034 18.9774C21.508 18.7437 21.7981 18.4924 22.0833 18.234C22.1145 18.2062 22.1145 18.2062 22.1462 18.1779C22.3114 18.0293 22.4704 17.8733 22.6264 17.7173C22.647 17.6967 22.6678 17.6761 22.689 17.6549C22.8087 17.5347 22.9228 17.4116 23.0327 17.2819C23.068 17.2427 23.1036 17.2037 23.1395 17.1647C24.1754 16.0142 25.009 14.6297 25.6257 13.2159C25.6376 13.1884 25.6495 13.1608 25.6618 13.1323C25.684 13.0802 25.7059 13.028 25.7276 12.9756C25.801 12.8025 25.8777 12.6587 26.042 12.5612C26.2348 12.4856 26.415 12.4798 26.6002 12.5825L26.5931 12.5775Z" fill="#000002"/>
<path d="M23.3269 8.21447C23.4607 8.30051 23.5467 8.43214 23.5974 8.58253C23.6333 8.84822 23.5285 9.03591 23.379 9.24553C23.2572 9.41786 23.1424 9.5941 23.0256 9.77203C22.9576 9.87563 22.8896 9.97946 22.8213 10.084C22.8081 10.1042 22.7948 10.1245 22.7811 10.1452C22.6449 10.3524 22.5081 10.5596 22.3692 10.7643C22.1549 11.0837 21.9426 11.4054 21.7306 11.7272C21.5324 12.0294 21.3332 12.3292 21.1334 12.629C20.8701 13.0215 20.6093 13.4139 20.3509 13.8088C20.0024 14.3426 20.0024 14.3426 19.8415 14.579C19.8322 14.5929 19.8229 14.6068 19.8132 14.621C19.6857 14.8101 19.567 14.9671 19.333 15.011C19.1502 15.0301 19.0186 14.999 18.8699 14.8898C18.799 14.8303 18.7341 14.7662 18.67 14.6994C18.6249 14.6536 18.5784 14.6117 18.5294 14.5703C18.4468 14.4993 18.3697 14.4238 18.2932 14.3462C18.2198 14.2719 18.146 14.199 18.0663 14.1315C17.9539 14.0357 17.852 13.9299 17.7494 13.8244C17.6619 13.7361 17.5724 13.6523 17.4764 13.5709C17.4006 13.5034 17.3301 13.4305 17.259 13.3583C17.1953 13.2942 17.131 13.2328 17.0623 13.1743C16.9684 13.0943 16.8824 13.0073 16.7966 12.9208C16.7308 12.8543 16.6635 12.7911 16.5921 12.7304C16.4217 12.5842 16.2776 12.4257 16.2557 12.1917C16.2609 12.0231 16.3432 11.8554 16.4636 11.7384C16.5916 11.635 16.7366 11.5965 16.8999 11.605C17.0479 11.6299 17.1461 11.7001 17.2558 11.7971C17.2749 11.8135 17.2938 11.83 17.3136 11.8468C17.4428 11.9607 17.5646 12.0808 17.6865 12.2027C17.7357 12.2512 17.7857 12.2968 17.8384 12.3416C17.9424 12.4304 18.0375 12.5274 18.1333 12.6244C18.2001 12.6941 18.2001 12.6941 18.2805 12.7463V12.795C18.2949 12.8014 18.3093 12.8079 18.3242 12.8145C18.3805 12.8449 18.4163 12.8766 18.4607 12.9225C18.4758 12.9379 18.4911 12.9534 18.5067 12.9693C18.5226 12.9856 18.5384 13.0019 18.5547 13.0187C18.6656 13.1313 18.7758 13.2432 18.896 13.3454C18.9262 13.3707 18.9557 13.3968 18.9845 13.4236C18.9997 13.4374 19.0149 13.4514 19.0305 13.4655C19.0504 13.484 19.0504 13.484 19.0705 13.5028C19.0829 13.5106 19.0954 13.5184 19.1081 13.5264C19.199 13.4962 19.2073 13.4701 19.2558 13.3895C19.3247 13.2771 19.3957 13.1667 19.469 13.058C19.4875 13.0304 19.5059 13.0029 19.5244 12.9753C19.5403 12.9515 19.5403 12.9515 19.5566 12.9273C19.6058 12.8537 19.6548 12.7803 19.7038 12.7067C19.7896 12.578 19.8754 12.4483 19.9622 12.3216C20.0207 12.2338 20.0794 12.1461 20.1379 12.0583C20.1679 12.0135 20.1979 11.9686 20.2276 11.9238C20.3853 11.6878 20.542 11.4509 20.6956 11.212C20.7665 11.1016 20.8397 10.9924 20.9125 10.883C20.924 10.8658 20.9355 10.8486 20.9474 10.8311C20.9601 10.8121 20.9727 10.793 20.9859 10.7735C21.2662 10.3543 21.5441 9.93259 21.822 9.5109C21.8468 9.47312 21.8717 9.4351 21.8966 9.39732C21.9085 9.37908 21.9205 9.36075 21.9329 9.34198C22.0162 9.21523 22.1003 9.08848 22.1839 8.96173C22.2281 8.89519 22.2714 8.82816 22.3146 8.76113C22.3285 8.73975 22.3424 8.71847 22.3568 8.69629C22.3848 8.65315 22.4126 8.60976 22.4401 8.56637C22.6419 8.25681 22.9422 8.02525 23.3225 8.2105L23.3269 8.21447Z" fill="#000002"/>
<path d="M4.85063 30.9075C5.32594 31.2829 5.60138 31.7606 5.6745 32.3627C5.70351 32.7283 5.62989 33.0769 5.4795 33.4108C5.46958 33.433 5.45963 33.4552 5.44952 33.4781C5.21966 33.9412 4.80358 34.2629 4.32583 34.4409C3.81152 34.6076 3.26552 34.6032 2.77558 34.3617C2.25883 34.0789 1.89321 33.6523 1.71771 33.0893C1.58267 32.6188 1.62264 32.0923 1.85031 31.656C1.85996 31.6357 1.86959 31.6153 1.87956 31.5944C2.09796 31.1581 2.49137 30.8046 2.95206 30.6413C3.61018 30.4249 4.28781 30.4992 4.85331 30.907L4.85063 30.9075ZM2.93962 32.0092C2.78679 32.2132 2.75559 32.4285 2.77314 32.6771C2.82019 32.9026 2.94133 33.1305 3.13389 33.2597C3.38496 33.4101 3.64577 33.462 3.93827 33.3918C3.99238 33.3688 4.03942 33.3433 4.08842 33.3109C4.10533 33.3 4.1223 33.289 4.13961 33.2777C4.35533 33.1271 4.48329 32.9486 4.53936 32.6903C4.57592 32.4246 4.50986 32.1881 4.35557 31.9712C4.18519 31.7803 3.98263 31.6714 3.72913 31.6495C3.39763 31.641 3.15388 31.7606 2.93938 32.0102L2.93962 32.0092Z" fill="#000002"/>
</g>
<defs>
<clipPath id="clip0_94_2">
<rect width="39" height="39" fill="white"/>
</clipPath>
</defs>
</svg>
