<svg width="38" height="38" viewBox="0 0 38 38" fill="none" xmlns="http://www.w3.org/2000/svg">
<g clip-path="url(#clip0_96_15)">
<path d="M26.9088 0.194059C26.951 0.198975 26.951 0.198975 26.9943 0.203987C27.3173 0.242224 27.6403 0.287587 27.9609 0.333662C28.0293 0.343447 28.0977 0.35316 28.1661 0.362874C28.3273 0.385793 28.4891 0.408712 28.6506 0.431987C28.8161 0.455665 28.9807 0.479249 29.147 0.502524C29.2904 0.522807 29.4343 0.543137 29.5768 0.563799C29.6619 0.575959 29.7471 0.588024 29.831 0.600137C29.9255 0.61346 30.02 0.626974 30.1136 0.640749C30.1411 0.644597 30.1687 0.648444 30.1972 0.65241C30.7078 0.726748 30.7078 0.726748 30.8741 0.901785C31.0949 1.22479 31.0142 1.58341 30.9593 1.94679C30.9487 2.01732 30.9384 2.08762 30.9282 2.15816C30.9028 2.3332 30.8769 2.50729 30.8508 2.68304C30.8288 2.83124 30.8071 2.97991 30.7855 3.12716C30.7754 3.1958 30.7651 3.26444 30.7546 3.33307C30.6643 3.84845 30.6643 3.84845 30.8147 4.3282C30.9351 4.46927 31.0462 4.54076 31.2303 4.57045C31.5414 4.59037 31.7647 4.41085 31.9974 4.2237C32.1026 4.13986 32.2107 4.05959 32.3181 3.97907C32.3591 3.9482 32.4002 3.91756 32.4413 3.88669C32.4613 3.8717 32.4815 3.85676 32.5021 3.84132C32.5869 3.77791 32.6715 3.7145 32.7562 3.65109C32.7871 3.62802 32.8178 3.60501 32.8486 3.58197C32.9111 3.53519 32.9736 3.48816 33.0358 3.44137C33.1149 3.382 33.194 3.32262 33.273 3.26349C33.3049 3.23974 33.3367 3.21575 33.3685 3.19176C33.4158 3.15614 33.463 3.12099 33.5103 3.0856C33.5242 3.07503 33.5381 3.06446 33.5526 3.05354C33.7708 2.8918 33.9468 2.83789 34.2223 2.87185C34.4577 2.94809 34.6095 3.15922 34.7472 3.35397C34.8565 3.50835 34.9688 3.66035 35.0845 3.8076C35.1856 3.93656 35.2849 4.06647 35.3813 4.19947C35.4542 4.29994 35.5288 4.39897 35.6036 4.49872C35.7229 4.65737 35.8411 4.81697 35.9575 4.9761C36.0675 5.12596 36.1798 5.27297 36.2948 5.42022C36.4327 5.59621 36.5631 5.77647 36.6938 5.95935C36.7099 5.9816 36.7261 6.00376 36.7427 6.0268C36.8835 6.22179 36.9617 6.3783 36.9313 6.6253C36.86 6.88892 36.6486 7.05517 36.4373 7.20955C36.4154 7.22596 36.3936 7.24232 36.371 7.25919C36.3043 7.30906 36.2373 7.35894 36.1701 7.40834L36.1109 7.45204C36.0371 7.50642 35.9632 7.56105 35.8891 7.6152C35.7267 7.73442 35.5661 7.85745 35.407 7.97857C35.3039 8.05742 35.2001 8.13556 35.0959 8.2118C35.0657 8.23374 35.0657 8.23374 35.0348 8.25621C34.9971 8.28352 34.9595 8.3106 34.9215 8.33744C34.7327 8.474 34.5463 8.62244 34.4845 8.85756C34.456 9.05967 34.4959 9.23756 34.6137 9.40381C34.7911 9.60426 35.0697 9.63371 35.3215 9.66744C35.3661 9.67378 35.3661 9.67378 35.4115 9.68024C35.4749 9.68921 35.5383 9.6981 35.6017 9.70684C35.7008 9.72045 35.7998 9.73439 35.8986 9.74864C36.1717 9.78735 36.4425 9.82511 36.7156 9.86264C36.8051 9.87506 36.8947 9.88757 36.984 9.9004C37.0434 9.90871 37.103 9.91669 37.1623 9.92463C37.4473 9.96405 37.711 10.0168 37.8938 10.2571C38.0625 10.5231 37.9905 10.8295 37.9423 11.1216C37.9222 11.2428 37.9033 11.3639 37.8841 11.485C37.88 11.5106 37.8759 11.5363 37.8717 11.5627C37.8292 11.831 37.7907 12.0994 37.7525 12.3702C37.7407 12.4533 37.7289 12.5366 37.7169 12.6195C37.6794 12.8808 37.6423 13.1444 37.606 13.4057C37.5893 13.5258 37.5722 13.6455 37.5554 13.7667C37.5474 13.8237 37.5394 13.8809 37.5317 13.9379C37.5208 14.0172 37.5096 14.0965 37.4984 14.1754C37.4953 14.1985 37.4923 14.2217 37.4891 14.2455C37.4566 14.469 37.3934 14.6896 37.216 14.8416C37.0585 14.943 36.9144 14.9665 36.7291 14.9544C36.7028 14.9527 36.7028 14.9527 36.6759 14.9511C36.4721 14.9366 36.2698 14.9071 36.0679 14.877C35.9981 14.8665 35.9283 14.8563 35.8584 14.8461C35.6853 14.8209 35.5117 14.7953 35.3383 14.7696C35.1911 14.7478 35.0438 14.7261 34.8966 14.7048C34.8282 14.6948 34.76 14.6845 34.6916 14.6744C34.2356 14.5934 34.2356 14.5934 33.8176 14.7466C33.6796 14.8639 33.6067 14.9959 33.5801 15.1741C33.5581 15.5089 33.7929 15.7654 33.9886 16.0101C34.0791 16.1236 34.1653 16.2397 34.2499 16.3568C34.3415 16.4822 34.4337 16.6062 34.5301 16.7297C34.6705 16.9111 34.8056 17.0954 34.941 17.2807C34.978 17.3313 35.0151 17.3816 35.0524 17.432C35.0736 17.461 35.0946 17.4899 35.116 17.5191C35.1342 17.5441 35.1524 17.5688 35.1711 17.5944C35.283 17.7678 35.3165 17.9151 35.2896 18.1193C35.2077 18.3829 34.9904 18.5468 34.7743 18.7012C34.7346 18.7299 34.6949 18.7587 34.655 18.7876C34.6242 18.81 34.6242 18.81 34.5928 18.8328C34.4838 18.9126 34.3767 18.9947 34.2698 19.0774C34.2275 19.1097 34.1855 19.142 34.1432 19.174C34.1237 19.189 34.1043 19.204 34.0841 19.2192C33.9392 19.3298 33.792 19.4391 33.6471 19.5469C33.3787 19.7436 33.1151 19.9435 32.8491 20.1454C32.7617 20.2122 32.674 20.2784 32.5855 20.344C32.5239 20.3898 32.4627 20.4361 32.4014 20.4824C32.3615 20.5124 32.3218 20.5423 32.2819 20.572C32.2635 20.586 32.2451 20.6 32.2261 20.6145C32.0109 20.7748 31.801 20.9019 31.5255 20.8686C31.1906 20.7924 31.0077 20.4625 30.8225 20.2012C30.746 20.0958 30.6665 19.9927 30.5871 19.8901C30.4667 19.7329 30.3473 19.5742 30.2309 19.4151C30.1088 19.2486 29.9839 19.0826 29.8604 18.9187C29.8444 18.8977 29.8283 18.8767 29.8117 18.8548C29.7822 18.8161 29.7526 18.7777 29.7229 18.7389C29.6925 18.6995 29.6625 18.6601 29.6326 18.6204C29.5899 18.571 29.5509 18.5394 29.4951 18.506C29.4794 18.4963 29.4638 18.4866 29.4476 18.4767C29.2913 18.3974 29.0724 18.3967 28.9085 18.4497C28.7337 18.5404 28.6306 18.6641 28.5617 18.8487C28.5304 18.9498 28.5166 19.0532 28.5016 19.1574C28.498 19.1819 28.4943 19.2066 28.4905 19.2318C28.4786 19.312 28.4669 19.3925 28.4551 19.474C28.4469 19.5301 28.4385 19.5861 28.4302 19.6419C28.3879 19.9269 28.3473 20.2119 28.3074 20.4969C28.3018 20.5366 28.3018 20.5366 28.2961 20.5772C28.2784 20.7035 28.261 20.8289 28.2437 20.9572C28.2373 21.003 28.2309 21.0489 28.2246 21.0945C28.2219 21.1147 28.2192 21.1348 28.2165 21.1557C28.1794 21.417 28.1163 21.645 27.903 21.8184C27.6776 21.964 27.4209 21.9245 27.1691 21.8863C27.1442 21.8826 27.119 21.8789 27.0933 21.8751C27.0392 21.8671 26.985 21.859 26.9307 21.8509C26.7836 21.8288 26.6362 21.8072 26.4889 21.7855C26.4585 21.781 26.4279 21.7765 26.3965 21.7719C26.102 21.7287 25.8099 21.6873 25.5154 21.6465C25.3475 21.6231 25.1805 21.5995 25.0119 21.5757C24.8753 21.5565 24.7388 21.5375 24.601 21.5187C24.4706 21.5008 24.3398 21.4826 24.2091 21.4641C24.1612 21.4573 24.1132 21.4507 24.0652 21.4443C23.5047 21.3687 23.5047 21.3687 23.3408 21.1901C23.3242 21.1652 23.3076 21.1403 23.2905 21.1144C23.2812 21.1019 23.2719 21.0894 23.2625 21.0764C23.1 20.8199 23.2083 20.4019 23.2511 20.1192C23.2568 20.0796 23.2626 20.0399 23.2683 20.0003C23.2832 19.8969 23.2984 19.7936 23.3139 19.6891C23.3294 19.5846 23.3445 19.4801 23.3597 19.3756C23.3796 19.2395 23.3994 19.1025 23.4196 18.9671C23.432 18.8831 23.4445 18.7987 23.4569 18.7154C23.4592 18.6994 23.4616 18.6833 23.464 18.6669C23.4707 18.6213 23.4773 18.5757 23.4839 18.5301C23.4877 18.5042 23.4914 18.4786 23.4953 18.452C23.5247 18.2278 23.5435 17.9889 23.4223 17.7894C23.3024 17.6331 23.1635 17.5471 22.9687 17.5186C22.6766 17.4997 22.4557 17.6808 22.2372 17.8535C22.1615 17.9126 22.084 17.9696 22.0071 18.0273C21.9743 18.0518 21.9415 18.0765 21.9088 18.101C21.8931 18.1127 21.8774 18.1245 21.8613 18.1366C21.8226 18.1656 21.7841 18.1948 21.7454 18.2238C21.5808 18.3475 21.4152 18.4708 21.249 18.5919C21.1359 18.675 21.0241 18.7593 20.9141 18.846C20.3774 19.2593 20.3774 19.2593 20.014 19.2165C19.7575 19.1512 19.6126 18.9339 19.463 18.732C19.4316 18.6895 19.4001 18.6472 19.3687 18.6047C19.3533 18.5838 19.3378 18.5629 19.3219 18.5413C19.2585 18.4556 19.1946 18.3703 19.1305 18.2848C19.1075 18.2542 19.0844 18.2235 19.0614 18.1926C19.0444 18.1701 19.0444 18.1701 19.0272 18.147C18.6994 17.71 18.3717 17.273 18.0463 16.8384C18.0313 16.8184 18.0164 16.7985 18.0009 16.7779C17.971 16.738 17.9411 16.6981 17.9114 16.6582C17.8421 16.5655 17.7725 16.4731 17.7024 16.3803C17.2464 15.7794 17.2464 15.7794 17.2844 15.4635C17.3689 15.1572 17.6288 14.9909 17.871 14.8152C17.9663 14.746 18.061 14.6762 18.156 14.6064C18.1753 14.5923 18.1945 14.5781 18.2142 14.5636C18.3458 14.4667 18.4755 14.3679 18.6037 14.2668C18.7027 14.1905 18.8039 14.1169 18.9053 14.0428C18.9633 14.0001 19.0212 13.9575 19.0792 13.9148C19.1174 13.8865 19.1559 13.8583 19.1944 13.8302C19.2492 13.7901 19.3036 13.7495 19.3582 13.7089C19.3746 13.697 19.3908 13.6852 19.4076 13.673C19.5559 13.5614 19.695 13.4189 19.7306 13.2313C19.7561 12.9914 19.7062 12.8299 19.5585 12.6399C19.2806 12.425 18.8697 12.4164 18.5325 12.3691C18.474 12.361 18.4156 12.3528 18.3572 12.3444C18.2332 12.3269 18.1102 12.3095 17.9843 12.2922C17.8404 12.272 17.6969 12.2518 17.5521 12.2314C17.4953 12.2234 17.4385 12.2155 17.3818 12.2076C16.5268 12.0877 16.5268 12.0877 16.3439 11.8561C16.1632 11.5901 16.2394 11.2529 16.2831 10.9536C16.2879 10.9194 16.2927 10.8852 16.2975 10.851C16.3104 10.7591 16.3236 10.6672 16.3369 10.5755C16.3508 10.4789 16.3645 10.382 16.3782 10.2858C16.4013 10.1233 16.4246 9.96042 16.4478 9.79892C16.4747 9.61177 16.5013 9.42367 16.5276 9.23842C16.5533 9.05744 16.5789 8.87742 16.6048 8.69454C16.6157 8.61807 16.6266 8.54135 16.6374 8.46488C16.6501 8.37439 16.663 8.28414 16.6761 8.19413C16.6808 8.16112 16.6855 8.12834 16.6901 8.09533C16.7792 7.4612 16.7792 7.4612 17.0226 7.24745C17.2767 7.0603 17.6021 7.13773 17.8942 7.18095C17.9346 7.1867 17.975 7.19242 18.0154 7.19812C18.1213 7.21313 18.2272 7.22852 18.3336 7.24396C18.4398 7.2594 18.5459 7.2746 18.6519 7.28956C18.8136 7.31262 18.9749 7.33587 19.1364 7.35915C19.3112 7.38432 19.4855 7.40926 19.6612 7.43349C19.6811 7.43627 19.7011 7.43907 19.7216 7.44194C20.0018 7.48018 20.1918 7.47282 20.4364 7.3277C20.5694 7.18734 20.6433 6.9952 20.6385 6.80283C20.6103 6.56058 20.4428 6.3682 20.2989 6.18058C20.2892 6.16775 20.2794 6.15493 20.2695 6.14163C20.2213 6.07822 20.1726 6.01528 20.1236 5.95234C19.9329 5.70534 19.7484 5.45359 19.5655 5.20422C19.4845 5.09425 19.4026 4.98548 19.3185 4.87884C18.9171 4.36109 18.9171 4.36109 18.9219 4.08559C18.9221 4.05994 18.9223 4.03429 18.9225 4.00793C18.9228 3.98843 18.923 3.96898 18.9233 3.94879C16.7288 4.07918 14.672 4.60192 12.867 5.88917C12.8252 5.91885 12.783 5.94807 12.7407 5.97752C12.4581 6.17512 12.1873 6.39314 11.9332 6.62589C11.8786 6.676 11.8232 6.72517 11.7676 6.77433C11.6361 6.89284 11.5111 7.01658 11.3853 7.14245C11.348 7.17974 11.3107 7.21703 11.2732 7.25432C11.1442 7.38328 11.019 7.51319 10.9003 7.65332C10.8784 7.67873 10.8564 7.70414 10.8345 7.72932C10.6911 7.89675 10.5543 8.06894 10.426 8.24707C10.4153 8.26174 10.4047 8.27652 10.3937 8.29148C10.1087 8.68335 9.85458 9.09186 9.62658 9.51935C9.59666 9.57541 9.56602 9.63122 9.53562 9.68679C9.37056 9.99079 9.23162 10.3043 9.09624 10.6225C9.08838 10.6411 9.08052 10.6596 9.0725 10.6788C8.83025 11.256 8.65924 11.864 8.52625 12.4743C8.52142 12.4956 8.5166 12.5168 8.51162 12.5389C8.38337 13.1113 8.32257 13.7169 8.31259 14.3036L8.31073 14.3826C8.28843 15.4324 8.41072 16.4726 8.69311 17.4939L8.71479 17.5737C8.82974 17.9941 8.97842 18.3978 9.14467 18.7992C9.15196 18.8172 9.15928 18.8351 9.16678 18.8536C9.36937 19.3523 9.62041 19.844 9.91728 20.2905C9.95386 20.346 9.98877 20.4026 10.0237 20.4591C10.1595 20.68 10.3016 20.8866 10.4678 21.0885C10.5201 21.1533 10.5704 21.2198 10.621 21.2861C10.7872 21.5024 10.9559 21.7064 11.1506 21.8988C11.1995 21.9477 11.2451 21.9969 11.2898 22.0496C11.476 22.2667 11.6817 22.4652 11.9073 22.6434C11.9766 22.6999 12.0412 22.7602 12.1063 22.8217C12.3557 23.0533 12.6359 23.2421 12.9162 23.4345C13.2273 23.6451 13.5289 23.8667 13.8234 24.0971L13.8914 24.1482L13.9422 24.1921V24.2396L13.9811 24.2546C14.0583 24.2993 14.113 24.3613 14.1721 24.4266C14.1847 24.4405 14.1973 24.4544 14.2103 24.4686C15.0962 25.4566 15.2981 26.6275 15.3005 27.9124C15.3006 27.9986 15.301 28.0848 15.3014 28.1713C15.3027 28.4159 15.3038 28.6605 15.3042 28.9051C15.3044 29.0559 15.3051 29.2068 15.3061 29.3564C15.3064 29.4134 15.3065 29.4704 15.3065 29.5274C15.2992 29.9359 15.2992 29.9359 15.4153 30.3206C15.4242 30.34 15.4332 30.3593 15.4423 30.3793C15.5882 30.6809 15.8603 30.897 16.1715 31.0087C16.3292 31.0569 16.4897 31.0612 16.6536 31.0609C16.6856 31.061 16.6856 31.061 16.7187 31.0611C16.7901 31.0613 16.8619 31.0614 16.9334 31.0614C16.9849 31.0615 17.0362 31.0616 17.0877 31.0618C17.2274 31.0621 17.368 31.0622 17.5057 31.0623C17.5931 31.0624 17.6803 31.0625 17.767 31.0626C18.0401 31.0629 18.3132 31.0632 18.5864 31.0633C18.9022 31.0634 19.2157 31.0638 19.5316 31.0645C19.7762 31.065 20.0185 31.0652 20.2631 31.0652C20.4087 31.0653 20.5552 31.0654 20.7001 31.0658C20.8371 31.0662 20.9732 31.0663 21.111 31.0661C21.1611 31.0661 21.2112 31.0662 21.2611 31.0664C21.7242 31.0684 22.1351 31.031 22.4913 30.7006C22.8642 30.2945 22.8571 29.8646 22.8571 29.3374C22.8574 29.2761 22.8577 29.2148 22.858 29.1536C22.859 28.9764 22.8594 28.7997 22.8598 28.6216C22.8604 28.3817 22.8614 28.1418 22.8626 27.8996C22.863 27.8107 22.8631 27.7219 22.8632 27.6336C22.8673 26.2869 23.2859 25.1398 24.2478 24.1898C24.3813 24.0599 24.5209 23.9476 24.6753 23.8407C24.7085 23.8167 24.7416 23.7925 24.7746 23.7685C24.9475 23.6424 25.1213 23.5191 25.2994 23.398C25.5607 23.2208 25.8029 23.0251 26.0381 22.8161C26.1029 22.7594 26.1625 22.7095 26.2428 22.6765C26.2598 22.6966 26.2768 22.7168 26.2943 22.7375C26.4231 22.8893 26.5532 23.0391 26.6886 23.184C26.7015 23.1979 26.7145 23.2118 26.7278 23.226C26.7525 23.2524 26.7772 23.279 26.8019 23.3054C26.847 23.3536 26.8919 23.402 26.9363 23.451C26.9487 23.4645 26.961 23.478 26.9738 23.492C27.0052 23.5362 27.0156 23.5733 27.0254 23.6262C26.6382 23.9872 26.2202 24.3007 25.7856 24.6024C25.0019 25.1486 24.3654 25.7899 24.1872 26.7731C24.1312 27.1341 24.1169 27.4904 24.1179 27.8537C24.1181 27.9447 24.1178 28.0357 24.1175 28.1269C24.1167 28.3525 24.1165 28.5781 24.1165 28.8037C24.1166 28.9954 24.1163 29.1861 24.1154 29.3785C24.1151 29.4673 24.1154 29.5561 24.1157 29.6445C24.1151 30.0744 24.0649 30.4496 23.8894 30.8462C23.8789 30.87 23.8684 30.894 23.8576 30.9184C23.7716 31.1023 23.66 31.2581 23.5322 31.4172C23.5178 31.4353 23.5034 31.4533 23.4885 31.472C23.4569 31.5103 23.4234 31.5471 23.3897 31.5834H23.3422C23.3343 31.6069 23.3265 31.6305 23.3184 31.6547C23.2702 31.696 23.2222 31.7342 23.1714 31.772C23.158 31.7822 23.1446 31.7924 23.1308 31.8029C23.0674 31.8509 23.0066 31.8938 22.9368 31.9323C22.8617 31.9801 22.8617 31.9801 22.8494 32.0553C22.8494 32.0819 22.8494 32.1085 22.8494 32.1359C22.8491 32.1665 22.8488 32.1971 22.8484 32.2285C22.8488 32.2624 22.8492 32.2962 22.8495 32.3301C22.8494 32.3658 22.8492 32.4016 22.849 32.4372C22.8486 32.5142 22.8487 32.5911 22.8491 32.6681C22.8498 32.7899 22.8495 32.9127 22.8491 33.0338C22.8485 33.2269 22.8486 33.421 22.849 33.6133C22.8497 33.9577 22.8492 34.3045 22.8485 34.6488C22.8482 34.7697 22.8483 34.8911 22.8486 35.0122C22.8488 35.088 22.8487 35.1637 22.8487 35.2395C22.8487 35.2742 22.8488 35.3091 22.849 35.3438C22.8527 36.0824 22.6238 36.7094 22.1317 37.2604C21.8443 37.5478 21.4905 37.7591 21.1057 37.885C21.0894 37.8905 21.0729 37.8959 21.0561 37.9016C20.6476 38.026 20.2296 38.0315 19.8068 38.0313C19.7482 38.0314 19.6895 38.0316 19.6308 38.0318C19.5085 38.0321 19.3862 38.0322 19.2651 38.032C19.1102 38.0319 18.9563 38.0326 18.7996 38.0336C18.6787 38.0342 18.5573 38.0343 18.4362 38.0342C18.3792 38.0342 18.3222 38.0344 18.265 38.0349C17.7092 38.0386 17.1464 37.9731 16.6452 37.719C16.6292 37.7109 16.6132 37.7028 16.5965 37.6945C16.4462 37.6159 16.321 37.5164 16.1952 37.4024C16.1755 37.3861 16.1557 37.3699 16.1356 37.353C15.7461 37.0229 15.5204 36.6049 15.3874 36.1204C15.3758 36.085 15.3758 36.085 15.3639 36.0487C15.3299 35.9294 15.3225 35.8088 15.3133 35.6853C15.3112 35.6584 15.3092 35.6316 15.3072 35.6038C15.2859 35.2879 15.2883 34.9697 15.291 34.6514C15.2919 34.5412 15.2921 34.4313 15.2923 34.3213C15.2923 34.2931 15.2923 34.2931 15.2924 34.2643C15.2924 34.2261 15.2925 34.1876 15.2925 34.1494C15.2929 33.8929 15.2936 33.6387 15.2959 33.3846C15.2975 33.2108 15.2982 33.0379 15.2977 32.8621C15.2976 32.7707 15.2978 32.679 15.2993 32.5866C15.3006 32.5009 15.3007 32.4154 15.2999 32.3301C15.2998 32.284 15.301 32.2377 15.3022 32.1917C15.3007 32.1078 15.2969 32.0427 15.2687 31.9639C15.1898 31.8893 15.1039 31.8459 15.0074 31.7976C14.9474 31.752 14.8927 31.7026 14.8383 31.6506C14.8243 31.6374 14.8103 31.624 14.7958 31.6105C14.4966 31.3207 14.2852 30.9574 14.1522 30.5631C14.1452 30.5434 14.1381 30.5237 14.1309 30.5033C13.9772 30.0211 14.0276 29.4654 14.0302 28.9643C14.0307 28.8631 14.0309 28.7617 14.0311 28.6603C14.0316 28.4629 14.0324 28.266 14.0334 28.0689C13.9567 28.1026 13.9066 28.143 13.8482 28.2028C13.8308 28.2205 13.8135 28.2382 13.7955 28.2565C13.7769 28.2756 13.7584 28.2948 13.7392 28.3145C13.6993 28.3548 13.6594 28.3955 13.6197 28.4358C13.5573 28.4995 13.4948 28.5634 13.4323 28.6273C13.372 28.689 13.3114 28.7505 13.2509 28.8118C13.2233 28.8403 13.2233 28.8403 13.1953 28.8693C13.0307 29.0353 12.8604 29.1638 12.6182 29.1685C12.4201 29.1661 12.2786 29.1046 12.1171 28.9904C12.0963 28.9757 12.0755 28.9609 12.0541 28.9457C12.0328 28.9306 12.0114 28.9153 11.9895 28.8997C11.9482 28.8707 11.9066 28.8417 11.8653 28.8127C11.8335 28.7906 11.8335 28.7906 11.8009 28.7679C11.5687 28.6061 11.3354 28.4449 11.1003 28.2857C10.9569 28.1881 10.8129 28.0898 10.6728 27.9912C10.6142 27.9516 10.5543 27.915 10.4933 27.8789C10.4896 27.9053 10.4896 27.9053 10.4858 27.9319C10.453 28.1561 10.4089 28.3784 10.3621 28.5992C10.3561 28.6277 10.3561 28.6277 10.35 28.6569C10.3288 28.7576 10.3077 28.8583 10.2863 28.9586C10.2645 29.0616 10.2431 29.165 10.2217 29.2673C10.205 29.3476 10.188 29.4276 10.1711 29.5072C10.1631 29.5452 10.1552 29.5832 10.1474 29.6214C10.0859 29.9207 10.0225 30.1914 9.75788 30.3696C9.57476 30.4553 9.35175 30.4444 9.15463 30.4444C9.119 30.4445 9.119 30.4445 9.08266 30.4446C9.00476 30.4448 8.92686 30.4449 8.84896 30.4449C8.79458 30.445 8.73995 30.4451 8.68556 30.4451C8.57156 30.4453 8.45756 30.4453 8.34356 30.4453C8.19798 30.4453 8.05144 30.4456 7.90656 30.4461C7.79399 30.4463 7.68165 30.4464 7.56931 30.4463C7.51564 30.4464 7.46196 30.4465 7.40829 30.4467C7.333 30.4469 7.25771 30.4468 7.18266 30.4467C7.16077 30.4468 7.13896 30.447 7.11616 30.4471C6.93424 30.4462 6.73379 30.4368 6.57941 30.3312C6.5631 30.3206 6.54688 30.31 6.53001 30.2991C6.40414 30.1782 6.34239 30.0308 6.30273 29.8621C6.29793 29.843 6.29313 29.8239 6.28819 29.8039C6.22145 29.5308 6.16635 29.2553 6.1103 28.9798C6.09907 28.925 6.08784 28.8703 6.07658 28.8155C6.06014 28.7354 6.0438 28.6554 6.02742 28.5756C5.98134 28.35 5.93408 28.1243 5.88634 27.8987C5.8063 27.9282 5.7398 27.9614 5.67045 28.0111C5.65209 28.0241 5.63364 28.0372 5.61488 28.0505C5.59524 28.0646 5.57569 28.0787 5.55527 28.0932C5.51252 28.1234 5.46977 28.1538 5.42702 28.184L5.36004 28.2315C5.25079 28.3082 5.14035 28.3835 5.02992 28.4585C4.98622 28.4882 4.94252 28.5179 4.89882 28.5476C4.86675 28.5693 4.86675 28.5693 4.83398 28.5915C4.75133 28.6478 4.66868 28.7046 4.58698 28.7613C3.93385 29.2102 3.93385 29.2102 3.60373 29.1484C3.29735 29.0523 3.04798 28.7257 2.82948 28.5072C2.79124 28.4692 2.75324 28.4312 2.715 28.3932C2.63544 28.3139 2.55588 28.2343 2.4775 28.1557C2.37609 28.0543 2.27444 27.9529 2.1735 27.8517C2.09489 27.7733 2.01628 27.6947 1.93766 27.6163C1.90038 27.579 1.86285 27.5415 1.82533 27.5045C1.27433 26.9582 1.27433 26.9582 1.27195 26.6708C1.27846 26.3573 1.499 26.1056 1.6757 25.861C1.83316 25.6422 1.98208 25.4168 2.13408 25.1936C2.22124 25.0651 2.30935 24.9371 2.3977 24.8088C2.40932 24.7919 2.42095 24.7749 2.43285 24.7575C2.44285 24.743 2.45283 24.7286 2.46301 24.7136C2.4984 24.6599 2.53118 24.6046 2.56419 24.5493C2.54137 24.545 2.51859 24.5408 2.49508 24.5365C2.16495 24.4752 1.83483 24.4075 1.5047 24.3389C1.40804 24.3187 1.31114 24.2988 1.21495 24.279C1.11995 24.2597 1.02519 24.2401 0.929954 24.2201C0.894329 24.2127 0.858466 24.2054 0.822841 24.1982C0.521216 24.1374 0.278966 24.069 0.0889655 23.8134C-0.0046095 23.6553 -0.00888461 23.5142 -0.00912211 23.3361C-0.00935795 23.3099 -0.00959595 23.2836 -0.0098382 23.2567C-0.0105317 23.1703 -0.0108531 23.0836 -0.0111167 22.9979C-0.0113899 22.9375 -0.0116641 22.8772 -0.0119372 22.8169C-0.0123718 22.7064 -0.0126708 22.596 -0.0128157 22.4868C-0.013028 22.325 -0.013859 22.1638 -0.0152365 22.0023C-0.0163931 21.8617 -0.0167561 21.722 -0.0168368 21.5795C-0.01698 21.5199 -0.0173579 21.4603 -0.0179849 21.4009C-0.0239936 20.7834 -0.0239936 20.7834 0.177953 20.5388C0.366528 20.3521 0.676703 20.3177 0.923703 20.2657C0.957666 20.2585 0.991626 20.2514 1.02535 20.2442C1.11394 20.2255 1.20277 20.2072 1.29135 20.1886C1.38065 20.1701 1.46995 20.1513 1.55973 20.1323C2.0656 20.0262 2.0656 20.0262 2.2366 19.9927C2.25296 19.9895 2.26938 19.9863 2.28624 19.983C2.33184 19.9741 2.3772 19.9652 2.4228 19.9564C2.49049 19.9446 2.49049 19.9446 2.53989 19.9174C2.39763 19.6925 2.25014 19.4709 2.09814 19.2524C2.03235 19.1574 1.96704 19.0619 1.90149 18.9674C1.84663 18.8876 1.79153 18.8078 1.73643 18.7275C1.62979 18.5734 1.5241 18.4188 1.42293 18.262L1.37163 18.1832C1.27022 18.0124 1.24361 17.8626 1.28755 17.6678C1.39894 17.3329 1.75068 17.0693 1.99293 16.8247C2.01209 16.8054 2.03116 16.7862 2.05088 16.7663C2.15205 16.6644 2.25346 16.5627 2.35488 16.4599C2.43824 16.376 2.5216 16.2922 2.60425 16.2081C2.70519 16.106 2.8066 16.0041 2.90825 15.9018C2.94673 15.8633 2.98497 15.8246 3.0232 15.7856C3.07664 15.7315 3.13055 15.6776 3.18446 15.6236C3.19993 15.6078 3.21534 15.5918 3.23125 15.5757C3.3804 15.4284 3.55663 15.3144 3.77275 15.3144C4.053 15.3263 4.25963 15.4909 4.47813 15.6517C4.54819 15.7032 4.61992 15.7521 4.69283 15.7999C4.84127 15.898 4.98733 16.0001 5.1322 16.1015C5.29584 16.2164 5.45995 16.3295 5.6262 16.4411C5.64382 16.4531 5.66135 16.4651 5.67964 16.4775C5.69503 16.4879 5.71052 16.4984 5.72619 16.509C5.77369 16.5421 5.81977 16.5765 5.86584 16.6114C5.95847 16.2623 6.02995 15.9084 6.10334 15.5569C6.36222 14.3077 6.36222 14.3077 6.61634 14.1272C6.77523 14.0357 6.94647 14.0414 7.12459 14.0469L7.12758 13.9659C7.13988 13.6738 7.17009 13.384 7.21071 13.0943C7.21382 13.0717 7.21691 13.0491 7.22011 13.0259C7.38114 11.8645 7.70936 10.7459 8.19386 9.67712C8.20253 9.65765 8.21122 9.63817 8.22022 9.61798C8.42091 9.16673 8.6691 8.73923 8.93035 8.32361C8.94517 8.29986 8.96004 8.27611 8.97524 8.25165C9.01514 8.18823 9.05575 8.1253 9.0966 8.06236C9.10513 8.04913 9.11365 8.036 9.12249 8.02222C9.25002 7.82462 9.38611 7.63747 9.53336 7.45222C9.59298 7.37765 9.64997 7.30117 9.7065 7.22422C9.80482 7.09217 9.91265 6.9701 10.0248 6.84897C10.0516 6.81833 10.0782 6.78769 10.105 6.75682C10.187 6.66277 10.2715 6.57086 10.3568 6.47895C10.4195 6.41078 10.4808 6.34191 10.5406 6.27113C10.6073 6.19395 10.68 6.12863 10.7577 6.06285C10.8365 5.99326 10.9094 5.91773 10.9828 5.84221C11.6763 5.16533 12.5242 4.59296 13.3816 4.13696C13.3956 4.12943 13.4096 4.1219 13.4241 4.11416C13.7447 3.94363 14.0701 3.78878 14.4002 3.64153C14.4205 3.63258 14.4408 3.62365 14.4617 3.61446C15.5993 3.12046 16.8605 2.81171 18.0955 2.73808C18.1418 2.73504 18.1418 2.73504 18.1891 2.73193C18.4384 2.71609 18.6878 2.7106 18.9372 2.71122C18.9975 2.71135 19.0578 2.71122 19.1182 2.71107C19.4198 2.71093 19.7214 2.71473 20.0207 2.75216C20.2494 2.77235 20.3722 2.72933 20.5527 2.58377C20.6061 2.53841 20.6586 2.49257 20.7106 2.44578C20.7662 2.39662 20.8246 2.3534 20.8852 2.31065C21.1559 2.11542 21.4267 1.9164 21.6903 1.71215C21.8185 1.61168 21.9468 1.51241 22.0798 1.41765C22.1049 1.39943 22.1299 1.38131 22.1558 1.36255C22.3543 1.23572 22.55 1.20841 22.7804 1.25448C23.1082 1.37585 23.3172 1.78173 23.5095 2.05248C23.6152 2.19926 23.7252 2.34223 23.8373 2.48473C23.9537 2.63341 24.066 2.78398 24.1769 2.93598C24.2788 3.07516 24.3835 3.21148 24.4904 3.34686C24.5329 3.40552 24.5329 3.40552 24.5567 3.47677C24.5802 3.48461 24.6037 3.49245 24.6279 3.50052V3.54802C24.6595 3.56391 24.6913 3.57985 24.7229 3.59552C24.7398 3.60419 24.7566 3.61286 24.7742 3.62188C24.9362 3.6967 25.0711 3.70525 25.2445 3.66677C25.3131 3.64041 25.3706 3.60906 25.4345 3.57177C25.458 3.56393 25.4815 3.5561 25.5057 3.54802C25.5323 3.50408 25.5323 3.50408 25.5532 3.45302C25.565 3.4316 25.565 3.4316 25.577 3.4098C25.6406 3.29128 25.6722 3.18037 25.695 3.0488C25.6988 3.02759 25.7027 3.00628 25.7066 2.98443C25.7601 2.68043 25.8009 2.37643 25.8434 2.07243C25.8807 1.80406 25.9185 1.53806 25.9572 1.26968C25.9633 1.22646 25.9633 1.22646 25.9695 1.18228C25.9812 1.10106 25.9932 1.02007 26.0054 0.940033C26.0087 0.916402 26.0121 0.89277 26.0155 0.868545C26.0492 0.649333 26.1193 0.44817 26.2886 0.29617C26.4893 0.16412 26.6734 0.177183 26.9037 0.205208L26.9088 0.194059ZM27.1961 1.49556C27.1486 1.78293 27.1033 2.07268 27.0612 2.36243C27.0577 2.38642 27.0542 2.41065 27.0505 2.43535C27.029 2.58212 27.029 2.58212 27.0078 2.72985C26.9729 2.9721 26.936 3.21435 26.8862 3.4566C26.8825 3.47455 26.8788 3.49246 26.875 3.51098C26.7793 3.95511 26.514 4.34936 26.134 4.59873C25.7018 4.87186 25.1959 4.99061 24.69 4.89086C24.0606 4.74907 23.6593 4.33036 23.2959 3.82686C23.1897 3.68032 23.0795 3.53711 22.9705 3.39461C22.89 3.28963 22.8109 3.18395 22.7337 3.07636C22.7187 3.05546 22.7036 3.03456 22.6881 3.01295C22.6596 2.97328 22.6311 2.93315 22.6031 2.89325C22.5904 2.87553 22.5777 2.85786 22.5646 2.83957C22.5536 2.82397 22.5426 2.80846 22.5311 2.79231C22.4877 2.74766 22.463 2.73626 22.4007 2.73246C22.3556 2.75431 22.3556 2.75431 22.3138 2.79112L22.2632 2.83173C22.2454 2.84651 22.2276 2.86118 22.2091 2.87638C22.1706 2.90726 22.1319 2.93813 22.0934 2.96901C22.0736 2.98495 22.0538 3.00083 22.0333 3.01722C21.9388 3.0918 21.8419 3.16305 21.7436 3.23406C21.7056 3.26185 21.6676 3.28963 21.6296 3.31766C21.6112 3.33108 21.593 3.3445 21.574 3.35827C21.341 3.52951 21.1109 3.70502 20.8805 3.88077C20.86 3.8964 20.8394 3.91212 20.8183 3.92803C20.6874 4.02778 20.557 4.12825 20.4288 4.22966C20.4625 4.30281 20.5031 4.36337 20.5523 4.42726C20.5676 4.44714 20.5829 4.46692 20.5986 4.48758C20.6233 4.51941 20.6233 4.51941 20.6485 4.55195C20.791 4.73743 20.9311 4.92482 21.0688 5.11245C21.1465 5.21837 21.2249 5.32358 21.3042 5.42832C21.4239 5.58626 21.5398 5.7442 21.6391 5.9152C21.6517 5.93669 21.6643 5.95818 21.6773 5.98027C21.9124 6.41015 21.9504 6.93977 21.8144 7.41002C21.6652 7.87077 21.356 8.25552 20.9309 8.49065C20.6411 8.6322 20.3466 8.70345 20.026 8.70273C20.0015 8.70269 19.9771 8.70264 19.9519 8.70259C19.6503 8.69798 19.3534 8.64963 19.0565 8.60189C18.9449 8.58446 18.833 8.56721 18.7216 8.55011C18.695 8.54601 18.6684 8.54192 18.6409 8.53769C18.472 8.51204 18.3036 8.48995 18.1326 8.47262C18.1127 8.47053 18.0927 8.46844 18.0721 8.46628C18.0262 8.46191 17.9802 8.45901 17.9341 8.45647C17.8887 8.50183 17.8935 8.57997 17.8847 8.64077C17.881 8.66594 17.881 8.66594 17.8773 8.69159C17.8692 8.74764 17.8612 8.80369 17.8533 8.85974C17.8477 8.89893 17.842 8.93812 17.8363 8.97754C17.8214 9.08157 17.8064 9.18559 17.7917 9.28867C17.7769 9.39246 17.762 9.49624 17.747 9.59979C17.7298 9.71997 17.7126 9.83967 17.6955 9.96079C17.6724 10.1232 17.6492 10.2862 17.625 10.4477C17.6216 10.4707 17.6181 10.4937 17.6146 10.5175C17.6087 10.5574 17.6027 10.5971 17.5965 10.637C17.5797 10.7502 17.5756 10.8588 17.578 10.9742C17.8133 11.0098 18.0482 11.045 18.2833 11.0789C18.3931 11.0948 18.5026 11.1108 18.6111 11.1267C18.6672 11.1348 18.7232 11.1429 18.7792 11.1509C19.7221 11.286 19.7221 11.286 19.9644 11.4217C19.9798 11.4298 19.9953 11.438 20.0112 11.4464C20.1363 11.514 20.247 11.5943 20.3555 11.6862L20.4268 11.7382C20.7498 12.0137 20.935 12.4721 20.992 12.883C21.0298 13.4292 20.8692 13.9541 20.5075 14.3697C20.3717 14.5101 20.2249 14.6286 20.0658 14.7426C19.9803 14.8041 19.8955 14.8668 19.8117 14.9293C19.7927 14.9432 19.7737 14.9571 19.7542 14.9716C19.5841 15.0967 19.4169 15.2233 19.2483 15.3539C18.9016 15.6199 18.9016 15.6199 18.7876 15.6769C18.8265 15.8009 18.9035 15.895 18.9804 15.9976C18.995 16.0171 19.0096 16.0368 19.0246 16.0569C19.1687 16.25 19.3143 16.4417 19.4616 16.6317C19.5625 16.7637 19.6623 16.8977 19.7608 17.0307C19.814 17.1017 19.8675 17.1727 19.9207 17.2437C19.958 17.2934 19.995 17.343 20.0323 17.3926C20.051 17.4176 20.0698 17.4428 20.0891 17.4684C20.1059 17.4909 20.1228 17.5133 20.1399 17.5366C20.1867 17.5983 20.2346 17.6589 20.2833 17.7192C20.3591 17.7047 20.4073 17.6798 20.4688 17.6337C20.4863 17.6207 20.5037 17.6078 20.5218 17.5945C20.5406 17.5803 20.5593 17.5663 20.5788 17.5515L20.6386 17.5069C20.9046 17.3081 21.1683 17.1055 21.4319 16.9036C22.0066 16.4643 22.5434 16.2101 23.2868 16.3004C23.7356 16.379 24.1726 16.6661 24.4386 17.0366C24.7925 17.5734 24.8068 18.1363 24.7213 18.7514C24.7159 18.7918 24.7106 18.8321 24.7053 18.8723C24.6789 19.0708 24.6507 19.2689 24.62 19.466C24.6173 19.4839 24.6145 19.5016 24.6117 19.5202C24.5987 19.6042 24.5856 19.6883 24.5718 19.7719C24.5469 19.9289 24.5295 20.0783 24.5357 20.235C24.6711 20.2711 24.8041 20.2968 24.9442 20.3163C24.9651 20.3193 24.986 20.3223 25.0074 20.3254C25.0758 20.3353 25.1442 20.345 25.2128 20.3546C25.2606 20.3615 25.3085 20.3683 25.3563 20.3752C25.4563 20.3895 25.5562 20.4037 25.6555 20.4179C25.7835 20.4361 25.912 20.4545 26.0403 20.4728C26.1391 20.487 26.2376 20.5011 26.3371 20.5151C26.3844 20.5218 26.4317 20.5286 26.4787 20.5354C26.5447 20.5448 26.6107 20.5542 26.6765 20.5634C26.7057 20.5676 26.7057 20.5676 26.7354 20.5719C26.8347 20.5858 26.9302 20.594 27.0299 20.591C27.081 20.3107 27.1287 20.0305 27.1672 19.7455C27.1706 19.7205 27.174 19.6958 27.1775 19.6702C27.1912 19.5688 27.2048 19.4674 27.2181 19.3662C27.2516 19.1144 27.2853 18.8651 27.3397 18.6157C27.3451 18.5905 27.3451 18.5905 27.3507 18.5649C27.451 18.1326 27.7307 17.7265 28.0989 17.4771C28.5905 17.1921 29.1035 17.0924 29.6616 17.2254C29.9229 17.2969 30.1461 17.4263 30.3551 17.5959L30.4292 17.6507C30.7403 17.9405 30.9826 18.3276 31.232 18.6696C31.332 18.8057 31.4334 18.9404 31.536 19.0734C31.5702 19.1175 31.6039 19.1619 31.6369 19.2068C31.6589 19.2365 31.6589 19.2365 31.6816 19.2667C31.7002 19.2923 31.7002 19.2923 31.7193 19.3185C31.7309 19.3303 31.7424 19.3422 31.7542 19.3543C31.8374 19.3543 31.8504 19.3413 31.9134 19.2907C31.9306 19.277 31.9478 19.2634 31.9656 19.2493C31.984 19.2345 32.0024 19.2197 32.0214 19.2042C32.0604 19.1733 32.0996 19.1425 32.1385 19.1116C32.1579 19.0962 32.1775 19.081 32.1974 19.065C32.2727 19.0064 32.3492 18.9499 32.4266 18.894C32.5703 18.7898 32.7116 18.6829 32.8517 18.5758C33.0163 18.4499 33.1818 18.3264 33.3481 18.2029C33.5001 18.0915 33.6497 17.9787 33.7946 17.8585C33.7219 17.7225 33.6352 17.6044 33.5381 17.4833C33.5079 17.4451 33.4778 17.4066 33.4478 17.3683C33.4335 17.3501 33.4191 17.3318 33.4044 17.313C33.3445 17.2358 33.2878 17.1567 33.231 17.0772C33.184 17.013 33.136 16.9501 33.0876 16.8872C32.6197 16.2792 32.2563 15.7068 32.3513 14.9064C32.4178 14.524 32.6316 14.1535 32.9142 13.8899C32.9368 13.868 32.9368 13.868 32.9598 13.8455C33.3564 13.4726 33.8552 13.3705 34.38 13.3871C34.6413 13.4014 34.9002 13.4453 35.1567 13.4833C35.2182 13.4921 35.2797 13.5008 35.3412 13.5097C35.7544 13.5686 35.7544 13.5686 35.9159 13.5949C35.943 13.5993 35.9701 13.6037 35.9979 13.6082C36.0221 13.6121 36.0463 13.6161 36.071 13.6202C36.1428 13.6292 36.2116 13.6305 36.2838 13.629C36.3192 13.4955 36.3453 13.363 36.3651 13.2276C36.3681 13.2073 36.3711 13.187 36.3742 13.1661C36.3841 13.0996 36.3938 13.0331 36.4034 12.9664C36.4103 12.9198 36.4171 12.8733 36.424 12.8265C36.4383 12.7291 36.4525 12.6315 36.4667 12.5344C36.4849 12.4099 36.5033 12.285 36.5216 12.1615C36.5358 12.0653 36.5499 11.9691 36.5639 11.8717C36.5706 11.8259 36.5773 11.7798 36.5842 11.734C36.5937 11.6696 36.603 11.6053 36.6122 11.5411C36.6164 11.5131 36.6164 11.5131 36.6207 11.4844C36.6385 11.3592 36.6421 11.2374 36.6398 11.1115C36.6183 11.1084 36.597 11.1054 36.5749 11.1022C36.3712 11.073 36.1688 11.0438 35.9646 11.0143C35.8598 10.9992 35.7553 10.9842 35.6511 10.9692C35.5496 10.9548 35.4485 10.94 35.3471 10.9253C35.3088 10.9197 35.2703 10.9142 35.2321 10.9088C34.5125 10.8069 34.5125 10.8069 34.256 10.6666C34.2406 10.6585 34.2251 10.6504 34.2092 10.6421C34.046 10.5542 33.8791 10.4573 33.7627 10.3096C33.7484 10.2919 33.734 10.2742 33.7192 10.2559H33.6717C33.666 10.2434 33.6603 10.2308 33.6544 10.2179C33.6235 10.1595 33.5874 10.1058 33.5501 10.0512C33.4297 9.87332 33.3535 9.70208 33.2913 9.49546C33.2857 9.47822 33.2802 9.46102 33.2745 9.44321C33.1671 9.07508 33.2141 8.63571 33.3626 8.28421C33.3723 8.26115 33.3821 8.23813 33.392 8.21438C33.6105 7.74176 33.9953 7.45913 34.4062 7.16226C34.5536 7.05491 34.6983 6.944 34.8432 6.83213C34.9417 6.75661 35.0408 6.68156 35.14 6.60746C35.1577 6.5943 35.1754 6.5811 35.1937 6.56756C35.2267 6.5431 35.26 6.51863 35.293 6.49441C35.3728 6.43836 35.3728 6.43836 35.4286 6.3607C35.2768 6.14362 35.1198 5.93082 34.9583 5.72182C34.8527 5.5836 34.7484 5.44395 34.6448 5.30382C34.4128 4.98795 34.1746 4.67445 33.9323 4.3657C33.8578 4.39348 33.7953 4.42175 33.7321 4.4702C33.7173 4.48143 33.7024 4.49266 33.6872 4.50416C33.6716 4.51625 33.6559 4.52838 33.6397 4.54073C33.6058 4.56662 33.5716 4.59251 33.5376 4.6184L33.4851 4.65853C33.4049 4.71981 33.3241 4.78013 33.2429 4.84046C33.1476 4.91171 33.0526 4.9832 32.9579 5.05516C32.3831 5.48978 31.8226 5.88641 31.0626 5.80328C30.5758 5.72277 30.1126 5.49453 29.8158 5.09078C29.3883 4.45666 29.4239 3.87003 29.5284 3.13853C29.5396 3.05945 29.5504 2.98036 29.5614 2.90127C29.5961 2.6519 29.6307 2.40252 29.6714 2.15315C29.6848 2.05126 29.69 1.94866 29.6805 1.84677C29.6397 1.80592 29.5839 1.81043 29.5281 1.8026C29.5003 1.7987 29.4727 1.79481 29.4442 1.79079C29.4138 1.78661 29.3834 1.78243 29.3521 1.77813C29.3203 1.77369 29.2887 1.76925 29.2568 1.76481C29.1718 1.75291 29.0866 1.74113 29.0027 1.72942C28.9153 1.71733 28.8279 1.7052 28.7415 1.69285C28.6203 1.67598 28.4992 1.65912 28.3781 1.6425C28.2023 1.61827 28.0266 1.59357 27.8508 1.56887C27.7924 1.56063 27.7338 1.55241 27.6753 1.54417C27.6399 1.53921 27.6048 1.53422 27.5694 1.52921C27.5217 1.52246 27.4742 1.51579 27.4264 1.50912C27.4008 1.50551 27.3751 1.5019 27.3488 1.49817C27.2787 1.48886 27.2787 1.48886 27.1887 1.49066L27.1961 1.49556ZM7.22238 16.3868C7.18082 16.4792 7.15754 16.5723 7.13451 16.6694C7.04711 17.0423 6.93928 17.3867 6.60726 17.6147C6.35551 17.7702 6.07288 17.8641 5.77363 17.8356L5.71592 17.8314C5.37154 17.7889 5.07229 17.5654 4.79679 17.3683C4.73267 17.3224 4.66783 17.2778 4.60299 17.2331L4.52913 17.1818C4.40183 17.0937 4.275 17.0068 4.14675 16.9206C4.12828 16.908 4.1097 16.8954 4.0907 16.8823C4.07427 16.8711 4.05793 16.8599 4.04083 16.8484C3.99357 16.8154 3.99357 16.8154 3.94583 16.774C3.90166 16.7394 3.90165 16.7394 3.85487 16.7477C3.7848 16.775 3.74538 16.8163 3.69194 16.8693C3.65893 16.9016 3.65893 16.9016 3.62544 16.9346C3.60172 16.9583 3.57794 16.9821 3.55419 17.0058C3.52973 17.0301 3.50527 17.0543 3.48104 17.0785C3.42998 17.1293 3.37892 17.1802 3.32809 17.2312C3.26278 17.2965 3.19723 17.3616 3.13121 17.4264C3.08062 17.4763 3.0305 17.5264 2.98039 17.5768C2.95617 17.6008 2.93194 17.6248 2.90772 17.6487C2.87375 17.682 2.84027 17.716 2.80678 17.7497C2.78761 17.7688 2.76854 17.7879 2.74859 17.8076C2.70489 17.8566 2.70489 17.8566 2.71439 17.9114C2.74004 17.9682 2.77163 18.0169 2.80702 18.0682C2.82937 18.1007 2.82937 18.1007 2.85214 18.134C2.87613 18.1684 2.87613 18.1684 2.90059 18.2035C2.91691 18.2272 2.93313 18.2508 2.94999 18.2753C2.99678 18.343 3.04357 18.4106 3.09059 18.4781C3.10128 18.4935 3.11197 18.5087 3.12289 18.5246C3.13182 18.5375 3.14075 18.5503 3.14997 18.5636C3.19129 18.6232 3.23262 18.6828 3.27371 18.7427C3.29689 18.7764 3.32026 18.8099 3.34353 18.8436C3.68553 19.3376 3.68553 19.3376 3.75441 19.5704L3.77158 19.625C3.86301 19.967 3.78077 20.2924 3.60889 20.5916C3.40891 20.9099 3.12439 21.0452 2.76814 21.1355C2.67528 21.1563 2.58218 21.1761 2.48789 21.1956C2.45369 21.2028 2.41973 21.2101 2.38553 21.2173C2.2967 21.2363 2.20811 21.2549 2.11953 21.2736C1.97655 21.3038 1.83453 21.334 1.69203 21.3644C1.64239 21.3749 1.59251 21.3854 1.54264 21.3957C1.51271 21.4021 1.48279 21.4084 1.45168 21.4149C1.42531 21.4205 1.39871 21.4261 1.3714 21.4318C1.30989 21.4439 1.30989 21.4439 1.26144 21.4703V22.9903C1.66519 23.0836 2.06894 23.1743 2.47744 23.2539C2.92394 23.3418 3.32769 23.4501 3.59606 23.8477C3.77253 24.1422 3.85256 24.439 3.78773 24.7834C3.71529 25.0637 3.58039 25.2988 3.40773 25.5268C3.32436 25.6396 3.24623 25.756 3.16785 25.8712C3.09636 25.9764 3.02369 26.0806 2.94888 26.1847C2.93344 26.2061 2.918 26.2276 2.90209 26.2497C2.87216 26.2913 2.842 26.3329 2.81136 26.3739C2.79787 26.3928 2.78429 26.4115 2.77051 26.4309C2.75842 26.4475 2.74629 26.464 2.73394 26.4811C2.70639 26.5271 2.70639 26.5271 2.71629 26.5784C2.74194 26.6404 2.77923 26.6751 2.82982 26.7181H2.87732C2.89299 26.7494 2.90867 26.7808 2.92482 26.8131H2.97232C2.98407 26.8485 2.98407 26.8485 2.99607 26.8843H3.04357L3.06212 26.9264C3.09347 26.9836 3.1279 27.0226 3.17422 27.0684C3.18866 27.083 3.20319 27.0976 3.21792 27.1126C3.25473 27.1506 3.25473 27.1506 3.30484 27.1456C3.31121 27.1598 3.31757 27.1741 3.32413 27.1886C3.35239 27.2406 3.37828 27.2741 3.42364 27.3118H3.47114C3.48681 27.3432 3.50249 27.3745 3.51864 27.4068H3.56614C3.5779 27.4422 3.5779 27.4422 3.58989 27.4781H3.63739C3.64649 27.4992 3.64649 27.4992 3.65575 27.5208C3.68757 27.5783 3.72035 27.6092 3.77093 27.6503L3.8163 27.6878C3.82774 27.697 3.83919 27.7062 3.85097 27.7156C3.92792 27.6792 3.99751 27.6358 4.06829 27.5888C4.09199 27.573 4.11578 27.5572 4.14025 27.541C4.17777 27.5158 4.17777 27.5158 4.21625 27.4902C4.2419 27.473 4.26779 27.4558 4.29415 27.4382C4.42929 27.3475 4.5649 27.2563 4.69552 27.1603C5.11827 26.8563 5.51965 26.5666 6.07065 26.6307C6.3984 26.6848 6.66915 26.8387 6.8734 27.0986C7.10615 27.4501 7.16315 27.8704 7.2439 28.2766C7.26556 28.3863 7.28784 28.496 7.30992 28.6067C7.32161 28.6649 7.3332 28.7228 7.3446 28.781C7.38093 28.9765 7.38094 28.9765 7.43722 29.1658C7.53056 29.1969 7.61891 29.1931 7.71747 29.1924C7.7393 29.1923 7.76117 29.1923 7.78374 29.1922C8.17561 29.19 8.56749 29.1768 8.95936 29.1656C8.98335 29.0621 9.00733 28.9585 9.03109 28.8545C9.03968 28.817 9.0483 28.7797 9.05697 28.7422C9.10495 28.5334 9.15197 28.3242 9.19496 28.1152C9.19855 28.0977 9.20213 28.0802 9.20584 28.0624C9.22284 27.9798 9.23956 27.8969 9.25571 27.8131C9.33599 27.4188 9.46685 27.0792 9.79721 26.8298C10.1036 26.6353 10.4575 26.5709 10.8137 26.6495C11.0678 26.7234 11.284 26.86 11.4977 27.0129C11.5452 27.0464 11.5927 27.0801 11.6402 27.1136L11.7129 27.1652C11.8305 27.2478 11.949 27.3286 12.0668 27.4098C12.0878 27.4241 12.1088 27.4385 12.1304 27.4532C12.2601 27.5416 12.3893 27.629 12.5199 27.7145C12.6123 27.677 12.6745 27.6138 12.7434 27.544C12.7559 27.5315 12.7683 27.519 12.7814 27.506C12.8227 27.4646 12.8638 27.4233 12.9047 27.3818C12.9332 27.353 12.9619 27.3243 12.9904 27.2958C13.0657 27.2203 13.1407 27.1447 13.2158 27.0692C13.2925 26.992 13.3692 26.9151 13.4459 26.8381C13.5965 26.6871 13.7476 26.5365 13.8972 26.3845C13.8862 26.3508 13.8752 26.317 13.8642 26.2833C13.858 26.2646 13.8519 26.2458 13.8456 26.2266C13.5748 25.4523 12.9621 24.9583 12.3066 24.5142C12.1897 24.4341 12.0752 24.351 11.9622 24.2648C11.9463 24.2529 11.9304 24.2411 11.914 24.2287C11.8102 24.1503 11.7085 24.0698 11.61 23.9865L11.5696 23.9625C11.4699 23.9957 11.4516 24.0653 11.4062 24.1539C11.2502 24.4436 11.0381 24.6978 10.7982 24.921C10.7569 24.9562 10.7569 24.9562 10.7623 25.0065C10.749 25.0124 10.7355 25.0183 10.7217 25.0244C10.6586 25.0589 10.6103 25.1004 10.556 25.1475C9.79358 25.7745 8.79845 26.0547 7.8247 25.974C7.2547 25.9134 6.66333 25.7293 6.18358 25.4087L6.11185 25.3638C5.96769 25.2717 5.83873 25.1717 5.71523 25.0551C5.66203 25.0047 5.66203 25.0047 5.60289 24.9594C4.92364 24.4107 4.54364 23.475 4.44389 22.6295C4.3553 21.765 4.56573 20.91 5.04239 20.1832C5.05688 20.1592 5.07137 20.1355 5.08633 20.1108C5.20817 19.9153 5.35945 19.7522 5.52095 19.5883C5.5523 19.5562 5.58342 19.5237 5.61405 19.4909C5.748 19.351 5.89193 19.2439 6.05343 19.137C6.0786 19.1205 6.10378 19.104 6.12967 19.0869C6.62842 18.7639 7.14142 18.5929 7.72567 18.4979C7.71298 18.3096 7.66178 18.1441 7.60549 17.9636C7.51097 17.6548 7.44185 17.3437 7.38129 17.0254C7.37519 16.9936 7.37519 16.9936 7.36896 16.9608C7.30199 16.607 7.30199 16.607 7.28703 16.4787L7.27446 16.4067L7.22696 16.383L7.22238 16.3868ZM7.93726 19.7118C7.91954 19.714 7.90187 19.7162 7.88358 19.7184C7.23283 19.8051 6.63908 20.1245 6.22345 20.6352C6.03013 20.8917 5.86958 21.1695 5.77458 21.4783C5.76993 21.4931 5.76527 21.5077 5.76047 21.5232C5.56549 22.1692 5.66808 22.8579 5.97612 23.4493C6.07326 23.6289 6.17895 23.7794 6.32287 23.9267C6.36871 23.9735 6.36871 23.9735 6.39246 24.021H6.43996C6.4478 24.0445 6.45564 24.068 6.46371 24.0922C6.51477 24.1428 6.57367 24.1844 6.63139 24.2274C6.6568 24.2463 6.6568 24.2463 6.68268 24.2656C6.85297 24.3893 7.03181 24.4824 7.22419 24.5672C7.2457 24.5769 7.26717 24.5866 7.2895 24.5964C7.8975 24.8434 8.57912 24.8088 9.18237 24.5684C9.76425 24.319 10.2297 23.8488 10.5052 23.2835C10.5128 23.2684 10.5204 23.2534 10.5283 23.2379C10.5672 23.1558 10.5672 23.1558 10.5615 23.0676C10.5131 23.0057 10.4613 22.9472 10.4074 22.8902C10.3837 22.8648 10.3601 22.8392 10.3364 22.8138C10.3244 22.8009 10.3124 22.7881 10.3 22.775C10.1307 22.5938 9.96752 22.4093 9.81315 22.2145C9.80089 22.1991 9.78869 22.1837 9.7761 22.1678C9.47447 21.7878 9.1966 21.3959 8.94247 20.9826C8.91587 20.9396 8.88856 20.8971 8.86125 20.8546C8.7577 20.6922 8.66769 20.5245 8.57862 20.3535C8.56637 20.3299 8.55416 20.3065 8.54157 20.282C8.48695 20.1763 8.43256 20.0704 8.37984 19.9638C8.36723 19.9388 8.36723 19.9388 8.35442 19.9134C8.33243 19.8697 8.31096 19.826 8.28935 19.7823C8.2523 19.7182 8.2523 19.7182 8.19316 19.6992C8.1079 19.6969 8.02501 19.7032 7.94141 19.7137L7.93726 19.7118ZM16.5585 32.3231V33.5818H21.6173V32.3231C21.5745 32.2803 21.5163 32.2962 21.4593 32.2962C21.4399 32.2963 21.4206 32.2963 21.4004 32.2964C21.3799 32.2963 21.3596 32.2963 21.3384 32.2963C21.2693 32.2962 21.2002 32.2963 21.1311 32.2963C21.0817 32.2963 21.0325 32.2963 20.9831 32.2962C20.8487 32.2961 20.7148 32.2961 20.5794 32.2962C20.439 32.2963 20.2991 32.2962 20.159 32.2962C19.9234 32.2961 19.6888 32.2962 19.4513 32.2963C19.1781 32.2964 18.905 32.2964 18.6319 32.2963C18.3979 32.2962 18.164 32.2961 17.9313 32.2962C17.7914 32.2962 17.651 32.2962 17.5109 32.2962C17.3793 32.2961 17.2473 32.2961 17.1166 32.2963C17.0682 32.2963 17.0197 32.2963 16.9715 32.2962C16.9057 32.2962 16.8399 32.2963 16.7742 32.2964C16.7548 32.2963 16.7354 32.2963 16.7153 32.2962C16.6293 32.2884 16.6293 32.2884 16.5573 32.3231H16.5585ZM16.5585 34.8406C16.5555 34.8971 16.554 34.9529 16.5537 35.0094C16.5535 35.0266 16.5534 35.0439 16.5533 35.0617C16.553 35.0982 16.5529 35.1351 16.5528 35.1716C16.5526 35.2267 16.5518 35.2818 16.5511 35.3372C16.5481 35.748 16.6411 36.0734 16.9311 36.3798C17.2398 36.6695 17.6008 36.7455 18.0117 36.7455C18.0504 36.7457 18.0504 36.7457 18.0896 36.7458C18.1744 36.746 18.2589 36.7461 18.3437 36.7461C18.4029 36.7462 18.4622 36.7462 18.5214 36.7463C18.6454 36.7465 18.7684 36.7465 18.8943 36.7465C19.0527 36.7465 19.2101 36.7468 19.3693 36.7472C19.4916 36.7475 19.6139 36.7475 19.735 36.7475C19.7934 36.7476 19.8516 36.7477 19.91 36.7478C19.992 36.7481 20.0739 36.748 20.1547 36.7479C20.1784 36.748 20.2022 36.7481 20.2266 36.7483C20.4641 36.7472 20.6945 36.7226 20.9083 36.61C20.9243 36.6018 20.9403 36.5935 20.9569 36.5849C21.2823 36.4091 21.4628 36.1645 21.5697 35.8154C21.6222 35.6273 21.6238 35.4401 21.6222 35.2477C21.6217 35.1967 21.6217 35.1459 21.6217 35.0948C21.6363 34.9454 21.6363 34.9454 21.5934 34.8193C21.5288 34.8169 21.465 34.8161 21.4006 34.8163C21.3801 34.8162 21.3597 34.8162 21.3386 34.8162C21.2695 34.8161 21.2004 34.8162 21.1313 34.8162C21.0819 34.8162 21.0327 34.8161 20.9833 34.8161C20.8489 34.816 20.7149 34.816 20.5796 34.8161C20.4392 34.8162 20.2993 34.8161 20.1592 34.8161C19.9236 34.816 19.6889 34.8161 19.4514 34.8162C19.1783 34.8163 18.9052 34.8163 18.6321 34.8162C18.3981 34.8161 18.1642 34.816 17.9314 34.8161C17.7915 34.8161 17.6512 34.8161 17.5111 34.8161C17.3795 34.816 17.2474 34.816 17.1168 34.8162C17.0684 34.8162 17.0199 34.8162 16.9717 34.8161C16.9059 34.8161 16.8401 34.8162 16.7743 34.8163C16.7549 34.8162 16.7356 34.8162 16.7154 34.8161C16.6295 34.8083 16.6295 34.8083 16.5575 34.843L16.5585 34.8406Z" fill="#000100"/>
<path d="M30.4475 7.29127C30.4698 7.31226 30.4922 7.3333 30.515 7.35492C30.5767 7.4131 30.5767 7.4131 30.6408 7.46298C30.7263 7.53185 30.7921 7.6145 30.8629 7.69787C30.8823 7.71965 30.9016 7.74133 30.9216 7.76389C31.2232 8.10589 31.4821 8.50014 31.6697 8.91577C31.6849 8.94949 31.6849 8.94949 31.7006 8.98393C31.858 9.34018 31.9808 9.71305 32.0521 10.0954C32.0574 10.1239 32.0574 10.1239 32.0628 10.1529C32.2951 11.4615 32.0022 12.8367 31.2434 13.9292C31.1268 14.0937 31.0036 14.2474 30.8658 14.397C30.8041 14.4642 30.7442 14.5331 30.6846 14.602C30.6155 14.6794 30.6155 14.6794 30.5775 14.7134H30.53V14.7609C30.2956 15.0174 29.9529 15.2335 29.6512 15.4021C29.6338 15.412 29.6163 15.4219 29.5985 15.4321C28.4371 16.0852 27.0335 16.2728 25.751 15.9142C25.0029 15.6985 24.307 15.3418 23.7346 14.8051C23.6833 14.7566 23.6833 14.7566 23.6187 14.7086C23.6013 14.6939 23.5838 14.6792 23.5658 14.664V14.6165C23.5516 14.6103 23.5375 14.6041 23.523 14.5977C23.4672 14.5669 23.4375 14.5374 23.3967 14.4887C23.3824 14.4717 23.3679 14.4548 23.3532 14.4372C23.3372 14.4179 23.3211 14.3987 23.3045 14.3788C23.2767 14.3465 23.2767 14.3465 23.2485 14.3137C22.7117 13.6843 22.3555 12.9433 22.1678 12.1382C22.1632 12.1182 22.1586 12.0983 22.1538 12.0776C22.0809 11.7428 22.0595 11.4174 22.0609 11.0778C22.061 11.0574 22.0611 11.0369 22.0611 11.016C22.0645 10.1776 22.2642 9.39625 22.662 8.65763C22.6834 8.61678 22.6834 8.61678 22.7052 8.57545C22.8995 8.2192 23.1422 7.9057 23.4225 7.61358C23.451 7.58057 23.479 7.54755 23.507 7.51407C24.2504 6.66382 25.4331 6.17219 26.5233 6.04632C26.5636 6.04164 26.5636 6.04164 26.6047 6.03686C27.9846 5.90695 29.4072 6.35986 30.4285 7.30274L30.4475 7.29127ZM25.8875 7.43662C25.8583 7.44657 25.8291 7.45652 25.7989 7.46678C25.1814 7.69668 24.6328 8.09378 24.2053 8.59253C24.1936 8.60585 24.182 8.61913 24.1699 8.6329C23.4978 9.41428 23.246 10.3999 23.303 11.4117C23.3572 12.0862 23.6237 12.8034 24.0607 13.3259L24.0925 13.3646C24.2929 13.6069 24.5034 13.8349 24.7504 14.032C24.7633 14.0423 24.7762 14.0527 24.7895 14.0633C25.407 14.5431 26.1789 14.821 26.9579 14.8447C26.9777 14.8457 26.9976 14.8466 27.0178 14.8476C27.5806 14.8623 28.1673 14.7436 28.6684 14.489C28.6866 14.48 28.7047 14.4711 28.7235 14.4619C28.9681 14.3408 29.1937 14.2125 29.4051 14.0368C29.4178 14.0264 29.4305 14.0161 29.4436 14.0054C29.807 13.7085 30.1181 13.376 30.3556 12.9675C30.3645 12.9524 30.3734 12.9371 30.3827 12.9215C30.6249 12.5035 30.7912 12.0475 30.8553 11.5653C30.8575 11.5495 30.8596 11.5335 30.8619 11.5174C30.9296 10.9782 30.8767 10.4201 30.7127 9.90237C30.7041 9.87434 30.6955 9.84655 30.6866 9.81782C30.5303 9.35944 30.29 8.92244 29.9527 8.57332C29.9223 8.5384 29.8922 8.50325 29.8622 8.46787C29.8371 8.4396 29.8119 8.41134 29.7865 8.38332C29.7748 8.3704 29.7632 8.35743 29.7513 8.34413C29.6606 8.24842 29.5604 8.16648 29.4568 8.08525C29.4434 8.07464 29.43 8.06402 29.4162 8.05319C29.0267 7.74919 28.5968 7.52832 28.1242 7.38582C28.1039 7.37962 28.0836 7.37339 28.0629 7.36701C27.8962 7.31832 27.7304 7.29291 27.5594 7.27438C27.5321 7.27141 27.5046 7.26844 27.4763 7.26538C26.9419 7.21004 26.4028 7.25916 25.8922 7.43329L25.8875 7.43662Z" fill="#000100"/>
<path d="M14.3688 7.21997C14.4348 7.24681 14.4483 7.28671 14.4813 7.34941C14.5654 7.50117 14.6566 7.64628 14.7497 7.79353C14.7641 7.81612 14.7784 7.83866 14.7934 7.86193C14.8142 7.89447 14.8142 7.89447 14.8354 7.92772C14.8552 7.9586 14.8551 7.9586 14.8753 7.99018C14.9057 8.03673 14.9371 8.08186 14.9694 8.12698C15.0067 8.1885 15.0067 8.1885 15.0067 8.2835C14.9578 8.32435 14.9578 8.32435 14.8879 8.36662C14.5887 8.55662 14.3132 8.77512 14.0472 9.01025C13.9916 9.0587 13.9353 9.10667 13.8793 9.15441C13.7736 9.24632 13.6838 9.35035 13.5943 9.45841C13.5821 9.47073 13.57 9.48311 13.5575 9.4957H13.51C13.501 9.51612 13.501 9.51612 13.4919 9.53702C13.4586 9.59782 13.4199 9.63986 13.3719 9.69021C12.1179 11.063 11.4505 13.039 11.5123 14.8915C11.561 15.9412 11.7712 17.0361 12.277 17.979C12.2998 18.0219 12.321 18.0652 12.3416 18.1091C12.5362 18.5176 12.7739 18.9047 13.0589 19.2562C13.0781 19.2816 13.0971 19.3071 13.1161 19.3325C13.2491 19.5108 13.394 19.6745 13.546 19.836C13.5807 19.8733 13.6146 19.911 13.6484 19.949C13.7695 20.0856 13.8954 20.2079 14.0402 20.3195C14.1056 20.3722 14.1659 20.4283 14.2267 20.486C14.3799 20.6268 14.5473 20.7425 14.7207 20.8613C14.766 20.8921 14.8107 20.9237 14.8556 20.9553C15.333 21.2902 15.8697 21.5277 16.3993 21.7652C16.7318 21.9148 17.0596 22.0644 17.3588 22.2734C17.3739 22.2839 17.389 22.2943 17.4047 22.305C17.7015 22.5114 17.7015 22.5114 17.8108 22.6066V22.6541L17.8531 22.6735C17.9424 22.7212 18.0105 22.7927 18.0839 22.862C18.1093 22.886 18.1093 22.886 18.135 22.9102C18.2924 23.0611 18.4342 23.219 18.5696 23.39C18.5803 23.4033 18.591 23.4166 18.6021 23.4304C18.8824 23.7819 19.1104 24.188 19.2814 24.6012C19.2878 24.6162 19.2942 24.6312 19.3008 24.6466C19.496 25.105 19.6048 25.58 19.6618 26.074C19.6649 26.0999 19.668 26.1258 19.6712 26.1524C19.6889 26.3179 19.6855 26.4754 19.6855 26.644H18.4505C18.4417 26.5504 18.4329 26.4568 18.4239 26.3614C18.3311 25.4874 18.0297 24.7036 17.4526 24.0315C17.4357 24.0117 17.4188 23.9918 17.4015 23.9716C17.0453 23.5655 16.613 23.2591 16.1238 23.0335C16.0713 23.009 16.0193 22.9841 15.9672 22.9587C15.7993 22.8775 15.63 22.7991 15.459 22.729C15.0386 22.559 14.6491 22.33 14.2715 22.0854C14.2466 22.0694 14.2214 22.0533 14.1957 22.0367C14.0157 21.9194 13.8466 21.7897 13.678 21.6567C13.658 21.6411 13.6381 21.6256 13.6174 21.6095C13.3372 21.3883 13.0712 21.1535 12.8218 20.9017C12.7807 20.8604 12.7396 20.8195 12.6983 20.7787C12.5394 20.6198 12.3943 20.4581 12.2542 20.2799C12.231 20.2521 12.2076 20.2241 12.1843 20.1966C11.8542 19.7999 11.5811 19.3606 11.3341 18.9093C11.3082 18.8623 11.2816 18.8155 11.2548 18.7687C10.8676 18.0752 10.6159 17.301 10.4496 16.5291L10.4358 16.4671C9.9964 14.5006 10.3424 12.4296 11.2338 10.6484C11.2453 10.6252 11.2453 10.6252 11.257 10.6016C11.3898 10.3379 11.5491 10.0886 11.7083 9.84157C11.7254 9.81473 11.7425 9.78789 11.7596 9.76129C11.8719 9.58839 11.9968 9.42642 12.1253 9.26729C12.159 9.22478 12.1918 9.18203 12.2248 9.1388C12.3481 8.9773 12.4766 8.83005 12.6215 8.68993C12.6728 8.63958 12.72 8.58828 12.7668 8.53365C12.9153 8.36099 13.0779 8.21065 13.2561 8.06815C13.323 8.01305 13.3857 7.95534 13.4489 7.89597C13.581 7.7746 13.722 7.67295 13.8693 7.57059C13.9215 7.53402 13.9728 7.49625 14.0241 7.45825C14.0423 7.445 14.0605 7.43165 14.079 7.41812C14.1146 7.39223 14.15 7.36587 14.1852 7.3395C14.2014 7.3278 14.2175 7.31609 14.2343 7.30412C14.2486 7.29357 14.2628 7.283 14.2775 7.27205C14.3201 7.25237 14.3201 7.25237 14.3709 7.25811L14.3688 7.21997Z" fill="#000100"/>
<path d="M2.39874 3.46753C2.63149 3.48971 2.90936 3.7739 3.09699 3.90928C3.2003 3.98433 3.30456 4.05819 3.40811 4.13158C3.56558 4.24225 3.72161 4.35459 3.87836 4.46645C3.9983 4.55338 4.11824 4.63912 4.23936 4.72533C4.39683 4.836 4.55286 4.94834 4.70961 5.0602C4.82955 5.14713 4.94949 5.23287 5.07061 5.31908C5.22808 5.42975 5.38411 5.54209 5.54086 5.65395C5.6608 5.74088 5.78074 5.82662 5.90186 5.91283C6.21061 6.12967 6.51699 6.34983 6.81624 6.57783C6.7457 6.70703 6.6659 6.82483 6.57874 6.94358C6.55143 6.9811 6.52411 7.01863 6.4968 7.05592C6.48293 7.07496 6.46901 7.09392 6.45476 7.11363C6.38589 7.20863 6.3182 7.30458 6.25075 7.401C6.23838 7.41858 6.22605 7.43615 6.21323 7.4542C6.18473 7.49482 6.15599 7.53543 6.12749 7.57604C6.02346 7.5545 5.94889 7.4998 5.86386 7.43948C5.84726 7.42791 5.83061 7.41632 5.81351 7.40433C5.67006 7.3041 5.52851 7.2015 5.38601 7.09795C5.2656 7.01055 5.14376 6.92434 5.02264 6.83908C4.88394 6.74147 4.74476 6.64314 4.60939 6.54458C4.59165 6.53175 4.574 6.51893 4.55571 6.50563C4.46641 6.44103 4.37711 6.37619 4.28734 6.31135C4.10375 6.17788 3.91921 6.04773 3.73159 5.91948C3.58624 5.82068 3.44421 5.71998 3.30409 5.6131C3.05709 5.42667 2.80296 5.24973 2.55121 5.0716C2.26859 4.87258 1.98834 4.66785 1.71046 4.46598C1.74751 4.35245 1.81164 4.27075 1.88408 4.1786C2.01304 4.01045 2.13345 3.8366 2.2522 3.66085C2.2707 3.63354 2.2707 3.63354 2.28949 3.60552C2.30037 3.58927 2.31124 3.57298 2.3225 3.55635C2.35171 3.5155 2.35171 3.5155 2.39921 3.468L2.39874 3.46753Z" fill="#000100"/>
<path d="M8.31249 0C8.34669 0.134188 8.38113 0.268375 8.41533 0.401375C8.42801 0.451012 8.44074 0.50065 8.45333 0.550287C8.52957 0.849537 8.60557 1.14641 8.68133 1.44566C8.81124 1.95629 8.94258 2.46929 9.07558 2.97991C9.17581 3.35991 9.27342 3.74229 9.37008 4.12466C9.3774 4.1534 9.38471 4.18214 9.39226 4.21182C9.48133 4.56332 9.48133 4.56332 9.50769 4.66782C9.51747 4.7063 9.52747 4.74454 9.53785 4.78301C9.56094 4.8697 9.57609 4.94712 9.57063 5.03714C9.34785 5.10815 9.12413 5.17109 8.8985 5.2307C8.8434 5.24523 8.78854 5.25991 8.73368 5.27464C8.69853 5.28395 8.66338 5.29326 8.62823 5.30266C8.61191 5.30703 8.59569 5.31143 8.57883 5.31594C8.51161 5.33351 8.45414 5.3461 8.38431 5.3461C8.11356 4.3391 7.85469 3.32973 7.59819 2.32985C7.5514 2.14555 7.50438 1.96173 7.45711 1.77648C7.41698 1.6202 7.37708 1.46298 7.33694 1.30623C7.31224 1.21004 7.28778 1.11385 7.26284 1.01648C7.23954 0.925989 7.21653 0.835739 7.19349 0.745726C7.18491 0.712239 7.17627 0.678514 7.1676 0.645026C7.15568 0.598951 7.14399 0.552876 7.13221 0.507039C7.12556 0.481151 7.11891 0.455264 7.11207 0.428426C7.10093 0.367389 7.10093 0.367389 7.12468 0.319889C7.16791 0.303525 7.16791 0.303525 7.22467 0.288776C7.2459 0.283148 7.26718 0.277519 7.28903 0.271724C7.31214 0.26581 7.33535 0.259896 7.3591 0.253792C7.38268 0.247594 7.40636 0.241395 7.43058 0.235006C7.50611 0.215151 7.58187 0.195581 7.65763 0.175869C7.73316 0.156156 7.80892 0.136444 7.88445 0.116494C7.93147 0.104168 7.97873 0.0917937 8.02576 0.0796812C8.04709 0.0741237 8.06851 0.06859 8.09036 0.0628662C8.10917 0.0579975 8.12788 0.0531287 8.14736 0.0481175C8.27561 0.0110675 8.27561 0.0110675 8.31218 0.0110675L8.31249 0Z" fill="#000100"/>
<path d="M5.70001 9.66628C5.7373 9.81638 5.77458 9.96553 5.81163 10.1175C5.82424 10.1686 5.83681 10.2197 5.84963 10.2707C5.86792 10.3441 5.88597 10.4175 5.90402 10.4909C5.90974 10.5137 5.91544 10.5365 5.92133 10.5598C5.92656 10.5812 5.93178 10.6025 5.93718 10.6246C5.94181 10.6433 5.94646 10.6621 5.95123 10.6814C5.9619 10.7403 5.9618 10.7951 5.96116 10.855C5.67141 10.9369 5.37929 11.0139 5.08716 11.087C5.04441 11.0977 5.00166 11.1085 4.95891 11.1193C4.8442 11.148 4.72949 11.1768 4.61454 11.2055C4.54258 11.2235 4.47085 11.2416 4.39889 11.2594C4.14714 11.3224 3.89776 11.3853 3.64601 11.448C3.41255 11.5064 3.17814 11.5649 2.94539 11.6235C2.74423 11.6741 2.54401 11.7245 2.34214 11.7748C2.2222 11.8047 2.10226 11.8349 1.98351 11.8648C1.87094 11.8931 1.7586 11.9213 1.64626 11.9494C1.60518 11.9597 1.56385 11.97 1.52276 11.9802C1.46648 11.9944 1.40995 12.0085 1.35366 12.0225C1.33758 12.0266 1.3216 12.0307 1.30498 12.0349C1.18789 12.0637 1.07128 12.0789 0.951101 12.0898C0.909301 11.9711 0.877475 11.8499 0.847075 11.7288C0.841874 11.7081 0.836673 11.6875 0.831305 11.6661C0.82038 11.6226 0.809479 11.5792 0.79853 11.5357C0.781882 11.4692 0.765043 11.4027 0.74818 11.3362C0.737564 11.2939 0.726948 11.2517 0.716356 11.2092C0.711321 11.1893 0.706262 11.1695 0.701061 11.1491C0.696453 11.1305 0.691845 11.112 0.687119 11.0928C0.683034 11.0765 0.678973 11.0602 0.674769 11.0436C0.666077 10.9971 0.666077 10.9971 0.666077 10.9021C0.856314 10.8427 1.04845 10.7926 1.24083 10.7437C1.27408 10.7352 1.30733 10.7268 1.34058 10.7182C1.42988 10.6956 1.51941 10.6729 1.60895 10.6503C1.66524 10.6361 1.72153 10.6218 1.77805 10.6076C2.37418 10.4568 2.9703 10.3083 3.56643 10.1634C3.62913 10.1481 3.69183 10.1328 3.75453 10.1174C3.77766 10.1117 3.77766 10.1117 3.80131 10.1059C4.03121 10.0496 4.25969 9.99216 4.49006 9.93421C4.54065 9.92145 4.591 9.9088 4.64159 9.89597C4.6746 9.88766 4.70761 9.87932 4.74039 9.87103C4.76461 9.86493 4.76461 9.86493 4.78931 9.85871C4.8684 9.83871 4.94749 9.81857 5.02658 9.79838C5.11326 9.77627 5.19995 9.75444 5.28545 9.73236C5.31086 9.72578 5.33651 9.71918 5.36288 9.71241C5.47711 9.68367 5.58043 9.65897 5.70013 9.66776L5.70001 9.66628Z" fill="#000100"/>
<path d="M30.8037 26.8138C30.9113 26.8345 30.975 26.8969 31.0555 26.9681C31.0854 26.9945 31.1153 27.0206 31.1455 27.0467C31.1603 27.0597 31.175 27.0726 31.1902 27.0859C31.2467 27.1351 31.3046 27.1821 31.3628 27.2294C31.4638 27.3113 31.5628 27.3954 31.6621 27.4811C31.7737 27.5773 31.8867 27.6707 32.0017 27.7614C32.0772 27.8227 32.1506 27.8861 32.224 27.9497C32.3503 28.0592 32.4805 28.1635 32.6111 28.2656C32.7073 28.3406 32.799 28.4193 32.889 28.5012C32.9681 28.5715 33.0503 28.6373 33.1312 28.704C33.2056 28.7648 33.2792 28.8268 33.3526 28.889C33.3655 28.9 33.3785 28.9109 33.3918 28.9223C33.4569 28.9774 33.5217 29.0327 33.5865 29.0883C33.7324 29.2127 33.881 29.3329 34.0307 29.4493C34.1356 29.5312 34.2344 29.6184 34.3323 29.7082C34.4183 29.7849 34.5092 29.8547 34.6007 29.9238C34.5346 30.0269 34.4627 30.1207 34.3824 30.2136C34.3591 30.2409 34.3358 30.268 34.3126 30.2953C34.301 30.3087 34.2895 30.3221 34.2777 30.3361C34.1938 30.4349 34.1124 30.5361 34.0307 30.6377C33.9905 30.6867 33.9506 30.7358 33.9105 30.7848C33.8926 30.8067 33.8746 30.8285 33.8561 30.851C33.8431 30.8668 33.8302 30.8826 33.8169 30.899C33.6853 30.8035 33.5604 30.7014 33.4369 30.595C33.3545 30.5249 33.2716 30.4556 33.1875 30.3874C33.0783 30.2984 32.9705 30.2076 32.8622 30.1167C32.7809 30.0478 32.6992 29.9799 32.6175 29.9127C32.5216 29.8345 32.4268 29.7552 32.3325 29.6752C32.1953 29.5585 32.057 29.4443 31.9169 29.3308C31.7637 29.2063 31.6129 29.0814 31.4609 28.9532C31.3797 28.8843 31.298 28.8164 31.2163 28.7491C31.0548 28.6176 30.8957 28.4831 30.7365 28.3478C30.5803 28.215 30.423 28.0841 30.2639 27.9535C30.1879 27.8913 30.1136 27.8274 30.0392 27.763C30.1074 27.6559 30.1824 27.5614 30.2663 27.4662C30.3789 27.337 30.4867 27.2049 30.5917 27.0695C30.6591 26.9824 30.7285 26.8974 30.7992 26.813L30.8037 26.8138Z" fill="#000100"/>
<path d="M31.255 23.4888C31.2722 23.4887 31.2894 23.4887 31.307 23.4887C31.365 23.4886 31.4231 23.4886 31.4811 23.4887C31.5224 23.4887 31.564 23.4886 31.6053 23.4886C31.7181 23.4885 31.8309 23.4885 31.9449 23.4886C32.063 23.4887 32.1808 23.4886 32.2988 23.4886C32.4971 23.4885 32.6954 23.4886 32.8926 23.4887C33.1217 23.4888 33.3509 23.4888 33.5813 23.4887C33.778 23.4885 33.9756 23.4885 34.1703 23.4886C34.2879 23.4886 34.4054 23.4886 34.5218 23.4886C34.6325 23.4885 34.7429 23.4885 34.8543 23.4887C34.8949 23.4887 34.9355 23.4887 34.9761 23.4886C35.0315 23.4886 35.0871 23.4887 35.1424 23.4888C35.1735 23.4888 35.2044 23.4888 35.2364 23.4888C35.3141 23.4916 35.3863 23.5008 35.4625 23.5156C35.4631 23.6876 35.4636 23.86 35.4638 24.031C35.464 24.0897 35.4641 24.1481 35.4643 24.2068C35.4646 24.2908 35.4648 24.3747 35.4649 24.4585C35.465 24.4849 35.4651 24.5112 35.4652 24.5383C35.4652 24.5625 35.4652 24.5868 35.4652 24.6117C35.4653 24.6332 35.4653 24.6547 35.4654 24.6768C35.4625 24.7257 35.4625 24.7257 35.4388 24.7495C35.3827 24.7518 35.3272 24.7526 35.2711 24.7525C35.2445 24.7525 35.2445 24.7525 35.2174 24.7526C35.1576 24.7527 35.0975 24.7526 35.0377 24.7525C34.9949 24.7526 34.9522 24.7526 34.9094 24.7527C34.7928 24.7528 34.6764 24.7527 34.5603 24.7526C34.4387 24.7526 34.318 24.7526 34.1945 24.7527C33.99 24.7527 33.786 24.7527 33.5818 24.7526C33.3452 24.7524 33.1092 24.7525 32.8717 24.7526C32.6688 24.7527 32.4655 24.7527 32.2637 24.7527C32.1423 24.7526 32.0214 24.7526 31.9003 24.7527C31.7863 24.7528 31.6723 24.7527 31.5583 24.7526C31.5162 24.7525 31.4744 24.7526 31.4324 24.7526C31.3754 24.7527 31.3184 24.7526 31.2614 24.7525C31.2362 24.7526 31.2362 24.7526 31.2103 24.7526C31.0963 24.7522 31.0963 24.7522 31.07 24.7258C31.0676 24.688 31.0669 24.65 31.0669 24.6123C31.0668 24.588 31.0668 24.5638 31.0667 24.5391C31.0667 24.5128 31.0668 24.4866 31.0668 24.4593C31.0668 24.4325 31.0668 24.4056 31.0668 24.3781C31.0668 24.3213 31.0668 24.2646 31.0669 24.2078C31.067 24.1206 31.0669 24.0332 31.0667 23.9466C31.0668 23.8915 31.0668 23.8366 31.0668 23.7815C31.0668 23.7421 31.0668 23.7421 31.0667 23.7017C31.0668 23.6775 31.0668 23.6532 31.0669 23.6285C31.0669 23.6071 31.067 23.5858 31.067 23.5637C31.0737 23.4552 31.167 23.4882 31.256 23.4882L31.255 23.4888Z" fill="#000100"/>
<path d="M27.2888 28.5475H28.5238C28.5243 29.1175 28.5247 29.6851 28.525 30.2551C28.5251 30.5187 28.5253 30.7847 28.5255 31.0483C28.5258 31.2787 28.5259 31.5091 28.526 31.7395C28.526 31.8615 28.5261 31.9841 28.5263 32.1052C28.5264 32.2199 28.5265 32.3346 28.5264 32.4496C28.5264 32.4919 28.5265 32.5341 28.5266 32.5762C28.5267 32.6337 28.5267 32.6909 28.5266 32.7484C28.5267 32.7653 28.5267 32.7823 28.5268 32.7997C28.5265 32.9144 28.5265 32.9144 28.5 32.9407H27.2887V28.547L27.2888 28.5475Z" fill="#000100"/>
<path d="M18.4537 27.9062H19.6887C19.7124 28.0007 19.7156 28.0758 19.7156 28.1722C19.7156 28.1893 19.7157 28.2064 19.7157 28.224C19.7158 28.2805 19.7157 28.3368 19.7157 28.3933C19.7157 28.4325 19.7157 28.4717 19.7157 28.5109C19.7158 28.593 19.7157 28.675 19.7156 28.7579C19.7155 28.8633 19.7156 28.9688 19.7157 29.0737C19.7158 29.1547 19.7158 29.2355 19.7157 29.316C19.7157 29.3549 19.7157 29.3939 19.7158 29.4326C19.7158 29.4867 19.7157 29.5409 19.7156 29.595C19.7156 29.6259 19.7155 29.6568 19.7155 29.6886C19.7125 29.7575 19.7125 29.7575 19.6887 29.7812C19.6509 29.7836 19.6129 29.7843 19.5752 29.7843C19.5388 29.7844 19.5388 29.7844 19.502 29.7845C19.4757 29.7845 19.4495 29.7844 19.4222 29.7844C19.3954 29.7844 19.3685 29.7844 19.341 29.7845C19.2842 29.7845 19.2275 29.7844 19.1707 29.7843C19.0835 29.7842 18.9961 29.7843 18.9095 29.7845C18.8544 29.7845 18.7995 29.7844 18.7444 29.7844C18.718 29.7844 18.6919 29.7845 18.6646 29.7845C18.6404 29.7845 18.6161 29.7844 18.5914 29.7843C18.57 29.7843 18.5487 29.7843 18.5266 29.7842C18.4779 29.7812 18.4779 29.7812 18.4542 29.7574C18.4519 29.6997 18.4512 29.6425 18.4515 29.5847C18.4515 29.5667 18.4515 29.5486 18.4514 29.5299C18.4515 29.4698 18.4517 29.4099 18.4518 29.3499C18.4519 29.3083 18.4519 29.267 18.4519 29.2254C18.452 29.1159 18.4523 29.0064 18.4525 28.8977C18.4528 28.7666 18.4529 28.6364 18.4531 28.5034C18.4533 28.3039 18.4537 28.1044 18.4542 27.9049L18.4537 27.9062Z" fill="#000100"/>
</g>
<defs>
<clipPath id="clip0_96_15">
<rect width="38" height="38" fill="white"/>
</clipPath>
</defs>
</svg>
